<?xml version="1.0" encoding="utf-8"?>
<!-- Generator: Adobe Illustrator 27.0.0, SVG Export Plug-In . SVG Version: 6.00 Build 0)  -->
<svg version="1.1" xmlns="http://www.w3.org/2000/svg" xmlns:xlink="http://www.w3.org/1999/xlink" x="0px" y="0px"
	 viewBox="0 0 1920 1080" style="enable-background:new 0 0 1920 1080;" xml:space="preserve">
<style type="text/css">
	.st0{fill:#FFFFFF;}
	.st1{fill-rule:evenodd;clip-rule:evenodd;fill:#FFFFFF;}
	.st2{fill-rule:evenodd;clip-rule:evenodd;}
</style>
<g id="Layer_1">
</g>
<g id="dizajn">
	<g>
		<g>
			<g>
				<g>
					<path d="M706.17,722.16c3.85,0,3.85-5.98,0-5.98C702.32,716.18,702.31,722.16,706.17,722.16L706.17,722.16z"/>
				</g>
				<g>
					<g>
						<path class="st0" d="M967.68,173.45c-28.67-11.51-32.99,33.15-25.96,50.39c10.46,25.65,46.59,21.17,57.71-1.56
							c1.72-3.52-2.71-7.54-5.69-4.39c-10.29,10.92-28.48,24.63-41.42,7.8c-4.94-6.42-5.93-15.37-5.85-23.32
							c0.11-10.88,5.06-27.55,19.55-22.94C969.92,180.68,971.3,174.9,967.68,173.45L967.68,173.45z"/>
					</g>
					<g>
						<path class="st0" d="M932.28,198.73c4.01-1.69,8.12-3.26,11.96-5.31c3.65-1.95,1.22-7.17-2.64-5.81
							c-4.11,1.45-8.04,3.42-11.99,5.25C925.84,194.6,928.45,200.34,932.28,198.73L932.28,198.73z"/>
					</g>
					<g>
						<path class="st0" d="M929.13,214.29c4.2-1.78,8.42-3.77,12.36-6.07c3.49-2.04,1.13-7.36-2.7-5.75
							c-4.21,1.77-8.33,3.95-12.28,6.24C923.11,210.68,925.43,215.86,929.13,214.29L929.13,214.29z"/>
					</g>
					<g>
						<path class="st0" d="M931.35,230.98c5.57-2.65,10.16-6.68,13.56-11.83c2.29-3.47-3.08-6.36-5.46-3.19
							c-3.05,4.05-6.77,7.26-11.2,9.72C924.76,227.62,927.83,232.66,931.35,230.98L931.35,230.98z"/>
					</g>
					<g>
						<path class="st0" d="M937.49,240.94c5.59-2.69,10.22-6.74,13.46-12.04c2.13-3.49-3.16-6.47-5.43-3.17
							c-2.92,4.25-6.55,7.53-11.16,9.87C930.79,237.4,933.93,242.65,937.49,240.94L937.49,240.94z"/>
					</g>
					<g>
						<g>
							<path class="st0" d="M700.29,234.59c-10.7-9.93-16.59,3.31-17.72,12.92c-4.9,41.64-0.41,86.63-0.6,128.59
								c-0.37,84.25-0.81,168.5-1.17,252.75c-0.18,41.39-0.35,82.77-0.53,124.16c-0.04,8.57-4.03,27.52,2.21,35.33
								c5.21,6.53,19.07,5.88,26.58,6.71c41.42,4.61,83.39,1.82,124.94,0.95c40.82-0.85,81.66-1.32,122.49-1.4
								c46.67-0.09,93.33,0.41,139.99,1.29c16.22,0.31,62.3,10.1,64.8-15.94c0.45-4.72-6.89-4.67-7.36,0
								c-1.73,17.19-108.54,7.55-123.06,7.43c-40.83-0.35-81.67-0.33-122.5,0.06c-40.73,0.4-81.44,1.42-122.16,2.31
								c-20.02,0.44-40.08,0.72-60.08-0.59c-17.47-1.14-34.51,3.2-38.58-18.42c-1.79-9.54,0.09-21.29,0.12-31.04
								c0.33-82.77,0.68-165.54,0.96-248.32c0.14-41.39,0.28-82.77,0.44-124.16c0.08-20.69,0.16-41.39,0.24-62.08
								c0.04-10.35,0.08-20.69,0.12-31.04c0.01-1.62,0.41-40.1,6.54-35.2C698.97,241.32,703.24,237.33,700.29,234.59L700.29,234.59z
								"/>
						</g>
						<g>
							<path class="st0" d="M698.67,241.27c-4.51,3.57-8.94,7.26-13.26,11.05c-3.08,2.71,1.37,6.99,4.46,4.46
								c4.44-3.64,8.79-7.41,13.05-11.27C705.84,242.86,701.63,238.93,698.67,241.27L698.67,241.27z"/>
						</g>
						<g>
							<path class="st0" d="M701.65,252.99c-6.67,4.66-13.4,10.47-19.08,16.29c-2.62,2.69,1.59,6.7,4.47,4.6
								c6.56-4.79,13.2-10.71,18.74-16.64C708.18,254.68,704.33,251.11,701.65,252.99L701.65,252.99z"/>
						</g>
						<g>
							<path class="st0" d="M701.04,269.14c-7.69,4.86-14.71,11.52-19.54,19.27c-2.14,3.42,2.44,7.24,5.05,3.94
								c5.45-6.9,11.25-12.92,18.3-18.21C708.14,271.67,704.41,267.01,701.04,269.14L701.04,269.14z"/>
						</g>
						<g>
							<path class="st0" d="M701.41,286.49c-7.15,4.01-13.69,9.82-17.48,17.2c-1.91,3.71,3.19,6.62,5.55,3.24
								c4.19-6,8.78-11.2,15.03-15.14C707.85,289.69,704.88,284.55,701.41,286.49L701.41,286.49z"/>
						</g>
						<g>
							<path class="st0" d="M699.45,303.38c-4.67,5.64-9.71,10.86-15.08,15.83c-3.07,2.84,1.39,7.05,4.51,4.51
								c5.9-4.8,10.99-10.43,15.41-16.61C706.32,304.29,701.69,300.68,699.45,303.38L699.45,303.38z"/>
						</g>
						<g>
							<path class="st0" d="M702.62,317.99c-6.17,5.72-12.37,11.41-18.26,17.44c-2.93,3.01,1.51,7.4,4.59,4.59
								c6.23-5.67,12.12-11.67,18.06-17.64C709.84,319.54,705.54,315.28,702.62,317.99L702.62,317.99z"/>
						</g>
						<g>
							<path class="st0" d="M699.57,335.97c-6.21,6.8-9.81,10.81-15.7,17.9c-2.58,3.11,1.71,7.59,4.51,4.51
								c6.2-6.82,9.68-10.94,15.55-18.04C706.41,337.32,702.28,333,699.57,335.97L699.57,335.97z"/>
						</g>
						<g>
							<path class="st0" d="M700.61,353.43c-6.59,6.94-10.49,12.86-16.71,20.13c-2.64,3.08,1.63,7.5,4.51,4.51
								c6.64-6.89,10.3-13.03,16.57-20.26C707.57,354.83,703.38,350.51,700.61,353.43L700.61,353.43z"/>
						</g>
						<g>
							<path class="st0" d="M699.51,374.88c-5.85,6.08-11.39,12.49-16.81,18.96c-2.61,3.11,1.69,7.59,4.52,4.53
								c5.72-6.2,11.37-12.53,16.66-19.1C706.33,376.23,702.34,371.94,699.51,374.88L699.51,374.88z"/>
						</g>
						<g>
							<path class="st0" d="M698.96,398.73c-5.65,5.12-10.98,10.7-16.16,16.3c-2.82,3.05,1.56,7.47,4.57,4.57
								c5.51-5.27,10.99-10.71,16.01-16.45C706.03,400.13,701.96,396,698.96,398.73L698.96,398.73z"/>
						</g>
						<g>
							<path class="st0" d="M697.46,419.94c-3.83,3.74-7.74,7.42-11.36,11.37c-2.74,2.99,1.46,7.18,4.44,4.44
								c3.95-3.62,7.63-7.52,11.37-11.35C704.75,421.49,700.36,417.1,697.46,419.94L697.46,419.94z"/>
						</g>
						<g>
							<path class="st0" d="M699.25,437.96c-4.03,4.1-8,8.25-11.79,12.58c-2.68,3.06,1.62,7.48,4.51,4.51
								c4.01-4.13,7.84-8.41,11.61-12.76C706.14,439.34,702.05,435.12,699.25,437.96L699.25,437.96z"/>
						</g>
						<g>
							<path class="st0" d="M697.16,458.64c-4.36,4.84-8.77,9.64-12.82,14.74c-2.49,3.13,1.64,7.58,4.51,4.51
								c4.46-4.76,8.55-9.83,12.7-14.86C704.06,460,699.87,455.63,697.16,458.64L697.16,458.64z"/>
						</g>
						<g>
							<path class="st0" d="M695.67,478.22c-3.96,4.5-8.19,8.89-11.74,13.73c-2.18,2.97,2.5,6.35,5.01,3.86
								c4.05-4.03,7.58-8.7,11.26-13.07C702.82,479.63,698.41,475.11,695.67,478.22L695.67,478.22z"/>
						</g>
						<g>
							<path class="st0" d="M696.11,499.71c-4.31,4.77-8.64,9.54-12.53,14.67c-2.2,2.89,2.55,6.43,4.99,3.85
								c4.24-4.47,8.05-9.36,11.89-14.17C702.86,501.04,698.81,496.72,696.11,499.71L696.11,499.71z"/>
						</g>
						<g>
							<path class="st0" d="M696.81,518.27c-3.94,4.16-9.46,9.47-13.01,13.97c-2.5,3.16,1.49,7.5,4.54,4.54
								c4.12-3.99,9.11-9.79,12.85-14.13c2.57-2.99,0.76-9.78-2.01-6.85L696.81,518.27z"/>
						</g>
						<g>
							<path class="st0" d="M697.91,537.69c-6.12,4.26-11.69,9.55-15.46,16.04c-2.06,3.55,3.1,6.39,5.41,3.16
								c3.79-5.31,7.84-10.05,13.15-13.91C704.14,540.69,701.18,535.41,697.91,537.69L697.91,537.69z"/>
						</g>
						<g>
							<path class="st0" d="M697.43,558.74c-5.04,4.66-8.24,7.14-13.04,12.06c-2.86,2.93,1.41,7.07,4.44,4.44
								c5.19-4.5,8-7.38,12.95-12.14c2.87-2.76,0.58-9.11-2.33-6.42L697.43,558.74z"/>
						</g>
						<g>
							<path class="st0" d="M697.81,574.46c-5.54,5.82-9.9,9.76-15.03,15.95c-2.56,3.1,1.54,7.43,4.49,4.49
								c5.71-5.67,9.6-10.04,14.9-16.09C704.76,575.86,700.58,571.56,697.81,574.46L697.81,574.46z"/>
						</g>
						<g>
							<path class="st0" d="M699.18,595.24c-6.84,5.19-12.66,10.4-17.36,17.65c-1.92,2.96,2.64,6.6,4.95,3.82
								c5.2-6.24,9.83-11.47,16.16-16.61c2.7-2.19-0.35-7.73-3.16-5.6L699.18,595.24z"/>
						</g>
						<g>
							<path class="st0" d="M699.03,613.04c-5.72,6.57-11.64,13.03-16.8,20.05c-2.16,2.93,2.56,6.46,5.01,3.86
								c5.8-6.14,10.92-12.93,16.19-19.52C705.87,614.38,701.69,609.98,699.03,613.04L699.03,613.04z"/>
						</g>
						<g>
							<path class="st0" d="M699.7,634.68c-6,7.43-12.34,14.67-17.75,22.56c-2.04,2.98,2.62,6.6,5.03,3.88
								c6.34-7.16,11.81-15.08,17.57-22.7C706.64,635.64,701.9,631.95,699.7,634.68L699.7,634.68z"/>
						</g>
						<g>
							<path class="st0" d="M698.98,658.38c-6.59,5.59-12.78,12.16-17.07,19.71c-1.74,3.06,2.73,6.87,5.06,3.91
								c5.24-6.67,10.34-13.26,16.41-19.23C706.26,659.93,701.98,655.82,698.98,658.38L698.98,658.38z"/>
						</g>
						<g>
							<path class="st0" d="M699.12,681.29c-5.2,6-10.66,11.87-15.35,18.29c-2.17,2.97,2.58,6.53,5.06,3.91
								c5.27-5.58,9.86-11.84,14.64-17.84C705.9,682.61,701.76,678.24,699.12,681.29L699.12,681.29z"/>
						</g>
						<g>
							<path class="st0" d="M700.8,702.44c-5.65,5.99-11.89,11.82-16.78,18.46c-2.26,3.07,2.48,6.24,5.06,3.91
								c5.91-5.33,10.88-11.98,16.09-17.99C707.76,703.84,703.56,699.52,700.8,702.44L700.8,702.44z"/>
						</g>
						<g>
							<path class="st0" d="M700.85,725.24c-7.9,7.04-15.06,15.56-19.19,25.38c-1.43,3.41,3.99,5.4,5.81,2.45
								c5.26-8.54,8.43-15.96,15.82-22.87C706.25,727.41,703.85,722.56,700.85,725.24L700.85,725.24z"/>
						</g>
						<g>
							<path class="st0" d="M695.43,748.49c-3.87,5.3-7.91,10.66-11.29,16.29c-1.81,3.02,2.75,6.8,5.03,3.88
								c4.2-5.4,7.92-11.28,11.63-17.03C703,748.2,697.74,745.32,695.43,748.49L695.43,748.49z"/>
						</g>
						<g>
							<path class="st0" d="M705.34,770.33c-4.62,5.46-9.38,11.01-13.42,16.92c-2.06,3.01,2.62,6.62,5.06,3.91
								c4.78-5.31,9.05-11.27,13.26-17.05C712.3,771.27,707.62,767.63,705.34,770.33L705.34,770.33z"/>
						</g>
						<g>
							<path class="st0" d="M726.89,771.44c-4.2,5.54-8.42,11.48-11.88,17.51c-2.1,3.66,3.07,6.34,5.49,3.21
								c4.25-5.5,8.13-11.66,11.64-17.65C734.16,771.04,729.18,768.42,726.89,771.44L726.89,771.44z"/>
						</g>
						<g>
							<path class="st0" d="M744.44,771.28c-3.99,5.82-7.84,11.74-11.37,17.85c-2.06,3.57,3.19,6.52,5.47,3.19
								c3.98-5.82,7.65-11.86,11.17-17.97C751.69,770.91,746.64,768.08,744.44,771.28L744.44,771.28z"/>
						</g>
						<g>
							<path class="st0" d="M762.05,771.3c-3.31,5.91-6.66,11.82-9.68,17.88c-1.78,3.58,3.36,6.68,5.41,3.16
								c3.41-5.86,6.48-11.91,9.59-17.93C769.19,770.9,764,767.82,762.05,771.3L762.05,771.3z"/>
						</g>
						<g>
							<path class="st0" d="M782.83,768.89c-5.2,6.02-9.12,13-10.73,20.84c-0.81,3.97,4.9,5.61,6.1,1.68
								c2.01-6.56,4.77-12.7,9.02-18.13C789.62,770.21,785.49,765.81,782.83,768.89L782.83,768.89z"/>
						</g>
						<g>
							<path class="st0" d="M799.13,770.07c-5.56,7.05-10.07,14.51-13.24,22.93c-1.28,3.38,4.39,5.82,5.89,2.48
								c3.41-7.58,7.38-14.88,12.29-21.6C806.15,771.03,801.34,767.27,799.13,770.07L799.13,770.07z"/>
						</g>
						<g>
							<path class="st0" d="M821.46,767.82c-5.03,6.08-9.02,12.69-11.7,20.12c-1.39,3.85,4.51,5.26,6.01,1.66
								c2.59-6.2,5.87-12.15,10.02-17.45C828.17,769.1,824,764.75,821.46,767.82L821.46,767.82z"/>
						</g>
						<g>
							<path class="st0" d="M840.26,769.01c-4.97,5.41-8.96,12.01-10.78,19.18c-1.01,4.02,4.69,5.44,6.1,1.68
								c2.27-6.01,5.02-11.43,9.1-16.44C847.18,770.37,843.03,765.99,840.26,769.01L840.26,769.01z"/>
						</g>
						<g>
							<path class="st0" d="M859.6,769.68c-3.07,6.63-6.05,13.29-8.85,20.03c-1.36,3.27,4.27,5.67,5.76,2.43
								c3.05-6.64,5.9-13.35,8.68-20.11C866.5,768.86,861.05,766.54,859.6,769.68L859.6,769.68z"/>
						</g>
						<g>
							<path class="st0" d="M880.81,769.04c-5.24,6.17-8.72,13.4-9.52,21.51c-0.34,3.47,5.39,4.24,6.1,0.83
								c1.37-6.57,3.59-12.64,7.77-17.97C887.56,770.34,883.41,765.96,880.81,769.04L880.81,769.04z"/>
						</g>
						<g>
							<path class="st0" d="M901.89,766.9c-4.92,6.56-8.19,13.95-9.58,22.03c-0.68,3.93,5.21,5.69,6.08,1.68
								c1.62-7.45,4.51-14.3,8.85-20.58C909.53,766.69,904.22,763.78,901.89,766.9L901.89,766.9z"/>
						</g>
						<g>
							<path class="st0" d="M923.21,768.31c-6.46,4.06-10.91,10.89-12.45,18.31c-0.82,3.96,5.11,5.66,6.1,1.68
								c1.59-6.37,5.03-11.08,10.02-15.22C929.55,770.87,926.1,766.49,923.21,768.31L923.21,768.31z"/>
						</g>
						<g>
							<path class="st0" d="M943.18,768.64c-5.49,6.23-9.88,13.6-11.78,21.75c-0.92,3.93,4.8,5.5,6.04,1.66
								c2.28-7.05,5.28-13.36,10.14-19.02C950.15,770.02,945.83,765.62,943.18,768.64L943.18,768.64z"/>
						</g>
						<g>
							<path class="st0" d="M956.91,769.64c-2.95,6.68-6.02,13.33-8.64,20.14c-1.29,3.35,4.29,5.72,5.83,2.46
								c3.1-6.61,5.78-13.43,8.56-20.18C963.99,768.79,958.35,766.38,956.91,769.64L956.91,769.64z"/>
						</g>
						<g>
							<path class="st0" d="M979.34,767.89c-3.81,7.01-7.81,13.95-11.32,21.12c-1.76,3.6,3.36,6.7,5.42,3.17
								c4.03-6.88,7.61-14.06,11.34-21.11C986.68,767.49,981.28,764.31,979.34,767.89L979.34,767.89z"/>
						</g>
						<g>
							<path class="st0" d="M997.19,769.51c-2.76,4.83-5.59,9.64-8.1,14.61c-1.82,3.6,3.34,6.69,5.45,3.18
								c2.87-4.78,5.43-9.73,8.04-14.65C1004.46,769.12,999.2,766.01,997.19,769.51L997.19,769.51z"/>
						</g>
						<g>
							<path class="st0" d="M1018.4,773.64c-1.79,4.83-4.09,9.22-6.78,13.6c-1.88,3.05,2.75,6.84,5.08,3.92
								c3.72-4.67,6.38-10.03,7.78-15.84C1025.45,771.31,1019.79,769.87,1018.4,773.64L1018.4,773.64z"/>
						</g>
						<g>
							<path class="st0" d="M1041.13,772.81c-3.14,5.46-6.21,11.1-8.6,16.93c-1.45,3.53,4.12,5.58,6,2.53
								c3.14-5.12,5.72-10.73,8.15-16.22C1048.31,772.36,1043.24,769.14,1041.13,772.81L1041.13,772.81z"/>
						</g>
						<g>
							<path class="st0" d="M1063.56,771.3c-3.46,5.77-5.85,12.58-5.62,19.39c0.12,3.48,5.84,4.66,6.4,0.87
								c0.89-6.01,1.93-11.59,4.61-17.11C1070.68,770.87,1065.65,767.81,1063.56,771.3L1063.56,771.3z"/>
						</g>
						<g>
							<path class="st0" d="M1086.2,774.31c-3.61,4.71-5.63,10.48-4.94,16.43c0.48,4.15,6.32,4.32,6.59,0
								c0.3-4.77,1.4-9.08,4.04-13.11C1094.27,774,1088.7,771.05,1086.2,774.31L1086.2,774.31z"/>
						</g>
						<g>
							<path class="st0" d="M1108.83,775.68c-3.28,4.68-5.57,10.66-4.83,16.46c0.52,4.03,6.07,4.17,6.38,0
								c0.44-5.91,1.16-11.55,3.83-13.31C1117.61,776.59,1111.1,772.44,1108.83,775.68L1108.83,775.68z"/>
						</g>
						<g>
							<path class="st0" d="M1125.88,777.56c-0.99,2.74-2.03,9.63-2.92,12.4c-1.25,3.91,4.55,5.28,6.01,1.66
								c1.09-2.7,2.04-9.63,3.03-12.37C1133.4,775.4,1127.27,773.74,1125.88,777.56L1125.88,777.56z"/>
						</g>
						<g>
							<path class="st0" d="M1141.23,778.53c-0.05,1.63-0.52,6.28-0.48,7.9c0.1,4.06,6.2,4.06,6.31,0c0.04-1.63,0.53-6.28,0.48-7.9
								c-0.13-4.06-6.17-2.55-6.31,1.51V778.53z"/>
						</g>
					</g>
					<g>
						<g>
							<path d="M1195.5,217.58c-0.36,13.79-0.78,27.59-0.92,41.38c-0.04,4.08,6.18,4.06,6.33,0c0.49-13.79,0.69-27.59,0.97-41.38
								C1201.96,213.48,1195.61,213.48,1195.5,217.58L1195.5,217.58z"/>
						</g>
						<g>
							<path d="M1207.52,218.44c-1.25,31.82-1.1,63.61-3.04,95.43c-0.27,4.35,6.37,4.27,6.73,0c2.65-31.55,4.61-63.8,2.37-95.43
								C1213.3,214.58,1207.68,214.51,1207.52,218.44L1207.52,218.44z"/>
						</g>
						<g>
							<path d="M1189.73,641.56c-0.31,44.46-0.58,89,0.51,133.45c0.1,4.25,6.55,4.26,6.61,0c0.66-44.45-0.05-89-0.79-133.45
								C1195.99,637.49,1189.76,637.48,1189.73,641.56L1189.73,641.56z"/>
						</g>
						<g>
							<path d="M1200.31,710.82c0.35,20.83,0.49,41.7,1.57,62.5c0.22,4.19,6.57,4.25,6.56,0c-0.04-20.83-1.02-41.68-1.78-62.5
								C1206.51,706.75,1200.24,706.72,1200.31,710.82L1200.31,710.82z"/>
						</g>
						<g>
							<path d="M1231.52,749.11c-35.81,0.56-71.55-0.21-107.28-2.69c-4.08-0.28-4.03,6.01,0,6.33c35.74,2.85,71.45,3.85,107.28,2.6
								C1235.52,755.2,1235.55,749.05,1231.52,749.11L1231.52,749.11z"/>
						</g>
						<g>
							<path d="M729.35,210.83c-0.3,10.42-0.65,20.83-0.83,31.25c-0.07,3.98,6.02,3.96,6.17,0c0.38-10.41,0.59-20.83,0.85-31.25
								C735.65,206.84,729.47,206.85,729.35,210.83L729.35,210.83z"/>
						</g>
						<g>
							<path d="M743.38,212.47c1.23,26.57,1.25,52.91-0.82,79.43c-0.33,4.17,6.07,4.09,6.47,0c2.57-26.43,3.03-52.98,0.52-79.43
								C749.18,208.58,743.2,208.45,743.38,212.47L743.38,212.47z"/>
						</g>
						<path d="M1241.02,211.49c0.03-2.32-2.08-3.2-3.8-2.72c-0.03,0-0.05-0.01-0.08-0.01c-77.87,7.74-156.82,4.75-235.14,3.55
							c0.01-0.39,0.06-0.74,0.06-1.13c0.18-23.07-18.93-42.21-42.05-42.27c-22.87-0.06-40.15,20.69-39.62,42.63
							c-26.83-0.2-53.65-0.4-80.48-0.76c-45.02-0.59-91.97-6.62-136.72-1.36c-0.75,0.09-1.31,0.43-1.77,0.85
							c-1.51,0.01-2.94,0.98-2.83,2.96c5.41,93.66-0.05,186.9-2.16,280.55c-2.09,92.68,6.65,185.02,0.67,277.65
							c0,0.05,0.02,0.09,0.02,0.14c-0.61,1.9,0.33,4.27,2.9,4.15c88.22-4.29,176.35-6.57,264.68-4.28
							c89.08,2.31,178.04,8.85,267.2,6.03c2.27-0.07,3.34-1.95,3.24-3.71c0.22-0.45,0.36-0.96,0.31-1.6
							C1222.97,585.69,1238.64,398.08,1241.02,211.49z M929.07,200.55c3.6-10.45,11.41-19.22,22.62-22.36
							c16.16-4.52,34.72,5.39,39.96,21.26c7.17,21.73-5.83,42.05-28.85,42.87c-13.83,0.49-27.17-6.28-31.87-17.83
							c-1.37-1.99-2.22-4.14-2.81-6.48c0.17,0,0.35,0,0.52,0.01c-0.58-1.33-0.95-2.75-1.23-4.21c-0.06-0.8-0.16-1.59-0.17-2.41
							c0.01-0.34-0.01-0.69-0.01-1.03c-0.02-0.08-0.04-0.11-0.06-0.21C926.08,206.81,927.02,203.27,929.07,200.55z M964.72,764.66
							c-86.84-2.25-173.99-1.3-260.69,4.41c5.69-91.83-2.83-183.39-0.76-275.28c2.09-92.72,9.19-185.77,1.66-278.41
							c44.3-4.72,90.5,1.14,135,1.73c26.93,0.36,53.86,0.59,80.79,0.82c-1.01,36.84,73.08,47.97,80.68,0.9
							c77.76,1.28,156.08,3.88,233.49-2.85c-7.75,183.91-17.83,370.94-6.27,554.76C1140.56,773.3,1052.7,766.93,964.72,764.66z"/>
					</g>
				</g>
			</g>
		</g>
		<g>
			<path class="st1" d="M877.62,373.97c1.01,4.78-3.24,10.26-3.91,16.28c-0.54,4.79,1.19,10.52-0.98,14.65
				c-3.9-0.67-2.93-8.81-2.6-13.35c0.46-6.4,3.72-13.06,5.21-17.58c0.74,0.45,1.22-0.84,1.3,0
				C876.97,373.97,877.3,373.97,877.62,373.97z"/>
			<path class="st1" d="M865.9,377.88c0.77,4.29-1.32,11.89-0.65,17.9c0.27,2.4,2.19,5-0.33,6.19c-5.35-2.4-3.18-18.93-1.3-24.09
				C864.92,377.7,864.6,377.7,865.9,377.88z"/>
			<path class="st1" d="M1053.44,406.86c3.72-0.74,6.93,3.64,9.12,7.49c0.59,1.05,6.54,11.51,2.6,11.72
				c-1.62,0.09-2.56-3.79-2.93-4.56c-0.76-1.59-1.61-3.44-2.61-5.21C1057.68,412.82,1053.46,410.5,1053.44,406.86z"/>
			<path class="st1" d="M1056.69,433.23c-3.53-1.23-2.99-5.75-4.23-8.47c-2.4-5.24-5.4-9.27-9.77-12.7c0.25-0.29,0.35-0.73,0.33-1.3
				c0.26-0.17,0.53-0.34,0.98-0.33c4.86,0.46,9.22,7.38,11.72,12.7C1057.3,426.5,1058.76,431.22,1056.69,433.23z"/>
			<path class="st1" d="M995.48,448.86c-3.26,1.82-5.75-3.17-9.44-3.91c-3.14-0.63-7.32,1.32-9.44-1.3
				c-0.14-1.65,1.05-2.01,1.95-2.28C985.42,439.29,995.29,444.41,995.48,448.86z"/>
			<path class="st1" d="M959.34,455.37c-1.48,7.91-0.62,19.09,1.95,26.05c0.82,2.21,3.72,5.87,3.58,7.16
				c-0.33,3.1-11.48,6.31-14.32,3.58c0.55-5.19,6.84-1.08,9.77-4.23c-1.61-3.23-4.62-10.55-5.21-18.23
				C954.72,464.6,954.23,452.27,959.34,455.37z"/>
			<path class="st1" d="M983.97,456.45c6.97-1.46,5.96,12.31,1.63,12.7C979.51,469.7,977.68,457.78,983.97,456.45z"/>
			<path class="st1" d="M930.02,469.97c-0.76-0.91-1.23-2.03-1.31-3.22c-0.33-4.95,0.84-10.92,6.42-8.34
				c3.55,1.64,3.98,12.48,0,13.67C932.36,472.91,931.21,471.39,930.02,469.97z"/>
			<path class="st1" d="M937.85,623.04c-1.38-2.91,2.44-4.15,4.56-5.21c6.41-3.22,14.27-7.24,20.18-10.09
				c1.08-0.52,2.94,0.07,2.61,1.96c-0.25,1.46-5.74,3.47-6.51,3.91c-2.63,1.48-5.01,2.7-6.84,3.58
				C946.61,619.69,942.98,622.59,937.85,623.04z"/>
			<path class="st1" d="M973.34,610.34c0.94-0.08,1.94-0.34,2.28,0.97c0.61,2.43-6.07,5.35-8.14,6.51
				c-6.49,3.65-11.71,6.85-18.24,10.75c-2.03,1.21-8.44,5.68-9.11,2.6c-0.43-1.97,6.29-5.18,7.49-5.86
				c8.22-4.7,18.08-10.32,25.07-14.65C972.93,610.52,972.92,610.38,973.34,610.34z"/>
			<path class="st1" d="M897.81,643.87c-1.94-3.17,2.47-6.04,4.56-7.16c2.51-1.35,11.37-5.43,14.32-5.21
				c1.71,0.13,2.22,0.83,2.28,1.63c0.14,1.94-5.15,2.96-6.84,3.58c-2.82,1.03-5.34,1.85-7.49,2.93
				C901.92,641.02,901.24,643.32,897.81,643.87z"/>
			<path class="st1" d="M893.9,539.04c-0.32-3.38,3.5-5.05,5.53-7.16c2.17-2.26,4.09-4.81,6.19-6.84
				c-7.03,6.12-16.15,13.55-28.65,12.04c0.07-4.45,4.82-9.08,1.63-12.7c-5.63,0.88-11.4,1.62-17.58,1.95
				c3.15-5.21,7.06-9.65,10.09-14.98c-4.51-4.51-13.29-4.54-17.58-8.47c3.42-1.57,7.88-2.11,12.05-2.93
				c-3.69-0.65-8.88,0.2-9.12-3.91c1.89-1.82,6.59-1.96,10.74-3.91c2.75-1.28,8.28-3.91,5.21-6.51c-5.21,2.72-15.68,6.59-22.47,2.6
				c0.18-3.75,4.4-4.32,6.84-5.86c2.63-1.66,5.39-3.17,6.51-6.19c-6.34-2.58-16.11-2.38-22.46-6.18c2.07-0.76,5.53-0.11,8.14-0.33
				c1.05,0.08-0.13-2.04,0.98-2.61c3.75-0.8,8.97-0.15,11.07-2.6c-7.4,2.09-15.1,1.71-21.49-0.98c0.35-1.06,1.13-1.69,1.3-2.93
				c9.73-1.56,16.76-5.81,23.77-10.09c-0.03-12.76,8.11-20.71,21.81-17.58c-1.49-11.01-0.97-20.26,2.61-28.98
				c6.98-17.03,17.94-28.29,34.84-35.16c12.68-5.15,23.93-8.78,41.02-7.49c14.26,1.08,28.64,4.68,38.09,11.39
				c2.97,2.11,7.11,4.63,9.11,7.16c2.46,3.12,3.63,7.51,4.88,11.4c1.31,4.04,3.06,8.38,3.58,12.7c0.53,4.39-0.97,9.58,0,14.98
				c0.53,2.97,2.81,4.16,3.58,7.49c10.31-3.36,16.08,6.37,17.58,15.63c0.6,3.71-0.03,8.66,0.33,13.67
				c0.51,7.12,1.34,14.86,0.65,20.19c-0.75,5.84-5.27,7.93-7.81,10.09c1.05,5.5,3.72,10.3,6.84,14.33
				c2.87,3.7,6.48,8.07,10.09,10.74c1.84,1.36,4.82,1.42,5.21,4.24c-5.5,0.36-12.71-0.99-14.33,3.26c-0.23,2.84,0.32,4.89,0.98,6.84
				c-2.12,2.82-7.56,1.08-11.72,1.3c0.08,1.53,1.49,2.75,0.98,4.56c-1.76,6.18-16.37-0.25-19.53-1.95
				c-0.04,2.45,2.81,3.46,5.21,5.21c1.48,1.08,5.64,3.57,5.21,5.53c-0.68,3.1-10.69,1.55-14,0.65c-3.56-0.96-5.84-2.75-8.79-3.58
				c0.48,3.21,3.82,3.56,3.25,7.81c-3.87,1.98-8.93-0.89-12.04-3.25c-3.71-2.81-6.55-7.13-8.79-11.39
				c-1.73,3.92-8.17,3.12-10.09,6.84c1.3,10.42,4.62,18.82,10.42,24.74c9.55-0.34,17.13,0.38,25.07,2.28
				c9.72,2.33,16.07,2.53,21.49,8.79c4.82,5.58,5.15,12.51,5.86,22.47c1.01,14.13,1.33,32.68-0.33,43.95
				c3.13,0.51,7.44-0.83,13.35-1.3c5.11-0.41,13.52-0.97,13.67,3.26c0.18,4.85-7.31,3.3-13.67,3.58
				c-18.03,0.79-36.2,3.92-55.35,5.21c-19.88,1.33-42.91,2.44-62.84,3.58c-21.66,1.23-41.09-2.52-59.91-3.58
				c-5.66-0.32-22.73,0.42-23.12-4.88c-0.5-6.92,15.7-0.69,20.19-1.63c-0.56-5.83-2.76-11.94-3.58-18.23
				c-0.84-6.37-2.47-12.62-2.93-18.56c-1.24-16.09,3.95-29.16,13.35-37.12c8.87-7.52,29.8-4.67,43.95-8.46
				c5.12-5.05,7.43-14.39,5.86-25.07c-1.61-0.25-2.71,1.59-4.23,2.6c-3.48,2.33-9.83,7.43-14.65,4.56
				c1.76-5.18,6.29-7.61,8.47-12.37c-4.48,3.55-8.97,7.09-14.98,9.12C897.52,539.76,894.37,540.74,893.9,539.04z M1006.55,383.74
				c-1.83-2.17-5.57-4.33-8.47-6.19c-8.84-5.69-22.04-8.82-34.51-9.77c-3.82-0.29-7.56-0.28-11.4,0c-13.44,0.99-29.3,7.58-38.09,14
				c-6.96,5.08-12.57,11.14-15.95,18.55c0.91,0.43,2.07-1.08,2.93-1.95c3.63-3.65,7.35-4.29,13.35-6.84
				c8.32-3.53,17.78-9.25,29.3-3.91c1.52-0.71,2.86-2.02,4.89-2.6c5.89-1.7,23.53-1.55,29.3-0.33c3.19,0.68,7.2,2.76,10.75,4.23
				c3.83,1.59,7.84,2.78,10.74,4.56c6.83,4.17,10.88,10.49,14.65,15.95C1012.92,400.3,1011.24,389.33,1006.55,383.74z
				 M916.69,446.58c6.1-4.26,13.08-7.85,17.58-13.02c3.32-3.82,5.64-8.88,8.14-13.67c1.42-2.73,2.94-5.4,3.26-7.82
				c1.69-12.79-2.53-21.58-15.63-19.86c-3.67,0.48-6.92,2.76-10.74,4.56c-8.04,3.77-13.62,4.38-17.91,10.42
				c-3.73,5.26-5.16,13.43-7.16,18.88c7.84-5.5,15.68-11.12,22.14-17.58c2.02-2.01,4.19-5.37,7.49-5.21
				c0.74,4.02-3.67,6.28-5.86,8.46c-7.59,7.59-16.98,13.25-25.07,19.86c0.49,2.98,0.64,6.3,1.63,8.79
				c5.28-3.3,11.18-6.98,16.6-11.39c5.08-4.13,11.28-8.57,14.65-14c1.63-2.63,1.25-6.51,5.21-7.49c2.24,3.06-1.04,6.39-2.28,8.46
				c-6.01,10.04-16.64,17-26.37,23.77c-3.38,2.35-8.43,3.55-7.16,8.46c7.03-3.28,13.68-6.89,20.51-11.39
				c5.48-3.62,13.17-10.54,16.6-15.63c1.83-2.72,4.72-8.68,5.21-12.7c0.28-2.28-0.69-6.35,1.3-6.84c3.04-0.73,2.51,4.42,2.28,6.51
				c-0.53,4.69-3.06,10.26-5.53,14.33c-3.48,5.71-12.05,13.2-17.58,16.93c-7.53,5.08-15.41,8.98-22.47,13.02
				c0.72,1.34-0.56,3.06,0.65,3.91C902.98,454.21,910.45,450.93,916.69,446.58z M982.46,395.13c-3.9-0.48-8.12-1.66-11.72-1.96
				c-5.46-0.45-12.19,0.18-16.6,0.65c-1.3,0.14-4.2-0.9-4.23,0.98c24.92,3.21,45.84,16.01,61.53,30.61
				c0.25,1.26,0.91,2.12,1.63,2.93c-0.2-2.81,0.44-4.76,0.65-7.16c-5.53-5.65-11.18-12.26-19.21-15.3
				c-2.27-0.86-6.72-1.28-6.51-5.21c1.47-1.23,3.83,0.24,5.53,0.98c3.95,1.7,7.77,3.63,10.42,4.88
				C999.3,400.02,992.39,396.34,982.46,395.13z M960.64,410.11c6.46,5.29,14.13,6.52,22.47,10.42c9.75,4.56,18.73,11.12,26.7,16.93
				c0.57,0.42,2.94,2.36,2.28,1.3c0.61-2.02-1.91-0.92-2.28-1.96c-2.21-3.3-4.43-6.61-7.49-9.11c-4.96-4.05-13.83-4.57-20.51-8.14
				c-1.17-0.63-1.83-1.72-2.93-2.28c-1.48-0.75-3.37-0.91-4.88-1.63c-1.52-0.72-2.77-1.84-4.23-2.6c-2.74-1.44-7.09-2-8.14-5.53
				c2.29-2.21,5.2,0.3,7.16,1.3c5.13,2.61,9.1,4.76,14.32,7.49c7.54,3.93,16.6,4.64,21.82,9.12c0.85,0.73,1.76,2.01,2.6,2.93
				c0.7,0.77,1.38,2.43,2.6,1.95c-6.11-9.07-15.92-14.61-25.39-20.19c-9.62-5.67-21.1-9.65-33.54-12.04
				c-0.1,2.06,0.84,3.07,0.65,5.21C955.57,404.93,957.98,407.93,960.64,410.11z M974.65,421.18c-8.57-3.02-16.42-6.9-21.82-13.35
				c-0.07-0.39-0.36-0.2-0.65,0c0.59,3.07,2.21,6.76,3.91,8.79c4.24,5.1,10.83,6,18.23,8.46c7.79,2.59,17,5.36,23.44,7.81
				C990.76,428.63,983.18,424.19,974.65,421.18z M932.32,443.64c-1.37,1.07-3.78,2.25-3.25,3.26c3.71,0.41,9.65-1.4,9.77,2.6
				c-3.78,2.53-11.69-0.05-16.28,1.3c-4.02,1.18-7.86,5.03-12.04,7.16c-4.52,2.3-9.06,3.87-14.33,4.88c0.73,5.44,1.87,14.48,0,21.16
				c3.19,11.99,11.61,18.76,19.21,27.02c4.72,5.13,10.87,12.62,16.28,16.28c3.87,2.62,8.85,3.42,13.02,5.53
				c-5.36-8.61,4.78-12.62,10.74-14.98c-8.55-1.43-11.97-8-20.19-9.77c-0.65-1.96-3.39-1.83-2.93-4.88
				c2.41-1.68,3.96,0.78,5.86,1.63c9.12,4.04,29.46,6.63,38.42,1.3c1.56-0.93,5.87-7.03,7.81-6.51c3.18,0.85-1.16,5.18-0.33,6.51
				c-3.66,4.27-8.12,7.73-13.35,10.42c5.76-0.54,7.89,4.34,12.05,4.56c3.97,0.21,7.93-5.13,10.42-7.81
				c3.24-3.51,5.97-7.03,8.46-9.77c4.35-6.6,5.91-14.29,7.81-23.77c0.91-4.52,3.07-9.17,3.58-13.35c0.65-5.29-0.48-10.2,0-15.63
				c-2.86-5.78-7.81-9.93-14-13.02c-4.92-2.46-10.3-4.33-15.63-5.86c-10.73-3.08-24.76-6.61-30.61-14c-0.38-0.48-0.4-1.33-0.98-1.63
				c-0.02-0.2-0.05-0.38-0.33-0.33C947.05,427.76,941.06,436.87,932.32,443.64z M1035.85,476.53c1.74-3.98,0.16-12.56-0.33-19.53
				c-0.36-5.12,0.3-9.92-0.33-13.67c-0.69-4.21-4.14-13.05-8.46-10.74c-10.89,5.8-7.56,35.94-4.23,47.86
				C1027.51,483.02,1034.52,479.59,1035.85,476.53z M871.44,448.2c-0.66,4.65-0.19,10.99,1.3,18.23
				c2.22,10.78,3.54,20.98,15.63,18.56c3.72-6.32,1.96-16.69,1.3-24.74c-0.66-8.22-0.6-15.95-2.93-20.51
				C877.9,436.71,872.55,440.38,871.44,448.2z M848.64,462.53c6.38-0.03,11.33-1.48,16.28-2.93c-0.95-1.01,0.54-4.45-0.98-4.88
				C859.64,458.11,853.88,460.06,848.64,462.53z M857.44,486.3c5.56,0.13,9.04-1.81,12.7-3.59c-0.35-2.58-1.42-4.44-2.28-6.51
				C866.09,481.28,860.91,482.94,857.44,486.3z M1009.48,500.29c4.5-0.27,3.27,5.2,6.18,6.51c1.51-2.61,2.74-5.5,3.58-8.79
				c-0.82-2-2.73-2.91-2.93-5.53c0.98-2.91,4.11,1.22,4.23,0c0.75-1.2,0.11-3.79,0.33-5.53c-2.65-1.04-3.95-3.43-5.53-5.54
				C1013.7,488.02,1012.26,494.83,1009.48,500.29z M1027.39,491.83c0.46,0.6,1.58-0.51,2.28,0.32c-0.58-1.26-0.42-3.27-1.63-3.91
				C1027.39,489.01,1027.29,490.32,1027.39,491.83z M875.99,490.2c-2.31,2.68-5.81,4.17-9.12,5.86c7.16,0.22,13.11-0.78,16.61-4.23
				C880.08,492.19,878.83,490.41,875.99,490.2z M892.93,493.46c-0.33,0-0.65,0-0.98,0c-1.93,1.02-3.11,2.79-4.88,4.23
				c-4.08,3.32-10.11,4.17-14.65,7.16c10.01,0.9,1.78,11.95,0.65,16.93c1.72-0.56,3.85-0.71,5.54-1.3c0.51-0.22-0.85-1.29-0.33-2.6
				c7.79-3.93,15.37-8.07,19.86-15.3c-0.57-1.49-1.49-2.63-2.6-3.58c-1.82,2.74-4.42,4.35-7.81,6.51c-1.28,0.82-8.68,6.23-9.44,2.61
				c-0.41-1.94,4.81-4.05,6.19-4.88c4.57-2.78,6.9-4.1,9.44-7.16C893.63,495.15,892.85,494.73,892.93,493.46z M1036.83,510.71
				c1.85-0.27,4.68,1.43,6.51,0.98c-4.62-3.74-7.85-8.87-11.4-13.67c-0.3,0.57-1.02,0.72-1.95,0.65c-1.16-1.23-1.8-2.98-2.93-4.23
				c-0.23,2.37-0.91,4.3-1.63,6.18c1.91,1.13,2.19,3.33,3.58,4.88c1.29,1.44,3.73,2.15,3.91,4.56c-0.66,0.42-0.59,1.58-1.95,1.3
				c-3.05-1.4-4.54-4.36-6.84-6.51c-0.65,2.17-2.16,3.49-2.93,5.53c1.73,1.46,7.46,6.8,3.26,7.49c-2.28,0.37-3.15-2.81-4.56-4.23
				c-2.92,2.4-5.38,5.26-8.46,7.49c3.75,1.57,7.77,4.6,12.04,4.56c-4.65-8.37,10.1-4.91,13.35-5.86
				C1033.17,517.84,1031.72,511.46,1036.83,510.71z M1005.9,507.13c2.31,4.02,4.66,9.28,7.49,3.26c-1.78-2.67-3.34-5.56-4.88-8.46
				C1007.69,503.71,1006.7,505.33,1005.9,507.13z M883.48,519.18c6.26,0.22,3.72,7.1,1.95,10.42c6.68-0.92,12.99-6.94,17.58-11.72
				c2.14-2.24,7.23-5.85,2.6-6.84c-1.1,2.66-7.44,12.26-11.07,11.72c-4.19-0.62,2.37-5.94,3.26-6.84c2.11-2.15,3.59-3.19,4.56-5.53
				c0.58-0.5,1.27-0.9,1.95-1.3c-1.28-1.21-2.09-2.9-3.58-3.91C896.43,511.29,890.25,515.52,883.48,519.18z M997.76,517.88
				c3.5-0.3,6.06-1.54,9.12-2.28c-1.3-1.74-1.94-4.14-3.58-5.54C1001.49,512.7,999.35,515.02,997.76,517.88z M949.9,512.34
				c6.17,3.75,17.4,3.8,22.79-0.65c0.07-0.41,0.51-0.67-0.33-0.65C966.34,512.88,956.56,512.16,949.9,512.34z M913.11,520.15
				c-2.44,6.68-8.51,9.72-12.04,15.3c6.7-2.96,11.97-7.35,16.28-12.7c-1.97-1.4-2.83-3.9-5.21-4.88
				C912.01,519.09,913.45,518.73,913.11,520.15z M1006.88,526.01c-1.18-1.67-3.66-3.84-5.53-1.62c2.95,2.36,5.52,5.11,6.84,9.11
				c-4.37,2.58-6.18-5.13-9.11-7.16c-0.38-0.98,1.84-1.88,0.32-1.95c-5.02,0.38-9.23,2.28-13.35,2.6c2.13,6.66,7.27,12.04,13.02,14
				c-1.25-2.24-5.09-7.92-1.3-10.09c5.26,3.32,11.66,7.22,19.53,6.84C1012.66,536.81,1009.54,529.79,1006.88,526.01z M914.09,538.71
				c3.77-2.74,8.57-4.45,10.09-9.44c-1.53-0.97-2.24-2.75-3.91-3.58C919.48,531.08,915.13,534.65,914.09,538.71z M925.16,564.76
				c9.19,15.21,45.43,18.83,53.39,1.63c-5.66-6.94-9.98-15.2-11.39-26.37c-12.39,2.26-27.63-0.4-35.81-5.53
				c-0.2,0.02-0.39,0.05-0.33,0.33C933.64,545.3,930.74,556.76,925.16,564.76z M960.97,584.62c-16.17,1.74-31.4-4.74-38.42-12.04
				c-2.83-2.94-2.33-4.98-6.19-4.23c-10.14,1.95-28.52,1.24-36.14,5.86c-2.74,1.66-7.09,6.89-8.79,10.09
				c-5.69,10.7-1.99,27.84-0.33,40.05c0.87,6.37,2.58,15.45,5.53,17.26c4.18-2.66,8.21-5.47,11.4-9.11
				c0.35-6.91-1.43-13.26-0.65-19.54c7.46-5.52,6.32,4.74,6.84,12.37c0.46,6.73,1.34,13.02,0.98,20.51
				c1.55,0.63,4.27,0.07,5.86,0.65c3.62-3.02,8.29-4.62,13.67-6.84c2.21-0.91,13.69-6.64,14-3.25c0.15,1.73-3.59,2.85-4.56,3.25
				c-6.26,2.59-11.9,4.53-16.93,7.16c8.38,0.58,12.7-2.37,18.23-4.56c1.87-0.75,4.02-1.53,5.86-2.28c1.48-0.61,4.01-2.73,5.53-0.65
				c-1.46,5.38-9.23,4.44-13.02,7.49c6.39,0.75,10.36-0.93,14-2.93c1.04-2.82,2.92-5.23,4.88-6.84
				c13.68-11.19,34.25-19.86,48.51-30.28c1.79-1.31,4.48-4.3,7.16-2.93c0.12,3.25-3.49,4.69-5.53,6.19
				c-16.17,11.81-36.61,19.53-50.79,32.88c1.23,1.53-1.17,3.08,0,3.26c4.29,0.78,5.35-3.29,8.46-2.61c-0.23-1.24-0.22-1.57,0.33-2.6
				c13.85-7.84,28.98-16.19,42.65-24.42c0.53-0.32,5.5-3.76,5.86-0.65c0.3,2.58-8.94,6.71-11.39,8.14
				c-11.55,6.72-22.94,13.61-34.51,19.21c-1,0.48-2.52,0.78-2.28,1.3c0.36,1.74,2.89,1.01,4.23,0.98c2.96-0.09,5.95-1.08,9.12-0.65
				c0.64-0.56,0.1-2.29,0.98-2.6c13.14-6.29,26.96-11.89,38.74-19.54c0.35-4.57,0.74-10.47,5.21-10.09
				c4.31,0.36,2.13,4.71,1.63,7.16c-0.66,3.2-0.27,7.8-0.65,11.72c-0.44,4.56-1.65,8.45-0.98,10.42c1.83,0.2,1.53-1.73,1.95-2.93
				c5.79-5.93,11.66-11.78,16.28-18.88c0.56-0.63,2.67,0.28,2.61-0.98c-0.94-18.34,2.82-40.89-10.75-46.24
				c-3.07-1.21-7.59-1.29-11.72-2.28c-7.16-1.71-13.88-2.29-22.47-1.95C980.44,576.17,971.37,583.5,960.97,584.62z M1016.97,638.01
				c-0.72,0.79-1.87,1.99-1.63,2.93c2.34,0.5,2.03-1.66,2.93-2.6c4-2.95,7.57-6.32,10.09-10.75c0.87-0.66,1.24-0.31,1.95-0.65
				c-0.34-1.18,0.74-3.78-0.65-3.91C1026.59,628.96,1021.11,633.49,1016.97,638.01z M969.11,644.53c2.82,0,5.64,0,8.46,0
				c7.56-5.68,17.59-8.89,26.05-13.67c0.54-0.46,0.54-3.13,0-3.58C992.8,633.71,980.68,638.85,969.11,644.53z M1021.85,640.3
				c4.08-1.56,6.1-5.19,8.46-8.47C1027.4,634.55,1024.8,637.6,1021.85,640.3z M985.72,643.87c9.26,1.96,10.75-6.85,17.25-5.53
				c-0.59-1.34,1.18-3.09-0.33-3.26C997.57,638.58,990.44,640.03,985.72,643.87z M879.9,644.2c4.33,0.83,5.06-4.39,8.79-5.21
				c-0.19-0.57,0.39-1.91-0.33-1.95C885.95,639.83,882.28,641.37,879.9,644.2z M999.71,642.9c1.03-0.45,1.09-0.07,2.28,0
				c0.17-0.92,0.79-1.38,0.98-2.28C1001.43,640.92,1000.72,642.06,999.71,642.9z M886.41,645.18c1.46,0.47,2.19-1.48,1.63-1.95
				C887.7,644.08,886.75,644.32,886.41,645.18z"/>
		</g>
		<g>
			<path class="st2" d="M884.61,368.35c1.01,4.78-3.24,10.26-3.91,16.28c-0.54,4.79,1.19,10.52-0.98,14.65
				c-3.9-0.67-2.93-8.81-2.6-13.35c0.46-6.4,3.72-13.06,5.21-17.58c0.74,0.45,1.22-0.84,1.3,0
				C883.96,368.35,884.28,368.35,884.61,368.35z"/>
			<path class="st2" d="M872.89,372.26c0.77,4.29-1.32,11.89-0.65,17.9c0.27,2.4,2.19,5-0.33,6.19c-5.35-2.4-3.18-18.93-1.3-24.09
				C871.91,372.08,871.59,372.08,872.89,372.26z"/>
			<path class="st2" d="M1060.42,401.24c3.72-0.74,6.93,3.64,9.12,7.49c0.59,1.05,6.54,11.51,2.6,11.72
				c-1.62,0.09-2.56-3.79-2.93-4.56c-0.76-1.59-1.61-3.44-2.61-5.21C1064.67,407.21,1060.45,404.88,1060.42,401.24z"/>
			<path class="st2" d="M1063.68,427.61c-3.53-1.23-2.99-5.75-4.23-8.47c-2.4-5.24-5.4-9.27-9.77-12.7c0.25-0.29,0.35-0.73,0.32-1.3
				c0.26-0.17,0.53-0.34,0.98-0.33c4.86,0.46,9.22,7.38,11.72,12.7C1064.28,420.88,1065.75,425.61,1063.68,427.61z"/>
			<path class="st2" d="M1002.47,443.24c-3.26,1.82-5.75-3.17-9.44-3.91c-3.14-0.63-7.32,1.32-9.44-1.3
				c-0.14-1.65,1.05-2.01,1.95-2.28C992.4,433.67,1002.28,438.79,1002.47,443.24z"/>
			<path class="st2" d="M966.33,449.75c-1.48,7.91-0.62,19.09,1.95,26.05c0.82,2.21,3.72,5.87,3.58,7.16
				c-0.33,3.1-11.48,6.31-14.32,3.58c0.55-5.19,6.84-1.08,9.77-4.23c-1.61-3.23-4.62-10.55-5.21-18.23
				C961.71,458.99,961.21,446.65,966.33,449.75z"/>
			<path class="st2" d="M985.54,453.33c6.97-1.46,5.96,12.31,1.63,12.7C981.08,466.58,979.25,454.65,985.54,453.33z"/>
			<path class="st2" d="M930.52,465.7c-0.82-5.09-0.21-13.38,6.18-10.42c3.55,1.64,3.98,12.48,0,13.67
				C933.13,470.03,932.25,467.2,930.52,465.7z"/>
			<path class="st2" d="M944.84,617.42c-1.38-2.91,2.44-4.15,4.56-5.21c6.41-3.22,14.27-7.24,20.18-10.09
				c1.08-0.52,2.94,0.07,2.61,1.96c-0.25,1.46-5.74,3.47-6.51,3.91c-2.63,1.48-5.01,2.7-6.84,3.58
				C953.6,614.08,949.97,616.97,944.84,617.42z"/>
			<path class="st2" d="M980.33,604.73c0.94-0.08,1.94-0.34,2.28,0.97c0.61,2.43-6.07,5.35-8.14,6.51
				c-6.49,3.65-11.71,6.85-18.24,10.75c-2.03,1.21-8.44,5.68-9.11,2.6c-0.43-1.97,6.29-5.18,7.49-5.86
				c8.22-4.7,18.08-10.32,25.07-14.65C979.92,604.9,979.91,604.76,980.33,604.73z"/>
			<path class="st2" d="M904.8,638.26c-1.94-3.17,2.47-6.04,4.56-7.16c2.51-1.35,11.37-5.43,14.32-5.21
				c1.71,0.13,2.22,0.83,2.28,1.63c0.14,1.94-5.15,2.96-6.84,3.58c-2.82,1.03-5.34,1.85-7.49,2.93
				C908.91,635.4,908.23,637.71,904.8,638.26z"/>
			<path class="st2" d="M900.89,533.42c-0.32-3.38,3.5-5.05,5.53-7.16c2.17-2.26,4.09-4.81,6.19-6.84
				c-7.03,6.12-16.15,13.55-28.65,12.04c0.07-4.45,4.82-9.08,1.63-12.7c-5.63,0.88-11.4,1.62-17.58,1.95
				c3.15-5.21,7.06-9.65,10.09-14.98c-4.51-4.51-13.29-4.54-17.58-8.47c3.42-1.57,7.88-2.11,12.05-2.93
				c-3.69-0.65-8.88,0.2-9.12-3.91c1.89-1.82,6.59-1.97,10.74-3.91c2.75-1.28,8.28-3.91,5.21-6.51c-5.21,2.72-15.68,6.59-22.47,2.6
				c0.18-3.75,4.4-4.32,6.84-5.86c2.63-1.66,5.39-3.17,6.51-6.19c-6.34-2.58-16.11-2.38-22.46-6.18c2.07-0.76,5.53-0.11,8.14-0.33
				c1.05,0.08-0.13-2.04,0.98-2.61c3.75-0.8,8.97-0.15,11.07-2.6c-7.4,2.09-15.1,1.71-21.49-0.98c0.35-1.06,1.13-1.69,1.3-2.93
				c9.73-1.56,16.76-5.81,23.77-10.09c-0.03-12.76,8.11-20.71,21.81-17.58c-1.49-11.01-0.97-20.26,2.61-28.98
				c6.98-17.03,17.94-28.29,34.84-35.16c12.68-5.15,23.93-8.78,41.02-7.49c14.26,1.08,28.64,4.68,38.09,11.39
				c2.97,2.11,7.11,4.63,9.11,7.16c2.46,3.12,3.63,7.51,4.88,11.4c1.31,4.04,3.06,8.38,3.58,12.7c0.53,4.39-0.97,9.58,0,14.98
				c0.53,2.97,2.81,4.16,3.58,7.49c10.31-3.36,16.08,6.37,17.58,15.63c0.6,3.71-0.03,8.66,0.33,13.67
				c0.51,7.12,1.34,14.86,0.65,20.19c-0.75,5.84-5.27,7.93-7.81,10.09c1.05,5.5,3.72,10.3,6.84,14.33
				c2.87,3.7,6.48,8.07,10.09,10.74c1.84,1.36,4.82,1.42,5.21,4.24c-5.5,0.36-12.71-0.99-14.33,3.26c-0.23,2.84,0.32,4.89,0.98,6.84
				c-2.12,2.82-7.56,1.08-11.72,1.3c0.08,1.53,1.49,2.75,0.98,4.56c-1.76,6.18-16.37-0.25-19.53-1.95
				c-0.04,2.45,2.81,3.46,5.21,5.21c1.48,1.08,5.64,3.57,5.21,5.53c-0.68,3.1-10.69,1.55-14,0.65c-3.56-0.96-5.84-2.75-8.79-3.58
				c0.48,3.21,3.82,3.56,3.25,7.81c-3.87,1.98-8.93-0.89-12.04-3.25c-3.71-2.81-6.55-7.13-8.79-11.39
				c-1.73,3.92-8.17,3.12-10.09,6.84c1.3,10.42,4.62,18.82,10.42,24.74c9.55-0.34,17.13,0.38,25.07,2.28
				c9.72,2.33,16.07,2.53,21.49,8.79c4.82,5.58,5.15,12.51,5.86,22.47c1.01,14.13,1.33,32.68-0.33,43.95
				c3.13,0.51,7.44-0.83,13.35-1.3c5.11-0.41,13.52-0.97,13.67,3.26c0.18,4.85-7.31,3.3-13.67,3.58
				c-18.03,0.79-36.2,3.92-55.35,5.21c-19.88,1.33-42.91,2.44-62.84,3.58c-21.66,1.23-41.09-2.52-59.91-3.58
				c-5.66-0.32-22.73,0.42-23.12-4.88c-0.5-6.92,15.7-0.69,20.19-1.63c-0.56-5.83-2.76-11.94-3.58-18.23
				c-0.84-6.37-2.47-12.62-2.93-18.56c-1.24-16.09,3.95-29.16,13.35-37.12c8.87-7.52,29.8-4.67,43.95-8.46
				c5.12-5.05,7.43-14.39,5.86-25.07c-1.61-0.25-2.71,1.59-4.23,2.6c-3.48,2.33-9.83,7.43-14.65,4.56
				c1.76-5.18,6.29-7.61,8.47-12.37c-4.48,3.55-8.97,7.09-14.98,9.12C904.51,534.14,901.36,535.12,900.89,533.42z M1013.54,378.12
				c-1.83-2.17-5.57-4.33-8.47-6.19c-8.84-5.69-22.04-8.82-34.51-9.77c-3.82-0.29-7.56-0.28-11.4,0c-13.44,0.99-29.3,7.58-38.09,14
				c-6.96,5.08-12.57,11.14-15.95,18.55c0.91,0.43,2.07-1.08,2.93-1.95c3.63-3.65,7.35-4.29,13.35-6.84
				c8.32-3.53,17.78-9.25,29.3-3.91c1.52-0.71,2.86-2.02,4.89-2.6c5.89-1.7,23.53-1.55,29.3-0.33c3.19,0.68,7.2,2.76,10.75,4.23
				c3.83,1.59,7.84,2.78,10.74,4.56c6.83,4.17,10.88,10.49,14.65,15.95C1019.9,394.68,1018.23,383.71,1013.54,378.12z
				 M923.68,440.96c6.1-4.26,13.08-7.85,17.58-13.02c3.32-3.82,5.64-8.88,8.14-13.67c1.42-2.73,2.94-5.4,3.26-7.82
				c1.69-12.79-2.53-21.58-15.63-19.86c-3.67,0.48-6.92,2.76-10.74,4.56c-8.04,3.77-13.62,4.38-17.91,10.42
				c-3.73,5.26-5.16,13.43-7.16,18.88c7.84-5.5,15.68-11.12,22.14-17.58c2.02-2.01,4.19-5.37,7.49-5.21
				c0.74,4.02-3.67,6.28-5.86,8.46c-7.59,7.59-16.98,13.25-25.07,19.86c0.49,2.98,0.64,6.3,1.63,8.79
				c5.28-3.3,11.18-6.98,16.6-11.39c5.08-4.13,11.28-8.57,14.65-14c1.63-2.63,1.25-6.51,5.21-7.49c2.24,3.06-1.04,6.39-2.28,8.46
				c-6.01,10.04-16.64,17-26.37,23.77c-3.38,2.35-8.43,3.55-7.16,8.46c7.03-3.28,13.68-6.89,20.51-11.39
				c5.48-3.62,13.17-10.54,16.6-15.63c1.83-2.72,4.72-8.68,5.21-12.7c0.28-2.28-0.69-6.35,1.3-6.84c3.04-0.73,2.51,4.42,2.28,6.51
				c-0.53,4.69-3.06,10.26-5.53,14.33c-3.48,5.71-12.05,13.2-17.58,16.93c-7.53,5.08-15.41,8.98-22.47,13.02
				c0.72,1.34-0.56,3.06,0.65,3.91C909.97,448.59,917.43,445.32,923.68,440.96z M989.45,389.52c-3.9-0.48-8.12-1.66-11.72-1.96
				c-5.46-0.45-12.19,0.18-16.6,0.65c-1.3,0.14-4.2-0.9-4.23,0.98c24.92,3.21,45.84,16.01,61.53,30.61
				c0.25,1.26,0.91,2.12,1.63,2.93c-0.2-2.81,0.44-4.76,0.65-7.16c-5.53-5.65-11.18-12.26-19.21-15.3
				c-2.27-0.86-6.72-1.28-6.51-5.21c1.47-1.23,3.83,0.24,5.53,0.98c3.95,1.7,7.77,3.63,10.42,4.88
				C1006.29,394.4,999.38,390.73,989.45,389.52z M967.63,404.49c6.46,5.29,14.13,6.52,22.47,10.42c9.75,4.56,18.73,11.12,26.7,16.93
				c0.57,0.42,2.94,2.36,2.28,1.3c0.61-2.02-1.91-0.92-2.28-1.96c-2.21-3.3-4.43-6.61-7.49-9.11c-4.96-4.05-13.83-4.57-20.51-8.14
				c-1.17-0.63-1.83-1.72-2.93-2.28c-1.48-0.75-3.37-0.91-4.88-1.63c-1.52-0.72-2.77-1.84-4.23-2.6c-2.74-1.44-7.09-2-8.14-5.53
				c2.29-2.21,5.2,0.3,7.16,1.3c5.13,2.61,9.1,4.76,14.32,7.49c7.54,3.93,16.6,4.64,21.82,9.12c0.85,0.73,1.76,2.01,2.6,2.93
				c0.7,0.77,1.38,2.43,2.6,1.95c-6.11-9.07-15.92-14.61-25.39-20.19c-9.62-5.67-21.1-9.65-33.54-12.04
				c-0.1,2.06,0.84,3.07,0.65,5.21C962.56,399.32,964.97,402.32,967.63,404.49z M981.63,415.56c-8.57-3.02-16.42-6.9-21.82-13.35
				c-0.07-0.39-0.36-0.2-0.65,0c0.59,3.07,2.21,6.76,3.91,8.79c4.24,5.1,10.83,6,18.23,8.46c7.79,2.59,17,5.36,23.44,7.81
				C997.75,423.01,990.17,418.57,981.63,415.56z M939.31,438.03c-1.37,1.07-3.78,2.25-3.25,3.26c3.71,0.41,9.65-1.4,9.77,2.6
				c-3.78,2.53-11.69-0.05-16.28,1.3c-4.02,1.18-7.86,5.03-12.04,7.16c-4.52,2.3-9.06,3.87-14.33,4.88c0.73,5.44,1.87,14.48,0,21.16
				c3.19,11.99,11.61,18.76,19.21,27.02c4.72,5.13,10.87,12.62,16.28,16.28c3.87,2.62,8.85,3.42,13.02,5.53
				c-5.36-8.61,4.78-12.62,10.74-14.98c-8.55-1.43-11.97-8-20.19-9.77c-0.65-1.96-3.39-1.83-2.93-4.88
				c2.41-1.68,3.96,0.78,5.86,1.63c9.12,4.04,29.46,6.63,38.42,1.3c1.56-0.93,5.87-7.03,7.81-6.51c3.18,0.85-1.16,5.18-0.33,6.51
				c-3.66,4.27-8.12,7.73-13.35,10.42c5.76-0.54,7.89,4.34,12.05,4.56c3.97,0.21,7.93-5.13,10.42-7.81
				c3.24-3.51,5.97-7.03,8.46-9.77c4.35-6.6,5.91-14.29,7.81-23.77c0.91-4.52,3.07-9.17,3.58-13.35c0.65-5.29-0.48-10.2,0-15.63
				c-2.86-5.78-7.81-9.93-14-13.02c-4.92-2.46-10.3-4.33-15.63-5.86c-10.73-3.08-24.76-6.61-30.61-14c-0.38-0.48-0.4-1.33-0.98-1.63
				c-0.02-0.2-0.05-0.38-0.33-0.33C954.04,422.14,948.04,431.25,939.31,438.03z M1042.84,470.91c1.74-3.98,0.16-12.56-0.32-19.53
				c-0.36-5.12,0.3-9.92-0.33-13.67c-0.69-4.21-4.14-13.05-8.46-10.74c-10.89,5.8-7.56,35.94-4.23,47.86
				C1034.5,477.4,1041.5,473.97,1042.84,470.91z M878.42,442.58c-0.66,4.65-0.19,10.99,1.3,18.23c2.22,10.78,3.54,20.98,15.63,18.56
				c3.72-6.32,1.96-16.69,1.3-24.74c-0.66-8.22-0.6-15.95-2.93-20.51C884.88,431.09,879.54,434.76,878.42,442.58z M855.63,456.91
				c6.38-0.03,11.33-1.48,16.28-2.93c-0.95-1.01,0.54-4.45-0.98-4.88C866.63,452.49,860.87,454.44,855.63,456.91z M864.42,480.68
				c5.56,0.13,9.04-1.81,12.7-3.59c-0.35-2.58-1.42-4.44-2.28-6.51C873.08,475.66,867.9,477.32,864.42,480.68z M1016.47,494.68
				c4.5-0.27,3.27,5.2,6.18,6.51c1.51-2.61,2.74-5.5,3.58-8.79c-0.82-2-2.73-2.91-2.93-5.53c0.98-2.91,4.11,1.22,4.23,0
				c0.75-1.2,0.11-3.79,0.33-5.53c-2.65-1.04-3.95-3.43-5.53-5.54C1020.69,482.4,1019.25,489.21,1016.47,494.68z M1034.38,486.21
				c0.46,0.6,1.58-0.51,2.28,0.32c-0.58-1.26-0.42-3.27-1.63-3.91C1034.38,483.4,1034.28,484.7,1034.38,486.21z M882.98,484.59
				c-2.31,2.68-5.81,4.17-9.12,5.86c7.16,0.22,13.11-0.78,16.61-4.23C887.07,486.58,885.81,484.79,882.98,484.59z M899.91,487.84
				c-0.33,0-0.65,0-0.98,0c-1.93,1.02-3.11,2.79-4.88,4.23c-4.08,3.32-10.11,4.17-14.65,7.16c10.01,0.9,1.78,11.95,0.65,16.93
				c1.72-0.56,3.85-0.71,5.54-1.3c0.51-0.22-0.85-1.29-0.33-2.6c7.79-3.93,15.37-8.07,19.86-15.3c-0.57-1.49-1.49-2.63-2.6-3.58
				c-1.82,2.74-4.42,4.35-7.81,6.51c-1.28,0.82-8.68,6.23-9.44,2.61c-0.41-1.94,4.81-4.05,6.19-4.88c4.57-2.78,6.9-4.1,9.44-7.16
				C900.61,489.53,899.84,489.11,899.91,487.84z M1043.82,505.1c1.85-0.27,4.68,1.43,6.51,0.98c-4.62-3.74-7.85-8.87-11.4-13.67
				c-0.3,0.57-1.02,0.72-1.95,0.65c-1.16-1.23-1.8-2.98-2.93-4.23c-0.23,2.37-0.91,4.3-1.63,6.18c1.91,1.13,2.19,3.33,3.58,4.88
				c1.29,1.44,3.73,2.15,3.91,4.56c-0.66,0.42-0.59,1.58-1.95,1.3c-3.05-1.4-4.54-4.36-6.84-6.51c-0.65,2.17-2.16,3.49-2.93,5.53
				c1.73,1.46,7.46,6.8,3.26,7.49c-2.28,0.37-3.15-2.81-4.56-4.23c-2.92,2.4-5.38,5.26-8.46,7.49c3.75,1.57,7.77,4.6,12.04,4.56
				c-4.65-8.37,10.1-4.91,13.35-5.86C1040.16,512.22,1038.71,505.85,1043.82,505.1z M1012.89,501.51c2.31,4.02,4.66,9.28,7.49,3.26
				c-1.78-2.67-3.34-5.56-4.88-8.46C1014.68,498.09,1013.68,499.71,1012.89,501.51z M890.47,513.56c6.26,0.22,3.72,7.1,1.95,10.42
				c6.68-0.92,12.99-6.94,17.58-11.72c2.14-2.24,7.23-5.85,2.6-6.84c-1.1,2.66-7.44,12.26-11.07,11.72
				c-4.19-0.62,2.37-5.94,3.26-6.84c2.11-2.15,3.59-3.19,4.56-5.53c0.58-0.5,1.27-0.9,1.95-1.3c-1.28-1.21-2.09-2.9-3.58-3.91
				C903.42,505.68,897.24,509.91,890.47,513.56z M1004.75,512.26c3.5-0.3,6.06-1.54,9.12-2.28c-1.3-1.74-1.94-4.14-3.58-5.54
				C1008.47,507.08,1006.34,509.4,1004.75,512.26z M956.89,506.72c6.17,3.75,17.4,3.8,22.79-0.65c0.07-0.41,0.51-0.67-0.33-0.65
				C973.33,507.26,963.55,506.55,956.89,506.72z M920.1,514.54c-2.44,6.68-8.51,9.73-12.04,15.3c6.7-2.96,11.97-7.35,16.28-12.7
				c-1.97-1.4-2.83-3.9-5.21-4.88C919,513.47,920.44,513.11,920.1,514.54z M1013.87,520.4c-1.18-1.67-3.66-3.84-5.53-1.62
				c2.95,2.36,5.52,5.11,6.84,9.11c-4.37,2.58-6.18-5.13-9.11-7.16c-0.38-0.98,1.84-1.88,0.32-1.95c-5.02,0.38-9.23,2.28-13.35,2.6
				c2.13,6.66,7.27,12.04,13.02,14c-1.25-2.24-5.09-7.92-1.3-10.09c5.26,3.32,11.66,7.22,19.53,6.84
				C1019.65,531.2,1016.52,524.17,1013.87,520.4z M921.08,533.1c3.77-2.74,8.57-4.45,10.09-9.44c-1.53-0.97-2.24-2.75-3.91-3.58
				C926.47,525.47,922.11,529.03,921.08,533.1z M932.15,559.14c9.19,15.2,45.43,18.83,53.39,1.63c-5.66-6.94-9.98-15.2-11.39-26.37
				c-12.39,2.26-27.63-0.4-35.81-5.53c-0.2,0.02-0.39,0.05-0.33,0.33C940.63,539.68,937.73,551.14,932.15,559.14z M967.96,579
				c-16.17,1.74-31.4-4.74-38.42-12.04c-2.83-2.94-2.33-4.98-6.19-4.23c-10.14,1.95-28.52,1.24-36.14,5.86
				c-2.74,1.66-7.09,6.89-8.79,10.09c-5.69,10.7-1.99,27.84-0.33,40.05c0.87,6.37,2.58,15.45,5.53,17.26
				c4.18-2.66,8.21-5.47,11.4-9.11c0.35-6.91-1.43-13.26-0.65-19.54c7.46-5.52,6.32,4.74,6.84,12.37
				c0.46,6.73,1.34,13.02,0.98,20.51c1.55,0.63,4.27,0.07,5.86,0.65c3.62-3.02,8.29-4.62,13.67-6.84c2.21-0.91,13.69-6.64,14-3.25
				c0.15,1.73-3.59,2.85-4.56,3.25c-6.26,2.59-11.9,4.53-16.93,7.16c8.38,0.58,12.7-2.37,18.23-4.56c1.87-0.75,4.02-1.53,5.86-2.28
				c1.48-0.61,4.01-2.73,5.53-0.65c-1.46,5.38-9.23,4.44-13.02,7.49c6.39,0.75,10.36-0.93,14-2.93c1.04-2.82,2.92-5.23,4.88-6.84
				c13.68-11.19,34.25-19.86,48.51-30.28c1.79-1.31,4.48-4.3,7.16-2.93c0.12,3.25-3.49,4.69-5.53,6.19
				c-16.17,11.81-36.61,19.53-50.79,32.88c1.23,1.53-1.17,3.08,0,3.26c4.29,0.78,5.35-3.29,8.46-2.61c-0.23-1.24-0.22-1.57,0.33-2.6
				c13.85-7.84,28.98-16.19,42.65-24.42c0.53-0.32,5.5-3.76,5.86-0.65c0.3,2.58-8.94,6.71-11.39,8.14
				c-11.55,6.72-22.94,13.61-34.51,19.21c-1,0.48-2.52,0.78-2.28,1.3c0.36,1.74,2.89,1.01,4.23,0.98c2.96-0.09,5.95-1.08,9.12-0.65
				c0.64-0.56,0.1-2.29,0.98-2.6c13.14-6.29,26.96-11.89,38.74-19.54c0.35-4.57,0.74-10.47,5.21-10.09
				c4.31,0.36,2.13,4.71,1.63,7.16c-0.66,3.2-0.27,7.8-0.65,11.72c-0.44,4.56-1.65,8.45-0.98,10.42c1.83,0.2,1.53-1.73,1.95-2.93
				c5.79-5.93,11.66-11.78,16.28-18.88c0.56-0.63,2.67,0.28,2.61-0.98c-0.94-18.34,2.82-40.89-10.75-46.24
				c-3.07-1.21-7.59-1.29-11.72-2.28c-7.16-1.71-13.88-2.29-22.47-1.95C987.43,570.55,978.36,577.88,967.96,579z M1023.96,632.4
				c-0.72,0.79-1.87,1.99-1.63,2.93c2.34,0.5,2.03-1.66,2.93-2.6c4-2.95,7.57-6.32,10.09-10.75c0.87-0.66,1.24-0.31,1.95-0.65
				c-0.34-1.18,0.74-3.78-0.65-3.91C1033.57,623.34,1028.1,627.87,1023.96,632.4z M976.1,638.91c2.82,0,5.64,0,8.46,0
				c7.56-5.68,17.59-8.89,26.05-13.67c0.54-0.46,0.54-3.13,0-3.58C999.79,628.09,987.67,633.23,976.1,638.91z M1028.84,634.68
				c4.08-1.56,6.1-5.19,8.46-8.47C1034.39,628.93,1031.79,631.98,1028.84,634.68z M992.71,638.26c9.26,1.96,10.75-6.85,17.25-5.53
				c-0.59-1.34,1.18-3.09-0.33-3.26C1004.56,632.96,997.43,634.41,992.71,638.26z M886.89,638.59c4.33,0.83,5.06-4.39,8.79-5.21
				c-0.19-0.57,0.39-1.91-0.33-1.95C892.94,634.21,889.27,635.75,886.89,638.59z M1006.7,637.28c1.03-0.45,1.09-0.07,2.28,0
				c0.17-0.92,0.79-1.38,0.98-2.28C1008.42,635.3,1007.71,636.44,1006.7,637.28z M893.4,639.56c1.46,0.47,2.19-1.48,1.63-1.95
				C894.69,638.46,893.74,638.7,893.4,639.56z"/>
		</g>
		<g>
			<g>
				<path class="st0" d="M871.62,895.83h-29.97l-5.3,15.04h-15.78l27.54-73.93h17.06l27.43,73.93h-15.78L871.62,895.83z
					 M867.6,884.49l-11.02-31.56l-11.02,31.56H867.6z"/>
				<path class="st0" d="M963.1,892.97c-3.11,5.65-7.61,10.05-13.51,13.19c-5.9,3.15-12.9,4.71-21.02,4.71h-26.59V836.1h26.59
					c8.12,0,15.13,1.53,21.02,4.6c5.9,3.08,10.39,7.41,13.51,13.03c3.1,5.61,4.65,12.16,4.65,19.64
					C967.76,880.79,966.2,887.32,963.1,892.97z M945.99,891.16c4.41-4.23,6.62-10.16,6.62-17.79c0-7.7-2.21-13.66-6.62-17.9
					c-4.41-4.23-10.64-6.35-18.7-6.35h-10.38v48.41h10.38C935.35,897.53,941.58,895.4,945.99,891.16z"/>
				<path class="st0" d="M1058.24,836.94v73.93h-14.83v-51.58l-18.95,51.58h-12.92l-18.96-51.37v51.37h-14.94v-73.93h18.12
					l22.45,55.6l22.03-55.6H1058.24z"/>
				<path class="st0" d="M1086.73,836.1v74.77h-14.94V836.1H1086.73z"/>
				<path class="st0" d="M1163.62,910.87h-14.94l-33.47-50.84v50.84h-14.94V836.1h14.94l33.47,51.26V836.1h14.94V910.87z"/>
			</g>
			<g>
				<path id="XMLID_00000181805464048867741060000012610495848017163670_" class="st0" d="M798.3,898.27
					c-2.2,1.09-6.35,3.06-11.16,3.41c-0.86,0.06-1.48,0.05-1.69,0.05c-4.34-0.08-7.68-1.73-8.77-2.39c-4.08-2.45-6.93-9-6.27-16.6
					l0.07-1.99c1.78-0.04,4.72-0.16,7.61-0.54c3.19-0.42,6.15-1.01,8.81-1.76c3.2-0.9,8.56-2.42,14.09-6.43
					c6.23-4.51,10.19-9.63,11.79-15.21c0.59-2.05,0.89-4.22,0.89-6.44c0-4.29-1.12-7.58-3.56-10.39c-2.63-2.63-5.8-3.91-9.67-3.91
					c-5.36,0-10.17,1.19-14.7,3.63c-5.42,2.8-10.57,6.98-15.32,12.43c-9.45,10.91-14.04,22.16-14.04,34.42
					c0,6.8,1.91,12.28,5.85,16.78c0.97,1.11,2.54,2.61,4.72,3.96c3.97,2.45,7.79,2.98,10.44,3.31c1.1,0.14,2.41,0.25,3.88,0.26
					c1.29,0.01,4.84-0.06,10.17-1.58c4.71-1.35,8.04-3.05,10.92-4.54c2.79-1.44,6.46-3.55,10.53-6.54l0.23-0.17l0.03-8.56
					l-0.92,0.69C808.82,892.44,803.99,895.44,798.3,898.27z M795.12,845.03c0.36,0,0.72,0.02,1.07,0.06
					c2.02,0.21,3.41,1.04,4.24,2.52c0.87,1.54,1.15,3.83,0.84,6.8c-0.37,3.5-1.54,6.02-2.2,7.21c-2.13,3.81-5.07,5.78-6.48,6.73
					c-1,0.67-2.05,1.22-2.07,1.23c-0.87,0.45-1.78,0.83-2.36,1.05c0,0-1.82,0.61-3.79,1.18c-2.63,0.76-6.7,1.16-13.13,1.28
					c1.72-7.61,5.03-14.19,10.1-20.08c2.35-2.68,4.75-4.74,6.97-5.95C790.61,845.71,792.91,845.03,795.12,845.03z"/>
			</g>
		</g>
	</g>
</g>
</svg>
