<?xml version="1.0" encoding="utf-8"?>
<!-- Generator: Adobe Illustrator 26.0.1, SVG Export Plug-In . SVG Version: 6.00 Build 0)  -->
<svg version="1.1" id="Layer_1" xmlns="http://www.w3.org/2000/svg" xmlns:xlink="http://www.w3.org/1999/xlink" x="0px" y="0px"
	 viewBox="0 0 1920 1080" style="enable-background:new 0 0 1920 1080;" xml:space="preserve">
<style type="text/css">
	.st0{fill:#C3272E;}
</style>
<g>
	<g>
		<path d="M322.49,603.36h-82.44l-13.64,39.44h-43.59l74.44-207.29h48.33l74.44,207.29h-43.89L322.49,603.36z M311.22,570.15
			l-29.95-86.59l-29.95,86.59H311.22z"/>
		<path d="M524.73,642.81l-75.32-92.23v92.23h-41.52V435.82h41.52v92.82l75.32-92.82h50.12l-85.41,102.6l87.78,104.39H524.73z"/>
		<path d="M745.36,435.82v33.51h-55.16v173.48h-41.52V469.32h-55.16v-33.51H745.36z"/>
		<path d="M817.12,435.82v206.99h-41.52V435.82H817.12z"/>
		<path d="M1043.99,435.82l-75.92,206.99h-50.41l-75.92-206.99h44.48l56.94,164.58l56.64-164.58H1043.99z"/>
		<path d="M1245.93,642.81h-41.52l-94.01-142.05v142.05h-41.52V435.52h41.52l94.01,142.34V435.52h41.52V642.81z"/>
		<path d="M1329.56,631.24c-16.21-9.09-29.06-21.69-38.55-37.81c-9.49-16.11-14.23-34.35-14.23-54.71c0-20.17,4.75-38.3,14.23-54.42
			c9.49-16.11,22.34-28.71,38.55-37.81c16.21-9.09,34-13.64,53.38-13.64c19.57,0,37.41,4.55,53.53,13.64
			c16.11,9.1,28.86,21.7,38.26,37.81c9.39,16.11,14.09,34.25,14.09,54.42c0,20.36-4.7,38.6-14.09,54.71
			c-9.39,16.11-22.19,28.72-38.4,37.81c-16.21,9.1-34,13.64-53.38,13.64C1363.56,644.88,1345.77,640.34,1329.56,631.24z
			 M1415.85,599.36c9.49-5.64,16.9-13.69,22.24-24.17c5.34-10.48,8-22.64,8-36.48c0-13.84-2.67-25.95-8-36.33
			c-5.34-10.38-12.75-18.34-22.24-23.87c-9.49-5.53-20.46-8.3-32.92-8.3c-12.45,0-23.48,2.77-33.07,8.3
			c-9.59,5.54-17.05,13.49-22.39,23.87c-5.34,10.38-8.01,22.49-8.01,36.33c0,13.84,2.67,26,8.01,36.48
			c5.34,10.48,12.8,18.53,22.39,24.17c9.59,5.63,20.61,8.45,33.07,8.45C1395.39,607.81,1406.36,605,1415.85,599.36z"/>
		<path d="M1552.11,637.47c-11.56-4.94-20.71-12.06-27.43-21.35c-6.73-9.29-10.18-20.26-10.38-32.92h44.48
			c0.6,8.5,3.61,15.23,9.05,20.17c5.43,4.95,12.9,7.41,22.39,7.41c9.69,0,17.3-2.32,22.84-6.97c5.53-4.64,8.3-10.72,8.3-18.24
			c0-6.13-1.88-11.17-5.64-15.12c-3.76-3.95-8.45-7.07-14.09-9.34c-5.64-2.27-13.39-4.79-23.28-7.56
			c-13.45-3.95-24.37-7.86-32.77-11.71c-8.4-3.86-15.62-9.68-21.65-17.5c-6.03-7.81-9.04-18.24-9.04-31.28
			c0-12.26,3.06-22.93,9.19-32.03c6.13-9.09,14.73-16.06,25.8-20.91c11.07-4.84,23.73-7.27,37.96-7.27
			c21.35,0,38.7,5.19,52.04,15.57c13.35,10.38,20.71,24.86,22.09,43.44h-45.67c-0.4-7.12-3.41-13-9.05-17.65
			c-5.64-4.64-13.1-6.97-22.39-6.97c-8.11,0-14.58,2.08-19.42,6.23c-4.85,4.15-7.26,10.18-7.26,18.09c0,5.54,1.83,10.13,5.49,13.79
			c3.66,3.66,8.2,6.63,13.64,8.9c5.44,2.27,13.1,4.89,22.98,7.86c13.44,3.96,24.41,7.91,32.92,11.86
			c8.5,3.96,15.82,9.89,21.95,17.79c6.13,7.91,9.19,18.29,9.19,31.14c0,11.07-2.87,21.35-8.6,30.84
			c-5.74,9.49-14.13,17.05-25.2,22.69c-11.08,5.63-24.22,8.45-39.44,8.45C1576.68,644.88,1563.68,642.41,1552.11,637.47z"/>
		<path d="M1841.1,435.82v33.51h-55.16v173.48h-41.52V469.32h-55.16v-33.51H1841.1z"/>
		<path d="M1912.86,435.82v206.99h-41.52V435.82H1912.86z"/>
	</g>
	<g>
		<g>
			<g>
				<path id="XMLID_00000062883784378554223820000018117451440127079559_" class="st0" d="M128.06,611.49
					c-6.34,3.15-18.31,8.83-32.18,9.84c-2.47,0.18-4.27,0.16-4.86,0.15c-12.52-0.22-22.14-4.99-25.31-6.9
					c-11.77-7.08-19.99-25.97-18.1-47.87l0.21-5.73c5.12-0.12,13.62-0.47,21.95-1.55c9.19-1.2,17.73-2.9,25.4-5.06
					c9.23-2.61,24.69-6.97,40.65-18.55c17.96-13.01,29.4-27.77,34.01-43.87c1.7-5.92,2.56-12.18,2.56-18.58
					c0-12.37-3.23-21.86-10.26-29.96c-7.59-7.59-16.72-11.28-27.9-11.28c-15.46,0-29.34,3.43-42.4,10.47
					c-15.64,8.08-30.5,20.14-44.19,35.85c-27.26,31.46-40.51,63.93-40.51,99.28c0,19.6,5.52,35.43,16.86,48.39
					c2.79,3.19,7.31,7.54,13.61,11.43c11.44,7.07,22.47,8.59,30.12,9.56c3.16,0.4,6.94,0.72,11.2,0.74
					c3.72,0.02,13.95-0.16,29.33-4.57c13.6-3.89,23.2-8.8,31.5-13.09c8.04-4.16,18.63-10.25,30.37-18.88l0.65-0.5l0.09-24.7l-2.66,2
					C158.41,594.68,144.47,603.34,128.06,611.49z M118.88,457.93c1.04,0,2.07,0.05,3.1,0.16c5.82,0.61,9.82,2.99,12.24,7.28
					c2.51,4.44,3.32,11.04,2.42,19.61c-1.06,10.09-4.44,17.35-6.36,20.79c-6.15,10.98-14.63,16.67-18.7,19.41
					c-2.89,1.94-5.92,3.52-5.96,3.54c-2.51,1.31-5.13,2.39-6.81,3.04c-0.01,0-5.26,1.77-10.94,3.42c-7.59,2.2-19.33,3.35-37.88,3.68
					c4.97-21.95,14.51-40.92,29.14-57.93c6.77-7.73,13.71-13.66,20.09-17.16C105.88,459.9,112.49,457.93,118.88,457.93z"/>
			</g>
		</g>
	</g>
</g>
</svg>
