<?xml version="1.0" encoding="utf-8"?>
<!-- Generator: Adobe Illustrator 27.0.0, SVG Export Plug-In . SVG Version: 6.00 Build 0)  -->
<svg version="1.1" xmlns="http://www.w3.org/2000/svg" xmlns:xlink="http://www.w3.org/1999/xlink" x="0px" y="0px"
	 viewBox="0 0 1920 1080" style="enable-background:new 0 0 1920 1080;" xml:space="preserve">
<style type="text/css">
	.st0{fill:#FFFFFF;}
</style>
<g id="Layer_1">
</g>
<g id="dizajn">
	<g>
		<g>
			<g>
				<path class="st0" d="M742.28,876.48h-28.16l-4.66,13.47h-14.89L720,819.16h16.51l25.42,70.79h-14.99L742.28,876.48z
					 M738.43,865.14l-10.23-29.57l-10.23,29.57H738.43z"/>
				<path class="st0" d="M811.35,889.95l-25.72-31.5v31.5h-14.18v-70.69h14.18v31.7l25.72-31.7h17.12L799.3,854.3l29.98,35.65
					H811.35z"/>
				<path class="st0" d="M886.7,819.26v11.44h-18.84v59.25h-14.18v-59.25h-18.84v-11.44H886.7z"/>
				<path class="st0" d="M911.21,819.26v70.69h-14.18v-70.69H911.21z"/>
				<path class="st0" d="M988.68,819.26l-25.93,70.69h-17.22l-25.93-70.69h15.19l19.45,56.21l19.34-56.21H988.68z"/>
				<path class="st0" d="M1057.65,889.95h-14.18l-32.1-48.51v48.51h-14.18v-70.79h14.18l32.1,48.61v-48.61h14.18V889.95z"/>
				<path class="st0" d="M1086.21,886c-5.54-3.1-9.92-7.41-13.17-12.91c-3.24-5.5-4.86-11.73-4.86-18.69
					c0-6.89,1.62-13.08,4.86-18.58c3.24-5.5,7.63-9.81,13.17-12.91c5.54-3.1,11.61-4.66,18.23-4.66c6.68,0,12.78,1.55,18.28,4.66
					c5.5,3.11,9.86,7.41,13.06,12.91c3.21,5.5,4.81,11.7,4.81,18.58c0,6.95-1.6,13.18-4.81,18.69c-3.21,5.5-7.58,9.81-13.12,12.91
					c-5.54,3.11-11.61,4.66-18.23,4.66C1097.82,890.66,1091.74,889.11,1086.21,886z M1115.68,875.12c3.24-1.92,5.77-4.67,7.6-8.25
					c1.82-3.58,2.73-7.73,2.73-12.46c0-4.73-0.91-8.86-2.73-12.41c-1.82-3.54-4.36-6.26-7.6-8.15c-3.24-1.89-6.99-2.84-11.24-2.84
					c-4.25,0-8.02,0.95-11.29,2.84c-3.27,1.89-5.82,4.61-7.65,8.15c-1.82,3.54-2.73,7.68-2.73,12.41c0,4.73,0.91,8.88,2.73,12.46
					c1.82,3.58,4.37,6.33,7.65,8.25c3.27,1.92,7.04,2.89,11.29,2.89C1108.69,878,1112.44,877.04,1115.68,875.12z"/>
				<path class="st0" d="M1162.21,888.13c-3.95-1.69-7.07-4.12-9.37-7.29c-2.3-3.17-3.48-6.92-3.55-11.24h15.19
					c0.2,2.9,1.23,5.2,3.09,6.89c1.86,1.69,4.41,2.53,7.65,2.53c3.31,0,5.91-0.79,7.8-2.38c1.89-1.59,2.84-3.66,2.84-6.23
					c0-2.09-0.64-3.81-1.92-5.16c-1.28-1.35-2.89-2.41-4.81-3.19c-1.92-0.78-4.57-1.64-7.95-2.58c-4.59-1.35-8.32-2.68-11.19-4
					c-2.87-1.32-5.33-3.31-7.39-5.98c-2.06-2.67-3.09-6.23-3.09-10.68c0-4.19,1.05-7.83,3.14-10.94c2.09-3.1,5.03-5.48,8.81-7.14
					c3.78-1.65,8.1-2.48,12.96-2.48c7.29,0,13.22,1.77,17.77,5.32s7.07,8.49,7.55,14.84h-15.6c-0.14-2.43-1.16-4.44-3.09-6.03
					c-1.92-1.59-4.47-2.38-7.65-2.38c-2.77,0-4.98,0.71-6.63,2.13c-1.66,1.42-2.48,3.48-2.48,6.18c0,1.89,0.62,3.46,1.87,4.71
					c1.25,1.25,2.8,2.26,4.66,3.04c1.86,0.78,4.47,1.67,7.85,2.68c4.59,1.35,8.34,2.7,11.24,4.05c2.9,1.35,5.4,3.38,7.49,6.08
					c2.09,2.7,3.14,6.25,3.14,10.63c0,3.78-0.98,7.29-2.94,10.53c-1.96,3.24-4.83,5.82-8.61,7.75c-3.78,1.92-8.27,2.89-13.47,2.89
					C1170.6,890.66,1166.17,889.82,1162.21,888.13z"/>
				<path class="st0" d="M1260.91,819.26v11.44h-18.84v59.25h-14.18v-59.25h-18.84v-11.44H1260.91z"/>
				<path class="st0" d="M1285.42,819.26v70.69h-14.18v-70.69H1285.42z"/>
			</g>
			<g>
				<g>
					<g>
						<path id="XMLID_00000062883784378554223820000018117451440127079559_" class="st0" d="M675.88,879.26
							c-2.17,1.08-6.25,3.02-10.99,3.36c-0.84,0.06-1.46,0.05-1.66,0.05c-4.28-0.07-7.56-1.71-8.64-2.36
							c-4.02-2.42-6.83-8.87-6.18-16.35l0.07-1.96c1.75-0.04,4.65-0.16,7.5-0.53c3.14-0.41,6.06-0.99,8.68-1.73
							c3.15-0.89,8.43-2.38,13.88-6.34c6.13-4.44,10.04-9.48,11.61-14.98c0.58-2.02,0.87-4.16,0.87-6.34c0-4.23-1.1-7.47-3.5-10.23
							c-2.59-2.59-5.71-3.85-9.53-3.85c-5.28,0-10.02,1.17-14.48,3.58c-5.34,2.76-10.42,6.88-15.09,12.24
							c-9.31,10.74-13.83,21.83-13.83,33.91c0,6.69,1.88,12.1,5.76,16.53c0.95,1.09,2.5,2.57,4.65,3.9
							c3.91,2.41,7.67,2.93,10.29,3.27c1.08,0.14,2.37,0.25,3.83,0.25c1.27,0.01,4.76-0.06,10.02-1.56c4.64-1.33,7.92-3,10.76-4.47
							c2.75-1.42,6.36-3.5,10.37-6.45l0.22-0.17l0.03-8.43l-0.91,0.68C686.25,873.52,681.49,876.48,675.88,879.26z M672.74,826.82
							c0.35,0,0.71,0.02,1.06,0.06c1.99,0.21,3.35,1.02,4.18,2.49c0.86,1.52,1.13,3.77,0.83,6.7c-0.36,3.44-1.52,5.93-2.17,7.1
							c-2.1,3.75-5,5.69-6.39,6.63c-0.99,0.66-2.02,1.2-2.04,1.21c-0.86,0.45-1.75,0.82-2.33,1.04c0,0-1.8,0.6-3.73,1.17
							c-2.59,0.75-6.6,1.14-12.94,1.26c1.7-7.5,4.96-13.98,9.95-19.78c2.31-2.64,4.68-4.67,6.86-5.86
							C668.31,827.49,670.56,826.82,672.74,826.82z"/>
					</g>
				</g>
			</g>
		</g>
		<g>
			<g>
				<path d="M706.17,704.06c3.85,0,3.85-5.98,0-5.98C702.32,698.08,702.31,704.06,706.17,704.06L706.17,704.06z"/>
			</g>
			<g>
				<g>
					<path class="st0" d="M967.68,155.35c-28.67-11.51-32.99,33.15-25.96,50.39c10.46,25.65,46.59,21.17,57.71-1.56
						c1.72-3.52-2.71-7.54-5.69-4.39c-10.29,10.92-28.48,24.63-41.42,7.8c-4.94-6.42-5.93-15.37-5.85-23.32
						c0.11-10.88,5.06-27.55,19.55-22.94C969.92,162.58,971.3,156.8,967.68,155.35L967.68,155.35z"/>
				</g>
				<g>
					<path class="st0" d="M932.28,180.63c4.01-1.69,8.12-3.26,11.96-5.31c3.65-1.95,1.22-7.17-2.64-5.81
						c-4.11,1.45-8.04,3.42-11.99,5.25C925.84,176.5,928.45,182.23,932.28,180.63L932.28,180.63z"/>
				</g>
				<g>
					<path class="st0" d="M929.13,196.19c4.2-1.78,8.42-3.77,12.36-6.07c3.49-2.04,1.13-7.36-2.7-5.75
						c-4.21,1.77-8.33,3.95-12.28,6.24C923.11,192.58,925.43,197.76,929.13,196.19L929.13,196.19z"/>
				</g>
				<g>
					<path class="st0" d="M931.35,212.87c5.57-2.65,10.16-6.68,13.56-11.83c2.29-3.47-3.08-6.36-5.46-3.19
						c-3.05,4.05-6.77,7.26-11.2,9.72C924.76,209.52,927.83,214.55,931.35,212.87L931.35,212.87z"/>
				</g>
				<g>
					<path class="st0" d="M937.49,222.83c5.59-2.69,10.22-6.74,13.46-12.04c2.13-3.49-3.16-6.47-5.43-3.17
						c-2.92,4.25-6.55,7.53-11.16,9.87C930.79,219.3,933.93,224.55,937.49,222.83L937.49,222.83z"/>
				</g>
				<g>
					<g>
						<path class="st0" d="M700.29,216.49c-10.7-9.93-16.59,3.31-17.72,12.92c-4.9,41.64-0.41,86.63-0.6,128.59
							c-0.37,84.25-0.81,168.5-1.17,252.75c-0.18,41.39-0.35,82.77-0.53,124.16c-0.04,8.57-4.03,27.52,2.21,35.33
							c5.21,6.53,19.07,5.88,26.58,6.71c41.42,4.61,83.39,1.82,124.94,0.95c40.82-0.85,81.66-1.32,122.49-1.4
							c46.67-0.09,93.33,0.41,139.99,1.29c16.22,0.31,62.3,10.1,64.8-15.94c0.45-4.72-6.89-4.67-7.36,0
							c-1.73,17.19-108.54,7.55-123.06,7.43c-40.83-0.35-81.67-0.33-122.5,0.06c-40.73,0.4-81.44,1.42-122.16,2.31
							c-20.02,0.44-40.08,0.72-60.08-0.59c-17.47-1.14-34.51,3.2-38.58-18.42c-1.79-9.54,0.09-21.29,0.12-31.04
							c0.33-82.77,0.68-165.54,0.96-248.32c0.14-41.39,0.28-82.77,0.44-124.16c0.08-20.69,0.16-41.39,0.24-62.08
							c0.04-10.35,0.08-20.69,0.12-31.04c0.01-1.62,0.41-40.1,6.54-35.2C698.97,223.21,703.24,219.23,700.29,216.49L700.29,216.49z"
							/>
					</g>
					<g>
						<path class="st0" d="M698.67,223.17c-4.51,3.57-8.94,7.26-13.26,11.05c-3.08,2.71,1.37,6.99,4.46,4.46
							c4.44-3.64,8.79-7.41,13.05-11.27C705.84,224.76,701.63,220.83,698.67,223.17L698.67,223.17z"/>
					</g>
					<g>
						<path class="st0" d="M701.65,234.89c-6.67,4.66-13.4,10.47-19.08,16.29c-2.62,2.69,1.59,6.7,4.47,4.6
							c6.56-4.79,13.2-10.71,18.74-16.64C708.18,236.58,704.33,233.01,701.65,234.89L701.65,234.89z"/>
					</g>
					<g>
						<path class="st0" d="M701.04,251.04c-7.69,4.86-14.71,11.52-19.54,19.27c-2.14,3.42,2.44,7.24,5.05,3.94
							c5.45-6.9,11.25-12.92,18.3-18.21C708.14,253.57,704.41,248.91,701.04,251.04L701.04,251.04z"/>
					</g>
					<g>
						<path class="st0" d="M701.41,268.39c-7.15,4.01-13.69,9.82-17.48,17.2c-1.91,3.71,3.19,6.62,5.55,3.24
							c4.19-6,8.78-11.2,15.03-15.14C707.85,271.59,704.88,266.45,701.41,268.39L701.41,268.39z"/>
					</g>
					<g>
						<path class="st0" d="M699.45,285.28c-4.67,5.64-9.71,10.86-15.08,15.83c-3.07,2.84,1.39,7.05,4.51,4.51
							c5.9-4.8,10.99-10.43,15.41-16.61C706.32,286.19,701.69,282.58,699.45,285.28L699.45,285.28z"/>
					</g>
					<g>
						<path class="st0" d="M702.62,299.89c-6.17,5.72-12.37,11.41-18.26,17.44c-2.93,3.01,1.51,7.4,4.59,4.59
							c6.23-5.67,12.12-11.67,18.06-17.64C709.84,301.44,705.54,297.18,702.62,299.89L702.62,299.89z"/>
					</g>
					<g>
						<path class="st0" d="M699.57,317.87c-6.21,6.8-9.81,10.81-15.7,17.9c-2.58,3.11,1.71,7.59,4.51,4.51
							c6.2-6.82,9.68-10.94,15.55-18.04C706.41,319.22,702.28,314.9,699.57,317.87L699.57,317.87z"/>
					</g>
					<g>
						<path class="st0" d="M700.61,335.33c-6.59,6.94-10.49,12.86-16.71,20.13c-2.64,3.08,1.63,7.5,4.51,4.51
							c6.64-6.89,10.3-13.03,16.57-20.26C707.57,336.73,703.38,332.41,700.61,335.33L700.61,335.33z"/>
					</g>
					<g>
						<path class="st0" d="M699.51,356.78c-5.85,6.08-11.39,12.49-16.81,18.96c-2.61,3.11,1.69,7.59,4.52,4.53
							c5.72-6.2,11.37-12.53,16.66-19.1C706.33,358.13,702.34,353.84,699.51,356.78L699.51,356.78z"/>
					</g>
					<g>
						<path class="st0" d="M698.96,380.62c-5.65,5.12-10.98,10.7-16.16,16.3c-2.82,3.05,1.56,7.47,4.57,4.57
							c5.51-5.27,10.99-10.71,16.01-16.45C706.03,382.02,701.96,377.9,698.96,380.62L698.96,380.62z"/>
					</g>
					<g>
						<path class="st0" d="M697.46,401.84c-3.83,3.74-7.74,7.42-11.36,11.37c-2.74,2.99,1.46,7.18,4.44,4.44
							c3.95-3.62,7.63-7.52,11.37-11.35C704.75,403.39,700.36,399,697.46,401.84L697.46,401.84z"/>
					</g>
					<g>
						<path class="st0" d="M699.25,419.86c-4.03,4.1-8,8.25-11.79,12.58c-2.68,3.06,1.62,7.48,4.51,4.51
							c4.01-4.13,7.84-8.41,11.61-12.76C706.14,421.24,702.05,417.02,699.25,419.86L699.25,419.86z"/>
					</g>
					<g>
						<path class="st0" d="M697.16,440.54c-4.36,4.84-8.77,9.64-12.82,14.74c-2.49,3.13,1.64,7.58,4.51,4.51
							c4.46-4.76,8.55-9.83,12.7-14.86C704.06,441.9,699.87,437.53,697.16,440.54L697.16,440.54z"/>
					</g>
					<g>
						<path class="st0" d="M695.67,460.12c-3.96,4.5-8.19,8.89-11.74,13.73c-2.18,2.97,2.5,6.35,5.01,3.86
							c4.05-4.03,7.58-8.7,11.26-13.07C702.82,461.53,698.41,457.01,695.67,460.12L695.67,460.12z"/>
					</g>
					<g>
						<path class="st0" d="M696.11,481.61c-4.31,4.77-8.64,9.54-12.53,14.67c-2.2,2.89,2.55,6.43,4.99,3.85
							c4.24-4.47,8.05-9.36,11.89-14.17C702.86,482.93,698.81,478.62,696.11,481.61L696.11,481.61z"/>
					</g>
					<g>
						<path class="st0" d="M696.81,500.17c-3.94,4.16-9.46,9.47-13.01,13.97c-2.5,3.16,1.49,7.5,4.54,4.54
							c4.12-3.99,9.11-9.79,12.85-14.13c2.57-2.99,0.76-9.78-2.01-6.85L696.81,500.17z"/>
					</g>
					<g>
						<path class="st0" d="M697.91,519.58c-6.12,4.26-11.69,9.55-15.46,16.04c-2.06,3.55,3.1,6.39,5.41,3.16
							c3.79-5.31,7.84-10.05,13.15-13.91C704.14,522.59,701.18,517.31,697.91,519.58L697.91,519.58z"/>
					</g>
					<g>
						<path class="st0" d="M697.43,540.64c-5.04,4.66-8.24,7.14-13.04,12.06c-2.86,2.93,1.41,7.07,4.44,4.44
							c5.19-4.5,8-7.38,12.95-12.14c2.87-2.76,0.58-9.11-2.33-6.42L697.43,540.64z"/>
					</g>
					<g>
						<path class="st0" d="M697.81,556.36c-5.54,5.82-9.9,9.76-15.03,15.95c-2.56,3.1,1.54,7.43,4.49,4.49
							c5.71-5.67,9.6-10.04,14.9-16.09C704.76,557.76,700.58,553.46,697.81,556.36L697.81,556.36z"/>
					</g>
					<g>
						<path class="st0" d="M699.18,577.14c-6.84,5.19-12.66,10.4-17.36,17.65c-1.92,2.96,2.64,6.6,4.95,3.82
							c5.2-6.24,9.83-11.47,16.16-16.61c2.7-2.19-0.35-7.73-3.16-5.6L699.18,577.14z"/>
					</g>
					<g>
						<path class="st0" d="M699.03,594.94c-5.72,6.57-11.64,13.03-16.8,20.05c-2.16,2.93,2.56,6.46,5.01,3.86
							c5.8-6.14,10.92-12.93,16.19-19.52C705.87,596.27,701.69,591.88,699.03,594.94L699.03,594.94z"/>
					</g>
					<g>
						<path class="st0" d="M699.7,616.58c-6,7.43-12.34,14.67-17.75,22.56c-2.04,2.98,2.62,6.6,5.03,3.88
							c6.34-7.16,11.81-15.08,17.57-22.7C706.64,617.54,701.9,613.85,699.7,616.58L699.7,616.58z"/>
					</g>
					<g>
						<path class="st0" d="M698.98,640.28c-6.59,5.59-12.78,12.16-17.07,19.71c-1.74,3.06,2.73,6.87,5.06,3.91
							c5.24-6.67,10.34-13.26,16.41-19.23C706.26,641.82,701.98,637.72,698.98,640.28L698.98,640.28z"/>
					</g>
					<g>
						<path class="st0" d="M699.12,663.19c-5.2,6-10.66,11.87-15.35,18.29c-2.17,2.97,2.58,6.53,5.06,3.91
							c5.27-5.58,9.86-11.84,14.64-17.84C705.9,664.51,701.76,660.14,699.12,663.19L699.12,663.19z"/>
					</g>
					<g>
						<path class="st0" d="M700.8,684.34c-5.65,5.99-11.89,11.82-16.78,18.46c-2.26,3.07,2.48,6.24,5.06,3.91
							c5.91-5.33,10.88-11.98,16.09-17.99C707.76,685.74,703.56,681.41,700.8,684.34L700.8,684.34z"/>
					</g>
					<g>
						<path class="st0" d="M700.85,707.13c-7.9,7.04-15.06,15.56-19.19,25.38c-1.43,3.41,3.99,5.4,5.81,2.45
							c5.26-8.54,8.43-15.96,15.82-22.87C706.25,709.31,703.85,704.46,700.85,707.13L700.85,707.13z"/>
					</g>
					<g>
						<path class="st0" d="M695.43,730.38c-3.87,5.3-7.91,10.66-11.29,16.29c-1.81,3.02,2.75,6.8,5.03,3.88
							c4.2-5.4,7.92-11.28,11.63-17.03C703,730.1,697.74,727.22,695.43,730.38L695.43,730.38z"/>
					</g>
					<g>
						<path class="st0" d="M705.34,752.23c-4.62,5.46-9.38,11.01-13.42,16.92c-2.06,3.01,2.62,6.62,5.06,3.91
							c4.78-5.31,9.05-11.27,13.26-17.05C712.3,753.17,707.62,749.53,705.34,752.23L705.34,752.23z"/>
					</g>
					<g>
						<path class="st0" d="M726.89,753.34c-4.2,5.54-8.42,11.48-11.88,17.51c-2.1,3.66,3.07,6.34,5.49,3.21
							c4.25-5.5,8.13-11.66,11.64-17.65C734.16,752.94,729.18,750.31,726.89,753.34L726.89,753.34z"/>
					</g>
					<g>
						<path class="st0" d="M744.44,753.18c-3.99,5.82-7.84,11.74-11.37,17.85c-2.06,3.57,3.19,6.52,5.47,3.19
							c3.98-5.82,7.65-11.86,11.17-17.97C751.69,752.81,746.64,749.97,744.44,753.18L744.44,753.18z"/>
					</g>
					<g>
						<path class="st0" d="M762.05,753.2c-3.31,5.91-6.66,11.82-9.68,17.88c-1.78,3.58,3.36,6.68,5.41,3.16
							c3.41-5.86,6.48-11.91,9.59-17.93C769.19,752.8,764,749.71,762.05,753.2L762.05,753.2z"/>
					</g>
					<g>
						<path class="st0" d="M782.83,750.79c-5.2,6.02-9.12,13-10.73,20.84c-0.81,3.97,4.9,5.61,6.1,1.68
							c2.01-6.56,4.77-12.7,9.02-18.13C789.62,752.11,785.49,747.7,782.83,750.79L782.83,750.79z"/>
					</g>
					<g>
						<path class="st0" d="M799.13,751.97c-5.56,7.05-10.07,14.51-13.24,22.93c-1.28,3.38,4.39,5.82,5.89,2.48
							c3.41-7.58,7.38-14.88,12.29-21.6C806.15,752.92,801.34,749.17,799.13,751.97L799.13,751.97z"/>
					</g>
					<g>
						<path class="st0" d="M821.46,749.72c-5.03,6.08-9.02,12.69-11.7,20.12c-1.39,3.85,4.51,5.26,6.01,1.66
							c2.59-6.2,5.87-12.15,10.02-17.45C828.17,751,824,746.65,821.46,749.72L821.46,749.72z"/>
					</g>
					<g>
						<path class="st0" d="M840.26,750.9c-4.97,5.41-8.96,12.01-10.78,19.18c-1.01,4.02,4.69,5.44,6.1,1.68
							c2.27-6.01,5.02-11.43,9.1-16.44C847.18,752.27,843.03,747.88,840.26,750.9L840.26,750.9z"/>
					</g>
					<g>
						<path class="st0" d="M859.6,751.58c-3.07,6.63-6.05,13.29-8.85,20.03c-1.36,3.27,4.27,5.67,5.76,2.43
							c3.05-6.64,5.9-13.35,8.68-20.11C866.5,750.76,861.05,748.44,859.6,751.58L859.6,751.58z"/>
					</g>
					<g>
						<path class="st0" d="M880.81,750.93c-5.24,6.17-8.72,13.4-9.52,21.51c-0.34,3.47,5.39,4.24,6.1,0.83
							c1.37-6.57,3.59-12.64,7.77-17.97C887.56,752.24,883.41,747.86,880.81,750.93L880.81,750.93z"/>
					</g>
					<g>
						<path class="st0" d="M901.89,748.79c-4.92,6.56-8.19,13.95-9.58,22.03c-0.68,3.93,5.21,5.69,6.08,1.68
							c1.62-7.45,4.51-14.3,8.85-20.58C909.53,748.59,904.22,745.68,901.89,748.79L901.89,748.79z"/>
					</g>
					<g>
						<path class="st0" d="M923.21,750.21c-6.46,4.06-10.91,10.89-12.45,18.31c-0.82,3.96,5.11,5.66,6.1,1.68
							c1.59-6.37,5.03-11.08,10.02-15.22C929.55,752.77,926.1,748.39,923.21,750.21L923.21,750.21z"/>
					</g>
					<g>
						<path class="st0" d="M943.18,750.54c-5.49,6.23-9.88,13.6-11.78,21.75c-0.92,3.93,4.8,5.5,6.04,1.66
							c2.28-7.05,5.28-13.36,10.14-19.02C950.15,751.92,945.83,747.52,943.18,750.54L943.18,750.54z"/>
					</g>
					<g>
						<path class="st0" d="M956.91,751.53c-2.95,6.68-6.02,13.33-8.64,20.14c-1.29,3.35,4.29,5.72,5.83,2.46
							c3.1-6.61,5.78-13.43,8.56-20.18C963.99,750.69,958.35,748.28,956.91,751.53L956.91,751.53z"/>
					</g>
					<g>
						<path class="st0" d="M979.34,749.78c-3.81,7.01-7.81,13.95-11.32,21.12c-1.76,3.6,3.36,6.7,5.42,3.17
							c4.03-6.88,7.61-14.06,11.34-21.11C986.68,749.39,981.28,746.21,979.34,749.78L979.34,749.78z"/>
					</g>
					<g>
						<path class="st0" d="M997.19,751.41c-2.76,4.83-5.59,9.64-8.1,14.61c-1.82,3.6,3.34,6.69,5.45,3.18
							c2.87-4.78,5.43-9.73,8.04-14.65C1004.46,751.02,999.2,747.91,997.19,751.41L997.19,751.41z"/>
					</g>
					<g>
						<path class="st0" d="M1018.4,755.54c-1.79,4.83-4.09,9.22-6.78,13.6c-1.88,3.05,2.75,6.84,5.08,3.92
							c3.72-4.67,6.38-10.03,7.78-15.84C1025.45,753.21,1019.79,751.77,1018.4,755.54L1018.4,755.54z"/>
					</g>
					<g>
						<path class="st0" d="M1041.13,754.71c-3.14,5.46-6.21,11.1-8.6,16.93c-1.45,3.53,4.12,5.58,6,2.53
							c3.14-5.12,5.72-10.73,8.15-16.22C1048.31,754.26,1043.24,751.04,1041.13,754.71L1041.13,754.71z"/>
					</g>
					<g>
						<path class="st0" d="M1063.56,753.19c-3.46,5.77-5.85,12.58-5.62,19.39c0.12,3.48,5.84,4.66,6.4,0.87
							c0.89-6.01,1.93-11.59,4.61-17.11C1070.68,752.77,1065.65,749.71,1063.56,753.19L1063.56,753.19z"/>
					</g>
					<g>
						<path class="st0" d="M1086.2,756.21c-3.61,4.71-5.63,10.48-4.94,16.43c0.48,4.15,6.32,4.32,6.59,0
							c0.3-4.77,1.4-9.08,4.04-13.11C1094.27,755.9,1088.7,752.95,1086.2,756.21L1086.2,756.21z"/>
					</g>
					<g>
						<path class="st0" d="M1108.83,757.58c-3.28,4.68-5.57,10.66-4.83,16.46c0.52,4.03,6.07,4.17,6.38,0
							c0.44-5.91,1.16-11.55,3.83-13.31C1117.61,758.49,1111.1,754.33,1108.83,757.58L1108.83,757.58z"/>
					</g>
					<g>
						<path class="st0" d="M1125.88,759.46c-0.99,2.74-2.03,9.63-2.92,12.4c-1.25,3.91,4.55,5.28,6.01,1.66
							c1.09-2.7,2.04-9.63,3.03-12.37C1133.4,757.3,1127.27,755.64,1125.88,759.46L1125.88,759.46z"/>
					</g>
					<g>
						<path class="st0" d="M1141.23,760.43c-0.05,1.63-0.52,6.28-0.48,7.9c0.1,4.06,6.2,4.06,6.31,0c0.04-1.63,0.53-6.28,0.48-7.9
							c-0.13-4.06-6.17-2.55-6.31,1.51V760.43z"/>
					</g>
				</g>
				<g>
					<g>
						<path d="M1195.5,199.48c-0.36,13.79-0.78,27.59-0.92,41.38c-0.04,4.08,6.18,4.06,6.33,0c0.49-13.79,0.69-27.59,0.97-41.38
							C1201.96,195.37,1195.61,195.38,1195.5,199.48L1195.5,199.48z"/>
					</g>
					<g>
						<path d="M1207.52,200.34c-1.25,31.82-1.1,63.61-3.04,95.43c-0.27,4.35,6.37,4.27,6.73,0c2.65-31.55,4.61-63.8,2.37-95.43
							C1213.3,196.48,1207.68,196.41,1207.52,200.34L1207.52,200.34z"/>
					</g>
					<g>
						<path d="M1189.73,623.46c-0.31,44.46-0.58,89,0.51,133.45c0.1,4.25,6.55,4.26,6.61,0c0.66-44.45-0.05-89-0.79-133.45
							C1195.99,619.39,1189.76,619.38,1189.73,623.46L1189.73,623.46z"/>
					</g>
					<g>
						<path d="M1200.31,692.72c0.35,20.83,0.49,41.7,1.57,62.5c0.22,4.19,6.57,4.25,6.56,0c-0.04-20.83-1.02-41.68-1.78-62.5
							C1206.51,688.65,1200.24,688.62,1200.31,692.72L1200.31,692.72z"/>
					</g>
					<g>
						<path d="M1231.52,731.01c-35.81,0.56-71.55-0.21-107.28-2.69c-4.08-0.28-4.03,6.01,0,6.33c35.74,2.85,71.45,3.85,107.28,2.6
							C1235.52,737.1,1235.55,730.94,1231.52,731.01L1231.52,731.01z"/>
					</g>
					<g>
						<path d="M729.35,192.72c-0.3,10.42-0.65,20.83-0.83,31.25c-0.07,3.98,6.02,3.96,6.17,0c0.38-10.41,0.59-20.83,0.85-31.25
							C735.65,188.74,729.47,188.74,729.35,192.72L729.35,192.72z"/>
					</g>
					<g>
						<path d="M743.38,194.36c1.23,26.57,1.25,52.91-0.82,79.43c-0.33,4.17,6.07,4.09,6.47,0c2.57-26.43,3.03-52.98,0.52-79.43
							C749.18,190.48,743.2,190.34,743.38,194.36L743.38,194.36z"/>
					</g>
					<path d="M1241.02,193.39c0.03-2.32-2.08-3.2-3.8-2.72c-0.03,0-0.05-0.01-0.08-0.01c-77.87,7.74-156.82,4.75-235.14,3.55
						c0.01-0.39,0.06-0.74,0.06-1.13c0.18-23.07-18.93-42.21-42.05-42.27c-22.87-0.06-40.15,20.69-39.62,42.63
						c-26.83-0.2-53.65-0.4-80.48-0.76c-45.02-0.59-91.97-6.62-136.72-1.36c-0.75,0.09-1.31,0.43-1.77,0.85
						c-1.51,0.01-2.94,0.98-2.83,2.96c5.41,93.66-0.05,186.9-2.16,280.55c-2.09,92.68,6.65,185.02,0.67,277.65
						c0,0.05,0.02,0.09,0.02,0.14c-0.61,1.9,0.33,4.27,2.9,4.15c88.22-4.29,176.35-6.57,264.68-4.28
						c89.08,2.31,178.04,8.85,267.2,6.03c2.27-0.07,3.34-1.95,3.24-3.71c0.22-0.45,0.36-0.96,0.31-1.6
						C1222.97,567.58,1238.64,379.98,1241.02,193.39z M929.07,182.45c3.6-10.45,11.41-19.22,22.62-22.36
						c16.16-4.52,34.72,5.39,39.96,21.26c7.17,21.73-5.83,42.05-28.85,42.87c-13.83,0.49-27.17-6.28-31.87-17.83
						c-1.37-1.99-2.22-4.14-2.81-6.48c0.17,0,0.35,0,0.52,0.01c-0.58-1.33-0.95-2.75-1.23-4.21c-0.06-0.8-0.16-1.59-0.17-2.41
						c0.01-0.34-0.01-0.69-0.01-1.03c-0.02-0.08-0.04-0.11-0.06-0.21C926.08,188.71,927.02,185.16,929.07,182.45z M964.72,746.55
						c-86.84-2.25-173.99-1.3-260.69,4.41c5.69-91.83-2.83-183.39-0.76-275.28c2.09-92.72,9.19-185.77,1.66-278.41
						c44.3-4.72,90.5,1.14,135,1.73c26.93,0.36,53.86,0.59,80.79,0.82c-1.01,36.84,73.08,47.97,80.68,0.9
						c77.76,1.28,156.08,3.88,233.49-2.85c-7.75,183.91-17.83,370.94-6.27,554.76C1140.56,755.2,1052.7,748.83,964.72,746.55z"/>
				</g>
			</g>
		</g>
		<g>
			<path class="st0" d="M989.42,341.85c4.13-3.99,8.29-7.96,12.28-12.09c2.22-2.3-1.17-5.67-3.5-3.5c-4.2,3.91-8.25,8-12.32,12.05
				C983.61,340.59,987.11,344.08,989.42,341.85L989.42,341.85z"/>
		</g>
		<g>
			<path class="st0" d="M1004.57,352.38c12.29-8.58,25.08-16.07,38.76-22.21c3.02-1.35,0.39-5.67-2.58-4.41
				c-13.78,5.85-26.83,13.14-38.78,22.17C999.39,349.88,1001.81,354.31,1004.57,352.38L1004.57,352.38z"/>
		</g>
		<g>
			<path class="st0" d="M912.38,341.15c-4.54-10.29-8.5-20.81-11.76-31.57c-0.96-3.17-5.89-1.84-4.98,1.37
				c3.18,11.3,7.21,22.21,12.27,32.81C909.36,346.81,913.71,344.15,912.38,341.15L912.38,341.15z"/>
		</g>
		<g>
			<path class="st0" d="M864.16,668.52c61.81-12.05,124.17-20.87,186.78-27.46c3.34-0.35,3.41-5.6,0-5.29
				c-63.21,5.76-125.89,15.44-188.09,28.01C859.75,664.4,861.07,669.12,864.16,668.52L864.16,668.52z"/>
		</g>
		<g>
			<path class="st0" d="M1003.33,657.32c-11.29,1.48-22.46,3.43-33.66,5.46c-2.25,0.41-2.55,3.82-0.63,4.84
				c14.44,7.67,35.35,3.08,51.02,2.43c22.97-0.95,45.89-2.65,68.78-4.82c2.99-0.28,3.73-4.32,0.72-5.32
				c-6.56-2.18-11.18-2.41-17.95-1.23c0.49,1.77,0.97,3.53,1.46,5.3c9.32-3.83,18.56-6.53,28.47-8.33c3.28-0.59,1.85-5.45-1.37-4.95
				c-10.01,1.56-19.21,4.14-28.57,7.99c-3.24,1.33-2.08,5.95,1.46,5.3c5.02,0.38,10.03,0.77,15.05,1.15
				c0.24-1.77,0.48-3.54,0.72-5.32c-18.53,1.59-37.08,2.87-55.66,3.84c-8.74,0.46-17.49,0.85-26.24,1.15
				c-10.59,0.37-25.49,2.84-35.23-1.76c-0.21,1.61-0.42,3.23-0.63,4.84c10.87-2.52,21.84-4.32,32.89-5.83
				C1006.64,661.7,1006.03,656.97,1003.33,657.32L1003.33,657.32z"/>
		</g>
		<g>
			<path class="st0" d="M961.08,656.12c-1.02,0.73-2.03,1.46-3.05,2.18c-1.81,1.29-1.39,4.65,1.23,4.53
				c47.75-2.22,95.29-8.79,142.29-17.3c3.44-0.62,1.96-5.8-1.44-5.22c-46.74,7.92-93.7,13.03-140.85,17.66
				c0.41,1.51,0.82,3.02,1.23,4.53c1.01-0.75,2.01-1.5,3.01-2.24C965.93,658.45,963.61,654.31,961.08,656.12L961.08,656.12z"/>
		</g>
		<g>
			<path d="M1094.21,486.37c-6.97-4.45-14.57-6.44-22.3-9.24c-11.34-4.11-20.33-11.17-29.66-18.6
				c-14.01-11.15-29.5-21.04-47.12-25.1c11.27-17.09,13.8-38.87,5.01-58.45c-7.09-15.8-21.91-26.75-37.84-26.74
				c-0.18-0.08-0.39-0.14-0.62-0.14c-21.16-0.02-41.1,14.33-49.53,33.54c-8.66,19.71-4.37,42.3,9.44,58.33
				c-18.38,1.52-34.67,12.41-50.57,20.91c-22.79,12.18-47.49,19.81-73.16,22.66c-1.05,0.12-1.84,0.63-2.37,1.32
				c-0.48,0.11-0.93,0.39-1.25,0.94c-11.73,19.93,23.68,23.33,34.66,23.29c13.1-0.05,26.24-1.85,39.02-4.67
				c11.67-2.58,22.84-6.45,34.43-8.69c1.83,6.25-1.89,34.45-1.89,38.77c0,13.08,1.14,26.15,3.18,39.07
				c4.22,26.78,12.94,52.64,25.32,76.72c0.55,1.07,1.41,1.53,2.29,1.57c0.86,1.08,2.15,1.54,4.05,1.79
				c1.15,0.15,2.02-1.07,2.07-2.07c0.61-11.96-2.93-41.49,12.19-45.92c14.21-4.16,31.23,15.65,38.44,25.62
				c4.34,6.01,7.72,16.74,15.88,18.7c1.36,0.33,2.7,0.37,3.94,0.17c0.4,0.78,1.22,1.37,2.34,1.2c10.84-1.6,14.55-12.38,16.02-21.92
				c2.13-13.78,3.79-28.17,2.5-42.11c-1.37-14.77-7.83-27.92-12.71-41.73c-5.45-15.46-14.45-33.99-10.47-50.57
				c15.78,4.34,31.4,9.24,47.61,11.71c9.82,1.5,20.21,2.3,30.22,1.67c3.99,0.67,8.09,0.47,11.97-1.02c2.65-1.02,5.25-2.84,6.39-5.35
				c2.84-2.54,3.23-7.59,0.3-11.34C1099.96,488.12,1097.18,487.02,1094.21,486.37z M1079.91,484.05c-4.06-0.78-8-1.76-12-3.15
				c0.48-0.13,0.96-0.26,1.44-0.37c0.07-0.02,0.12-0.06,0.18-0.08C1072.98,481.74,1076.48,482.83,1079.91,484.05z M1045.24,468.4
				c0.3-0.18,0.47-0.42,0.58-0.68c0.41-0.16,0.83-0.32,1.25-0.47c2.72,2.09,5.49,4.12,8.35,5.99c-0.69,0.34-1.36,0.71-2.01,1.12
				c-3.24-1.68-6.45-3.43-9.64-5.24C1044.27,468.89,1044.76,468.68,1045.24,468.4z M1058.05,475.33c0.11-0.07,0.19-0.17,0.27-0.27
				c2.21,1.32,4.49,2.52,6.85,3.58c-0.36,0.16-0.71,0.34-1.06,0.52c-0.1,0.05-0.15,0.12-0.23,0.18c-0.5-0.21-1-0.4-1.51-0.63
				c-1.9-0.85-3.78-1.74-5.65-2.66C1057.18,475.83,1057.63,475.61,1058.05,475.33z M1044.23,465.1c-0.62,0.34-1.23,0.71-1.77,1.1
				c-0.19,0.14-0.33,0.3-0.43,0.47c-0.49,0.22-0.99,0.42-1.49,0.61c-2.96-1.7-5.9-3.42-8.85-5.13c1.47-0.54,2.92-1.15,4.33-1.81
				c0.38-0.18,0.59-0.47,0.68-0.8C1039.18,461.32,1041.7,463.17,1044.23,465.1z M1001.09,439.22c2.8,1.21,5.52,2.48,8.18,3.79
				c-0.46,0.2-0.93,0.4-1.39,0.59c-0.3,0.12-0.5,0.33-0.66,0.55c-1.44,0.65-2.83,1.41-4.22,2.17c-2.75-1.33-5.54-2.47-8.36-3.26
				c1.87-0.89,3.77-1.69,5.67-2.58C1000.9,440.21,1001.12,439.72,1001.09,439.22z M1009.89,446.35c0.26-0.16,0.41-0.38,0.53-0.61
				c0.86-0.28,1.71-0.56,2.56-0.88c3.41,1.78,6.74,3.68,10.02,5.66c-2.16,1-4.25,2.13-6.36,3.24c-3.24-1.77-6.65-3.8-10.17-5.68
				C1007.64,447.56,1008.81,447.01,1009.89,446.35z M1025.18,452.82c0.29-0.17,0.46-0.39,0.59-0.62c2.86,1.79,5.71,3.67,8.54,5.64
				c-1.74,0.63-3.48,1.32-5.14,2.15c-0.22,0.11-0.36,0.26-0.48,0.43c-2.89-1.66-5.8-3.29-8.73-4.86
				C1021.72,454.69,1023.49,453.81,1025.18,452.82z M998.12,437.95c-2.86,0.89-5.62,2.43-8.12,3.98c-0.08,0.05-0.12,0.12-0.19,0.18
				c-0.48-0.05-0.95-0.12-1.43-0.14c1.78-1.89,3.46-3.86,4.97-5.92C994.97,436.67,996.56,437.31,998.12,437.95z M994.55,384.05
				c0.88,2.89,1.47,5.79,1.83,8.68c-0.19,0.01-0.39,0.05-0.57,0.14c-1.9,0.87-3.75,1.49-5.69,2c0.12-3.07-0.02-6.15-0.39-9.2
				c1.7-0.46,3.24-1.3,4.53-2.47C994.35,383.5,994.46,383.76,994.55,384.05z M987.23,410.66c2.57,1.14,5.84,0.87,8.28-0.26
				c-0.9,3.98-2.24,7.85-4.02,11.54c-2.86-0.34-5.48-1.37-7.68-3.16C985.17,416.17,986.3,413.44,987.23,410.66z M982.17,421.74
				c2.2,1.82,4.79,3.06,7.6,3.5c-1.81,3.18-3.95,6.2-6.38,9.02c0,0-0.01-0.01-0.02-0.01c-3-0.94-5.02-2.47-6.49-5.1
				c0.59-0.74,1.17-1.49,1.75-2.24C979.87,425.22,981.08,423.53,982.17,421.74z M974.51,432.58c1.3,2.26,3.56,4.04,6.05,4.73
				c-1.13,1.14-2.29,2.25-3.52,3.3c-0.03,0.03-0.05,0.05-0.07,0.08C974.48,437.7,973.67,435,974.51,432.58z M996.08,407.6
				c-0.38-0.42-0.93-0.63-1.56-0.37c-2.35,0.98-4.24,0.71-6.25-0.11c0.75-2.86,1.29-5.76,1.59-8.7c2.41-0.06,4.81-0.89,6.84-2.19
				C996.93,400.06,996.71,403.87,996.08,407.6z M992.95,379.61c-1.13,1.04-2.37,1.94-3.75,2.61c-0.12-0.66-0.23-1.33-0.37-1.99
				c-0.45-2.04-1.07-4.1-1.82-6.13c0.06-0.08,0.13-0.13,0.19-0.22c0.44-0.82,0.88-1.65,1.31-2.48
				C990.21,373.91,991.72,376.64,992.95,379.61z M986.42,368.61c-0.38,0.54-0.71,1.11-1.04,1.69c-1.13-2.4-2.46-4.73-3.99-6.88
				C983.21,364.96,984.88,366.71,986.42,368.61z M1000.71,505.99c-0.21-0.12-0.46-0.22-0.76-0.24c-1.95-0.12-3.92-0.17-5.87-0.01
				c-0.9-2.9-1.55-5.83-1.54-8.78c2.8,0.75,5.96,0.84,8.68,0.29c0.18-0.04,0.32-0.11,0.46-0.18
				C1000.9,500.04,1000.63,503.01,1000.71,505.99z M999.96,508.92c0.38-0.03,0.67-0.17,0.91-0.35c0.33,3.59,1.09,7.17,2.04,10.74
				c-0.98,0.09-1.95,0.1-2.95,0.12c-0.39,0.01-0.7,0.15-0.95,0.35c-0.47-1.4-0.93-2.81-1.41-4.21c-0.74-2.16-1.61-4.35-2.42-6.58
				C996.77,509.06,998.37,509.02,999.96,508.92z M1003.8,522.5c0.23,0.8,0.47,1.6,0.71,2.4c0.96,3.21,1.96,6.4,2.99,9.58
				c-1.17,0.14-2.32,0.41-3.45,0.76c-1.31-4.22-2.67-8.42-4.07-12.61C1001.23,522.94,1002.57,522.87,1003.8,522.5z M1008.26,537.49
				c0.08-0.03,0.14-0.08,0.21-0.11c0.92,2.78,1.85,5.56,2.82,8.32c-1.28,0.13-2.62,0.31-3.86,0.69c-0.77-2.67-1.56-5.33-2.37-7.98
				C1006.15,538.19,1007.24,537.92,1008.26,537.49z M1012.32,548.63c1.09,3.06,2.2,6.12,3.34,9.16c-1.56,0.34-3.25,0.77-4.75,1.4
				c-0.82-3.22-1.67-6.44-2.58-9.64C1009.69,549.39,1011.09,549,1012.32,548.63z M1017.58,562.91c1.21,3.14,2.24,6.27,3.12,9.4
				c-2.23,0.05-4.42,0.45-6.53,1.15c-0.76-3.78-1.6-7.55-2.52-11.3c1.72-0.28,3.51-0.86,5.1-1.44
				C1017.04,561.45,1017.3,562.18,1017.58,562.91z M1023.18,625.44c-0.12-0.02-0.24-0.05-0.38-0.03c-1.47,0.16-2.94,0.41-4.37,0.8
				c0.13-2.39,0.22-4.78,0.25-7.17c1.75-0.42,3.53-0.77,5.24-1.33C1023.78,620.27,1023.55,622.88,1023.18,625.44z M1018.55,609.5
				c1.95-0.14,3.88-0.78,5.72-1.47c-0.05,2-0.09,4.14-0.17,6.35c-1.84,0.31-3.63,0.91-5.41,1.47
				C1018.68,613.73,1018.63,611.62,1018.55,609.5z M1024.39,603.82c-0.01,0.23-0.02,0.47-0.02,0.7c-1.98,0.4-4.1,0.84-5.97,1.7
				c-0.14-2.49-0.33-4.97-0.55-7.46c2.22-0.35,4.46-0.89,6.58-1.58C1024.47,599.38,1024.48,601.58,1024.39,603.82z M1017.48,595.04
				c-0.24-2.23-0.52-4.46-0.82-6.68c2.27-0.88,4.57-1.15,7-1.56c0.29,2.25,0.51,4.51,0.64,6.8
				C1022.04,593.9,1019.7,594.38,1017.48,595.04z M1016.2,585.01c-0.02-0.11-0.03-0.23-0.05-0.34c-0.4-2.69-0.87-5.36-1.37-8.03
				c2.2-0.61,4.44-0.98,6.73-1.23c0.68,2.72,1.26,5.46,1.7,8.21C1020.8,583.37,1018.38,583.96,1016.2,585.01z M1016.44,642.71
				c1.23-3.73,1.37-8.39,1.65-11.5c0.05-0.53,0.07-1.07,0.11-1.6c0.17,0.01,0.34,0.02,0.52,0c1.32-0.18,2.63-0.52,3.91-0.92
				C1021.54,634.14,1019.69,639.15,1016.44,642.71z M1002.23,495.2c-0.24-0.57-0.75-1.06-1.44-1.14c-1.6-0.17-3.21-0.12-4.82-0.19
				c-1.04-0.04-2.08-0.14-3.13-0.18c0.11-0.61,0.27-1.23,0.46-1.84c3.1,0.75,6.19,1.55,9.27,2.38
				C1002.45,494.56,1002.33,494.88,1002.23,495.2z M1035.57,495.83c-17.88-4.66-35.96-12.11-54.76-9.97
				c-1.67,0.19-2.43,2.87-0.44,3.23c3.12,0.56,6.22,1.21,9.31,1.91c-3.95,6.18-1.21,13.44,0.88,20.32
				c4.44,14.6,9.09,29.12,12.67,43.96c3.66,15.16,6.66,30.58,7.85,46.14c0.56,7.27,0.75,14.57,0.46,21.85
				c-0.21,5.33,0.26,12.5-2.15,17.65c-6.34,3.19-12-9.85-14.69-13.57c-3.41-4.72-7.23-9.17-11.44-13.2
				c-7.58-7.27-17.39-15.4-28.31-16.18c-9.12-0.66-16.34,4.57-19.57,12.94c-1.92,4.96-1.98,10.36-2,15.6
				c-0.01,3.42-1.12,11.02-1.02,16.49c-13.26-27.8-21.73-57.7-24.24-88.46c-1.21-14.8-0.83-29.46,0.12-44.26
				c0.24-3.76,1.65-11.16-0.23-15.51c2.77-0.39,5.57-0.66,8.42-0.78c4.43-0.17,4.3-6.38,0-6.79c-18.94-1.81-37.81,7.54-56.16,11.08
				c-9.98,1.92-62.47,10.23-62.58-8.16c0.06,0,0.11,0.01,0.18,0c22.54-2.42,44.48-8.09,65.06-17.69
				c21.2-9.89,39.65-23.52,62.55-29.5c2.7,0.13,5.23-3.47,2.79-6.05c-14.18-14.92-18.15-37.51-8.83-56.1
				c5.88-11.72,15.48-19.89,26.88-24.85c6.4-1.69,12.61-1.88,18.37-0.71c23.48,9.81,24.24,46.81,11.24,65.96
				c-4.26,6.28-12.49,13.64-8.05,22.09c2.17,4.12,6.19,5.46,9.93,3.92c1.27,0.82,2.9,1.09,4.43,0.36
				c20.84,3.57,41.21,18.68,59.23,28.99c7.83,4.48,15.8,8.81,24.27,11.97c4.26,1.59,8.65,2.9,13.14,3.7
				c2.05,0.37,4.08,0.58,6.14,0.75c1.26,0.1,17.46,1.16,10.28,6.64c-0.36,0.28-0.63,0.69-0.79,1.13c-7.31,4.17-19.28,1.7-26.57,0.89
				C1057.02,500.41,1046.19,498.59,1035.57,495.83z"/>
			<path d="M788.31,416c0.15,0.11,0.33,0.18,0.49,0.27c-1.17,0.71-0.4,2.8,1.19,2.53c10.11-1.7,20.35-2.65,30.61-2.43
				c5.86,0.12,7.2,0.11,8.06-5.86c0.07-0.46-0.04-0.85-0.24-1.16c0.11-1.66-0.89-3.55-3.02-3.8c-7.92-0.92-15.61,0.71-23.39,1.82
				c-1.27-11.41-0.25-23.17-2.88-34.38c-0.28-1.18-1.43-1.36-2.26-0.94c-0.05,0.01-0.1,0-0.15,0.01c-2.06,0.49-4.14,1.69-6.09,2.6
				c-0.35,0.05-0.66,0.21-0.85,0.52c-0.24,0.28-0.29,0.66-0.24,1.03c-1.47,9.3-0.67,19.22-0.03,28.78c-0.94,0.32-1.78,0.9-2.42,1.67
				C784.74,409.51,785.25,413.87,788.31,416z M796.36,375.61c0.02,0.09,0.04,0.19,0.06,0.28c-0.26-0.01-0.52,0.02-0.81,0.17
				c-0.95,0.51-1.87,1.1-2.79,1.67c-0.06-0.25-0.12-0.49-0.19-0.74C793.86,376.56,795.16,376.14,796.36,375.61z M797.33,391.81
				c-0.02,0.01-0.05,0.01-0.07,0.02c-0.73,0.45-1.43,0.96-2.12,1.48c-0.14-1.83-0.32-3.66-0.53-5.47c0.37-0.02,0.74-0.17,1.05-0.42
				c0.53-0.42,1.07-0.83,1.6-1.25C797.31,388.06,797.32,389.93,797.33,391.81z M797.14,382.48c-0.98,0.76-1.95,1.54-2.91,2.33
				c-0.2-1.37-0.44-2.72-0.71-4.06c0.08-0.03,0.16-0.04,0.24-0.09c1.02-0.62,2.07-1.22,3.07-1.89
				C796.97,380.01,797.07,381.24,797.14,382.48z M795.38,396.85c0.68-0.45,1.34-0.93,2.01-1.4c0.04,1.47,0.1,2.94,0.21,4.4
				c-0.64,0.46-1.3,0.9-1.99,1.29C795.54,399.71,795.46,398.28,795.38,396.85z M797.23,414.53c0.04-0.06,0.09-0.1,0.13-0.16
				c0.02-0.04,0.03-0.08,0.06-0.12c3.37-0.33,6.73-0.86,10.08-1.36c0.03,0.13,0.07,0.26,0.1,0.39c-0.18,0.01-0.37,0.01-0.54,0.02
				C803.75,413.56,800.48,413.99,797.23,414.53z M815.36,411.91c0.77-0.07,1.54-0.14,2.32-0.18c-0.08,0.54-0.11,1.07-0.11,1.6
				c-0.76,0.04-1.53,0.05-2.31,0.05C815.33,412.9,815.36,412.41,815.36,411.91z M812.23,413.33c-0.55-0.02-1.09-0.03-1.6-0.05
				c0-0.1,0.02-0.18,0-0.28c-0.04-0.18-0.09-0.36-0.13-0.54c0.55-0.08,1.1-0.15,1.65-0.22
				C812.14,412.61,812.18,412.98,812.23,413.33z M823.93,411.83c-0.84,0.53-1.9,0.88-3.08,1.12c0.06-0.42,0.1-0.85,0.12-1.28
				C821.95,411.67,822.94,411.75,823.93,411.83z M797.1,407.98c-0.34-0.46-0.73-0.88-1.2-1.23c-0.04-0.8-0.08-1.6-0.12-2.4
				c0.76-0.32,1.48-0.68,2.18-1.09c0.2,1.52,0.48,3.03,0.85,4.53C798.23,407.85,797.67,407.93,797.1,407.98z"/>
			<path d="M796.3,463.47c22.94,0.89,48.49-8.75,58.04-31.13c8.45-19.8,2.55-46.41-11.96-61.89c-11.41-12.17-26.88-17.61-42.66-17.2
				c-16.13-0.96-33.06,4.51-41.54,17.19c-0.31,0.47-0.45,0.92-0.46,1.35c-6.9,6.99-11.19,16.51-12.13,29
				c-0.98,12.98,2.02,25.73,8.83,35.8C758.82,453.58,780.04,462.83,796.3,463.47z M791.99,456.68c0.17,0.49,0.41,0.97,0.7,1.42
				c-4.54-0.49-8.77-1.56-12.63-3.22C783.84,455.92,787.86,456.5,791.99,456.68z M798.01,458.41c-0.78-0.46-1.52-1.01-2.1-1.71
				c2.43-0.05,4.88-0.23,7.32-0.56c0.48,0.65,0.96,1.31,1.46,1.95c-0.55,0.06-1.11,0.13-1.66,0.17
				C801.32,458.4,799.65,458.43,798.01,458.41z M835.11,441.97c0.78,1.05,1.69,1.98,2.75,2.76c-1.34,1.13-2.74,2.19-4.2,3.17
				c-0.69-0.88-1.47-1.69-2.25-2.5c-0.07-0.08-0.15-0.15-0.22-0.23C832.57,444.16,833.87,443.1,835.11,441.97z M828.5,447.07
				c0.2,0.22,0.4,0.44,0.59,0.66c0.59,0.67,1.18,1.31,1.8,1.93c-1.47,0.87-2.97,1.69-4.52,2.43c-0.63-0.89-1.3-1.76-2.02-2.61
				C825.77,448.73,827.16,447.93,828.5,447.07z M821.27,450.98c0.66,0.85,1.35,1.67,2.07,2.45c-1.8,0.75-3.63,1.42-5.49,2
				c-0.48-0.82-0.97-1.64-1.46-2.46C818.05,452.38,819.68,451.71,821.27,450.98z M813.17,453.99c0.41,0.82,0.85,1.62,1.34,2.4
				c-2.01,0.51-4.04,0.9-6.06,1.22c-0.49-0.7-1.01-1.38-1.55-2.04C809.02,455.15,811.1,454.61,813.17,453.99z M840.23,442.58
				c-0.93-0.98-1.83-1.99-2.68-3.03c1.19-1.27,2.3-2.59,3.32-3.99c0.15,0.19,0.27,0.39,0.43,0.58c0.73,0.9,1.51,1.9,2.45,2.63
				C842.66,440.11,841.47,441.37,840.23,442.58z M844.88,382.68c1,1.72,1.9,3.49,2.72,5.32c-0.91-0.3-1.83-0.58-2.73-0.87
				c-0.55-1.41-1.16-2.8-1.81-4.17c0.48-0.05,0.96-0.11,1.44-0.16C844.64,382.78,844.75,382.72,844.88,382.68z M850.53,426.23
				c-1.31-1.1-2.48-2.17-3.38-3.63c0.49-1.71,0.92-3.43,1.22-5.19c0.68,0.73,1.37,1.43,2.13,2.05c0.54,0.43,1.11,0.47,1.58,0.29
				c-0.26,1.63-0.57,3.24-1,4.82C850.92,425.14,850.71,425.68,850.53,426.23z M848.87,413.6c-0.01-0.01-0.02-0.01-0.04-0.02
				c0.2-2.15,0.26-4.32,0.2-6.49c1.12,0.72,2.37,1.25,3.57,1.26c0.18,2.94,0.14,5.87-0.16,8.76
				C851.38,415.83,850.09,414.72,848.87,413.6z M852.31,405.06c-0.42-0.13-0.84-0.25-1.24-0.44c-0.8-0.37-1.51-0.86-2.16-1.45
				c-0.04-0.03-0.08-0.04-0.12-0.07c-0.13-1.27-0.31-2.54-0.52-3.8c0.95,0.31,1.91,0.58,2.86,0.73c0.13,0.02,0.25,0,0.37-0.01
				C851.84,401.69,852.11,403.37,852.31,405.06z M847.54,395.77c-0.38-1.64-0.82-3.27-1.33-4.88c0.97,0.39,1.94,0.75,2.94,0.96
				c0.01,0,0.02,0,0.02,0c0.57,1.56,1.06,3.16,1.5,4.77C849.65,396.28,848.59,396.02,847.54,395.77z M844.13,430.36
				c0.66-1.3,1.25-2.64,1.77-4c0.9,1.08,1.95,2.03,3.18,2.59c0.14,0.06,0.29,0.1,0.43,0.13c-1.02,2.47-2.28,4.79-3.75,6.95
				c-0.64-0.71-1.36-1.37-1.97-2.09c-0.35-0.41-0.68-0.85-1.02-1.27C843.24,431.9,843.72,431.16,844.13,430.36z M843.23,380.04
				c-0.5,0.09-1,0.17-1.5,0.26c-1.82-3.38-3.96-6.56-6.36-9.49c0.08,0.07,0.17,0.14,0.25,0.21
				C838.49,373.65,841.02,376.71,843.23,380.04z M760.76,376.36c7.62-8.47,18.91-12.6,29.67-15.29c0.29-0.07,0.53-0.19,0.73-0.34
				c15.11-2.13,30.38,2.63,40.5,17.33c17.06,24.77,12.08,56.75-17.62,67.6c-20.47,7.48-44.58,2.62-55.79-15.39
				c-0.24-0.69-0.5-1.35-0.72-2.06c-0.2-0.64-0.61-1.02-1.1-1.23c-1.28-2.59-2.33-5.39-3.08-8.44
				C750.16,405.6,751.58,386.58,760.76,376.36z"/>
			<path class="st0" d="M758.9,415.25c1.37,0,2.76-0.3,4.09-0.59c1.35-0.29,2.76-0.47,3.88-1.33c1.09-0.84,1.3-3.05-0.44-3.36
				c-1.53-0.27-2.84,0.1-4.31,0.51c-1.4,0.39-2.83,0.79-4.12,1.46C756.42,412.78,757.2,415.26,758.9,415.25z"/>
			<path class="st0" d="M800.62,436.34c-0.57-1.3-2.34-0.71-2.74,0.36c-0.29,0.78-0.67,1.4-0.79,2.25
				c-0.15,1.03-0.11,1.91,0.03,2.94c0.17,1.18,1.6,1.89,2.66,1.74c1.24-0.19,2.01-1.15,2.1-2.38c0.07-0.91-0.02-1.81-0.25-2.69
				C801.43,437.72,800.96,437.1,800.62,436.34z"/>
			<path class="st0" d="M781.74,435.81c2.63,0,2.64-4.09,0-4.09C779.11,431.72,779.1,435.81,781.74,435.81z"/>
			<path class="st0" d="M770.6,425.36c-0.05,0.11-0.11,0.21-0.16,0.32c-0.69,1.34,0.15,3.05,1.75,3.05c1.6,0,2.44-1.7,1.75-3.05
				c-0.06-0.11-0.11-0.21-0.16-0.32C773.15,424.16,771.21,424.16,770.6,425.36z"/>
			<path class="st0" d="M762.62,394.89c2.39,0,2.39-3.71,0-3.71C760.23,391.18,760.23,394.89,762.62,394.89z"/>
			<path class="st0" d="M771.84,378.48c0.01-0.14,0.01-0.28,0.02-0.42c0.12-2.25-3.62-2.26-3.5,0c0.01,0.14,0.01,0.28,0.02,0.42
				C768.49,380.71,771.72,380.71,771.84,378.48z"/>
			<path class="st0" d="M794.57,368.52c0.22-1.83-0.34-3.68-0.85-5.42c-0.49-1.66-2.92-1.31-2.98,0.4
				c-0.07,1.82-0.15,3.74,0.52,5.46C791.96,370.79,794.35,370.43,794.57,368.52z"/>
			<path class="st0" d="M814.58,374.85c2.28,0,2.28-3.54,0-3.54C812.3,371.31,812.29,374.85,814.58,374.85z"/>
			<path class="st0" d="M823.29,385.76c0.14-0.11,0.28-0.21,0.44-0.29c0.84-0.49,1.07-1.38,0.93-2.28
				c-0.01-0.08-0.02-0.15-0.04-0.23c-0.2-1.25-1.75-1.58-2.7-1.1c-0.08,0.04-0.15,0.08-0.23,0.12c-0.58,0.29-1.06,1.09-1,1.74
				c0.03,0.18,0.04,0.37,0.03,0.55C820.72,385.48,822.21,386.54,823.29,385.76z"/>
			<path class="st0" d="M832.4,408.98c0.92,0.32,1.9,0.03,2.84-0.11c0.91-0.14,1.73-0.4,2.6-0.7c1.63-0.57,1.41-3.03-0.41-3.07
				c-0.96-0.02-1.84-0.01-2.79,0.14c-0.89,0.14-1.9,0.17-2.63,0.73C830.87,406.83,830.98,408.48,832.4,408.98z"/>
			<path class="st0" d="M833.28,417.69c-2.5,0-2.5,3.88,0,3.88C835.78,421.57,835.78,417.69,833.28,417.69z"/>
			<path class="st0" d="M824.31,430.44c-0.55-1.07-2.29-1.07-2.84,0c-0.06,0.11-0.11,0.21-0.16,0.32c-0.62,1.22,0.14,2.76,1.58,2.76
				c1.45,0,2.21-1.54,1.58-2.76C824.42,430.65,824.37,430.55,824.31,430.44z"/>
			<path d="M1090.67,431.93c0.72,0.74,1.5,1.43,2.39,2.03c0.44,0.29,0.9,0.29,1.33,0.15c3.87,1.86,8.23,2.79,12.73,2.44
				c13.76-1.06,26.86-12.81,23.54-27.34c-2.12-9.3-9.43-15.07-17.89-17.26c-0.03-0.58-0.34-1.14-0.99-1.3
				c-14.49-3.54-32.32,6.2-31.61,22.34C1080.51,420.85,1084.66,427.67,1090.67,431.93z M1125.05,406.3
				c6.1,12.14-4.68,23.1-16.37,25.15c-5.67,1-11.22-0.52-15.54-3.7c-3.27-6.3-4.34-12.8,0.24-19.58
				c4.32-6.39,14.92-11.78,22.78-9.79c0.42,0.11,0.79,0.01,1.08-0.19C1120.41,399.92,1123.14,402.5,1125.05,406.3z M1098.14,398.24
				c-0.58-0.83-1.34-1.6-2.19-2.13c0.17-0.08,0.34-0.15,0.52-0.23c1.84-0.26,3.71-0.45,5.6-0.53c0.07,0.15,0.16,0.3,0.3,0.43
				c0.12,0.11,0.24,0.23,0.35,0.34C1101.12,396.68,1099.6,397.4,1098.14,398.24z M1093.44,397.45c0,0.01,0,0.02,0,0.03
				c0.28,0.96,1.02,1.89,1.83,2.65c-0.76,0.58-1.47,1.22-2.17,1.88c-0.79-0.84-1.72-1.6-2.65-2.3
				C1091.38,398.88,1092.37,398.12,1093.44,397.45z M1088.23,402.08c0.79,0.86,1.66,1.74,2.58,2.44c-0.83,1.06-1.57,2.23-2.2,3.47
				c-0.9-0.52-1.84-0.95-2.8-1.34C1086.37,404.97,1087.18,403.44,1088.23,402.08z M1085.1,409.76c0.74,0.42,1.5,0.79,2.29,1.11
				c-0.8,2.25-1.3,4.64-1.43,7.05c-0.52-1.56-0.87-3.21-0.98-4.93C1084.91,411.86,1084.97,410.8,1085.1,409.76z"/>
			<path d="M1150.54,395.3c-3.47-3.24-8.01-2.12-11.68,0.06c-0.07-0.21-0.16-0.41-0.24-0.62c2.65-2.05,4.88-4.8,4.25-8.08
				c0.01-0.08,0.05-0.15,0.05-0.24c0.39-8.53-7.77-14.33-14-18.61c-0.36-0.24-0.73-0.27-1.07-0.16c-2.84-1.5-5.9-2.31-8.71-1.96
				c-0.42-0.23-0.93-0.3-1.43-0.07c-5.02,2.3-5.02,5.18-8.51,8.73c-2.56,2.61-9.01,2.74-12.62,3.53c-4.36,0.95-2.78,1.33-6.08-1.19
				c-1.18-0.9-1.93-2.41-3.14-3.38c-2.4-1.92-5.14-3.03-8.29-2.68c-6.32,0.7-16.04,8.39-18.37,14.18c-3.4,8.48,4.11,8.55,7.99,13.71
				c0.22,0.3,0.48,0.52,0.76,0.69c-1.65,3.88-5.52,7.6-5.45,11.54c-3.84-0.96-9.15,0.12-11.47,2.91
				c-3.17,3.82-0.89,12.52-0.08,16.87c0.48,2.57,1.13,5.32,2.39,7.58c0.87,3.89,3.34,8.24,6.77,9.82c4.34,2,10.47-0.57,14.78-2.67
				c1.14,0.56,2.75,1.25,3.08,1.8c0.79,1.29-0.92,4.97-1.06,6.46c-0.14,1.48-0.29,3.42,0.33,4.92c-0.41,3.14,0.09,6.04,3.26,7.65
				c4.7,2.39,12.68,3.83,17.95,3.9c3.62,0.05,9.59-1.98,11.39-5.42c0.98-1.87,0.67-4.45,0.74-6.43c0.06-1.82,0.13-3.64,0.2-5.47
				c0.16-0.4,0.21-0.85,0.03-1.23c0.02-0.71,0.02-1.43,0.03-2.14c0.17,0.02,0.33,0.03,0.53,0c5.72-1,8.21,4.28,11.92,7.43
				c0.26,0.71,0.7,1.38,1.32,1.93c2.44,2.21,6.13,1.44,8.97,0.61c7.94-2.31,13.23-10.88,17.05-17.92c0.7-0.09,1.33-0.59,1.23-1.42
				c-0.36-3.19-2.2-6.49-5.29-7.74c-0.61-1.58-1.57-3.03-2.81-4.12c3.32,0.05,6.79-0.28,8.84-2.24c2.79-2.66,2.53-7.57,2.84-11.07
				C1157.49,408.11,1159.33,396.81,1150.54,395.3z M1138.24,387.25c-0.3-0.39-0.58-0.82-0.86-1.25c0.09-0.22,0.17-0.43,0.25-0.65
				C1137.94,385.97,1138.15,386.61,1138.24,387.25z M1136.72,391.11c-0.24-0.35-1.06-1.13-1.57-1.76c0.11-0.06,0.25-0.19,0.41-0.38
				c0.46,0.68,1.03,1.29,1.67,1.81c-0.12,0.16-0.28,0.32-0.43,0.48C1136.78,391.2,1136.76,391.16,1136.72,391.11z M1060.85,442.83
				c1.29,0.29,2.65,0.29,3.98,0.05c0.47,0.76,1.1,1.44,1.83,1.9c-0.11,0.02-0.22,0.05-0.33,0.07
				C1064.24,445.19,1062.35,444.3,1060.85,442.83z M1069.25,442.57c-0.42-0.29-0.84-0.49-1.22-0.78c1.01-0.54,1.92-1.23,2.65-2.09
				c0.01,0.01,0.01,0.01,0.02,0.02c0.14,0.93,0.31,1.86,0.68,2.71c0.15,0.34,0.38,0.54,0.65,0.65c-0.69,0.26-1.38,0.52-2.07,0.76
				C1069.96,443.39,1069.76,442.92,1069.25,442.57z M1075.83,437.68c-1.29-1.03-2.4-1.67-3.6-1.95c-0.29-0.85-1.16-1.52-2.09-1.15
				c-0.81,0.32-1.43,0.56-2.15,0.95c-0.77,0.6-1.57,1.17-2.41,1.69c-2.07-0.48-4.14-0.95-6.21-1.43c-1.89-1.8-2.25-8.35-2.5-10.69
				c-0.22-2.1-1.19-6.27-0.12-8.04c1.27-2.09,7.13-1.64,9.27-2.48c0.27-0.1,0.48-0.26,0.65-0.45c0.41-0.07,0.83-0.23,1.21-0.54
				c1.77-1.39,1.94-3.51,2.91-5.46c0.9-1.83,2.17-3.44,3.04-5.29c1.33-2.83,1.18-6.13-1.44-8.06c-0.09-0.07-0.19-0.11-0.29-0.15
				c-3.38-3.21-7.82-3.89-4.05-11.15c1.3-2.5,6.44-5.94,8.98-6.53c6.02-1.39,9.07,2.41,11.5,7.04c0.5,0.96,1.95,1.61,3,1.22
				c6.31-2.35,12.5-3.64,19.21-4.24c1.04-0.09,2.25-0.72,2.46-1.87c0.68-3.79,2.56-7.17,5.15-9.98c4.25,0.64,7.95,3.49,10.95,6.4
				c1.37,1.33,2.89,2.98,3.31,4.94c0.79,3.71-1.28,3.5-2.72,5.95c-2.54,4.33,2.81,8.12,4.32,11.97c0.51,1.3,1.63,1.85,2.71,1.82
				c0.63,0.65,1.58,0.9,2.59,0.22c2.72-1.85,6.94-4.93,9.18,1.09c0.58,1.56,0.3,4.53,0.26,6.19c-0.04,1.7,0.23,3.79-0.22,5.41
				c-0.86,3.09-2.63,3.09-5.06,4.11c-1.71,0.72-3.52,1.13-4.63,2.8c-0.09,0.13-0.14,0.28-0.2,0.42c-1.76,2.33-2.84,5.67-0.98,7.88
				c0.21,0.24,0.51,0.39,0.84,0.46c0.09,0.19,0.22,0.37,0.41,0.52c1.3,1.01,2.98,1.71,4.07,2.95c2.32,2.63,1.72,6.41-0.4,8.87
				c-0.1,0.12-0.24,0.22-0.35,0.34c-0.21,0.08-0.4,0.18-0.55,0.33c-0.17,0.16-0.28,0.34-0.35,0.53c-1.94,1.71-4.4,3.09-6.37,4.69
				c-0.45,0.37-0.91,0.79-1.4,1.18c-0.8-0.2-1.78,0.21-1.89,1.1c-0.33,0.11-0.68,0.18-1.05,0.18c-2.95-0.01-3.16-2.67-4-4.72
				c-0.8-1.93-1.78-3.01-3.8-3.57c-0.49-0.13-1.01,0.01-1.44,0.3c-3.88-0.03-8.58,1.9-12.18,3.04c-1.81,0.58-3.7,1.48-4.54,3.09
				c-0.61,0.03-1.19,0.32-1.49,0.95c-0.92,1.91-0.55,3.91-0.64,5.99c-0.04,1.07-0.04,3.48-0.88,4.73
				c-6.02-0.44-17.59,0.89-17.73-7.34c-0.05-3.12,2.1-5.18-0.16-8.02c-0.82-1.03-2.04-1.36-3.11-2.02
				C1078.95,440.72,1077.57,439.08,1075.83,437.68z M1142.74,424.5c0.01-0.89-0.85-1.13,1.15-2.52c0.63,0.82,1.16,1.7,1.79,2.54
				C1144.72,424.55,1143.72,424.52,1142.74,424.5z M1148.73,437c0.55,0.63,0.97,1.36,1.29,2.19c-1.38,1.6-2.66,3.3-3.89,5.04
				c-0.16-0.19-0.32-0.38-0.48-0.56C1147.33,441.82,1148.51,439.67,1148.73,437z M1107.39,454.55c0.09-0.84,0.2-1.71,0.21-2.57
				c0.39,0.29,0.79,0.56,1.21,0.81c-0.05,1.07-0.1,2.14-0.14,3.21c-0.01,0.27-0.02,0.54-0.03,0.8c-0.44-0.53-0.88-1.06-1.33-1.58
				l0,0C1107.33,454.99,1107.36,454.77,1107.39,454.55z M1108.86,449.13c0.06-0.03,0.13-0.06,0.19-0.09c0,0.06-0.01,0.11-0.01,0.17
				C1108.98,449.17,1108.92,449.15,1108.86,449.13z M1119.86,446.54c-0.11,0.3-0.08,0.59,0,0.87c-0.34-0.22-0.69-0.43-1.05-0.62
				C1119.16,446.72,1119.51,446.63,1119.86,446.54z M1083.8,462.58c2.61,1,5.81,1.51,8.96,1.68c0.05,0.4,0.15,0.79,0.29,1.16
				c-1.14-0.27-2.27-0.55-3.39-0.81C1087.5,464.12,1085.33,463.68,1083.8,462.58z M1096.73,466.12c0.08-0.27,0.1-0.55,0.01-0.82
				c-0.11-0.34-0.24-0.66-0.37-0.98c1.22-0.03,2.37-0.1,3.43-0.21c0.16,0.71,0.38,1.4,0.68,2.01c0.02,0.04,0.05,0.06,0.07,0.1
				C1099.28,466.35,1098.01,466.29,1096.73,466.12z M1103.25,465.65c0.02-0.1,0.06-0.19,0.06-0.3c0.01-0.56-0.07-1.17-0.2-1.77
				c0.02-0.01,0.05-0.01,0.07-0.02c0.85-0.21,1.3-0.74,1.46-1.35c0.65-0.59,1.2-1.31,1.56-2.14c0.08-0.19,0.13-0.38,0.2-0.57
				c0.5,0.63,1.1,1.18,1.74,1.67C1107.57,463.25,1106.29,464.67,1103.25,465.65z M1121.4,448.56c0.34-0.01,0.69-0.12,1-0.42
				c0.07-0.07,0.12-0.14,0.19-0.21c0.2,0.86,0.44,1.72,0.83,2.51C1122.79,449.78,1122.11,449.15,1121.4,448.56z M1128.08,454.3
				c0.32,0.1,0.63,0.22,0.95,0.28c1.48,0.28,2.74,0.1,3.89-0.35c0.23,0.52,0.49,1.03,0.82,1.5c0.06,0.08,0.14,0.13,0.21,0.2
				C1131.11,456.7,1127.28,457.17,1128.08,454.3z M1136.59,455.03c-0.01-0.15-0.02-0.3-0.08-0.47c-0.26-0.7-0.53-1.38-0.78-2.06
				c0.81-0.67,1.59-1.44,2.37-2.2c0.44,0.89,0.98,1.71,1.63,2.43c-0.89,0.88-1.88,1.66-3.09,2.28
				C1136.62,455.01,1136.6,455.02,1136.59,455.03z M1142.54,449.34c-0.23,0.31-0.46,0.6-0.68,0.9c-0.51-0.68-0.99-1.37-1.39-2.12
				c0.16-0.13,0.33-0.27,0.5-0.39c0.8-0.59,1.58-1.21,2.34-1.84c0.28,0.39,0.57,0.76,0.87,1.13
				C1143.64,447.8,1143.1,448.57,1142.54,449.34z M1148.72,424.08c-0.02,0.01-0.05,0.01-0.08,0.02c0.03-0.21,0.02-0.45-0.06-0.71
				c-0.25-0.81-0.66-1.54-1.13-2.23c0.17-0.03,0.36-0.05,0.5-0.09c0.52-0.16,0.97-0.35,1.4-0.56c0.14,0.42,0.29,0.82,0.48,1.18
				c0.35,0.68,1.08,0.87,1.72,0.69C1150.92,423.06,1150.02,423.64,1148.72,424.08z M1153.23,414.8c-0.17,2.04-0.06,3.96-0.55,5.57
				c-0.08-0.77-0.28-1.56-0.55-2.32c1.29-2.14,1.28-5.03,1.4-8.19c0.08-2.19,0.26-4.77,0.03-7.27
				C1154.62,406.38,1153.51,411.34,1153.23,414.8z"/>
			<path class="st0" d="M934.86,363.57c-4.18,2.78-8.89,7.44-8.67,12.83c0.06,1.58,1.97,3.08,3.46,1.99
				c2.91-2.14,4.67-5.31,7.21-7.84c2.18-2.17,6.67-6.65,10-6.74c1.36-0.04,2.16-1.74,1.13-2.74
				C944.8,357.98,937.91,361.54,934.86,363.57z"/>
			<path class="st0" d="M940,371.44c-4.74,0.42-7.84,5.7-8.64,9.91c-0.48,2.5,2.8,3.31,3.74,1.03c0.69-1.66,1.72-3.23,2.82-4.63
				c1.06-1.36,2.49-2.6,3.35-4.08C941.8,372.76,941.15,371.34,940,371.44z"/>
			<path class="st0" d="M916.49,496.09c-5.09,15.04-5.8,30.78-2.32,46.24c0.47,2.09,3.91,1.67,3.77-0.51
				c-0.95-15.25-0.41-30.18,1.57-45.33C919.75,494.7,917.02,494.54,916.49,496.09z"/>
			<path class="st0" d="M922.15,518.19c-1.83,11.46-0.44,23.77,2.26,34.99c0.51,2.12,4.18,1.73,3.9-0.53
				c-1.41-11.34-1.96-22.79-3.42-34.09C924.71,517.17,922.43,516.48,922.15,518.19z"/>
		</g>
	</g>
</g>
</svg>
