<?xml version="1.0" encoding="utf-8"?>
<!-- Generator: Adobe Illustrator 27.0.0, SVG Export Plug-In . SVG Version: 6.00 Build 0)  -->
<svg version="1.1" xmlns="http://www.w3.org/2000/svg" xmlns:xlink="http://www.w3.org/1999/xlink" x="0px" y="0px"
	 viewBox="0 0 1920 1080" style="enable-background:new 0 0 1920 1080;" xml:space="preserve">
<style type="text/css">
	.st0{fill:#FFFFFF;}
</style>
<g id="Layer_1">
</g>
<g id="dizajn">
	<g>
		<g>
			<g>
				<path d="M704.9,704.06c3.85,0,3.85-5.98,0-5.98C701.05,698.08,701.05,704.06,704.9,704.06L704.9,704.06z"/>
			</g>
			<g>
				<g>
					<path class="st0" d="M966.42,155.35c-28.67-11.51-32.99,33.15-25.96,50.39c10.46,25.65,46.59,21.17,57.71-1.56
						c1.72-3.52-2.71-7.54-5.69-4.39c-10.29,10.92-28.48,24.63-41.42,7.8c-4.94-6.42-5.93-15.37-5.85-23.32
						c0.11-10.88,5.06-27.55,19.55-22.94C968.66,162.58,970.03,156.8,966.42,155.35L966.42,155.35z"/>
				</g>
				<g>
					<path class="st0" d="M931.02,180.63c4.01-1.69,8.12-3.26,11.96-5.31c3.65-1.95,1.22-7.17-2.64-5.81
						c-4.11,1.45-8.04,3.42-11.99,5.25C924.58,176.5,927.19,182.23,931.02,180.63L931.02,180.63z"/>
				</g>
				<g>
					<path class="st0" d="M927.87,196.19c4.2-1.78,8.42-3.77,12.36-6.07c3.49-2.04,1.13-7.36-2.7-5.75
						c-4.21,1.77-8.33,3.95-12.28,6.24C921.85,192.58,924.16,197.76,927.87,196.19L927.87,196.19z"/>
				</g>
				<g>
					<path class="st0" d="M930.09,212.87c5.57-2.65,10.16-6.68,13.56-11.83c2.29-3.47-3.08-6.36-5.46-3.19
						c-3.05,4.05-6.77,7.26-11.2,9.72C923.49,209.52,926.56,214.55,930.09,212.87L930.09,212.87z"/>
				</g>
				<g>
					<path class="st0" d="M936.22,222.83c5.59-2.69,10.22-6.74,13.46-12.04c2.13-3.49-3.16-6.47-5.43-3.17
						c-2.92,4.25-6.55,7.53-11.16,9.87C929.53,219.3,932.66,224.55,936.22,222.83L936.22,222.83z"/>
				</g>
				<g>
					<g>
						<path class="st0" d="M699.03,216.49c-10.7-9.93-16.59,3.31-17.72,12.92c-4.9,41.64-0.41,86.63-0.6,128.59
							c-0.37,84.25-0.81,168.5-1.17,252.75c-0.18,41.39-0.35,82.77-0.53,124.16c-0.04,8.57-4.03,27.52,2.21,35.33
							c5.21,6.53,19.07,5.88,26.58,6.71c41.42,4.61,83.39,1.82,124.94,0.95c40.82-0.85,81.66-1.32,122.49-1.4
							c46.67-0.09,93.33,0.41,139.99,1.29c16.22,0.31,62.3,10.1,64.8-15.94c0.45-4.72-6.89-4.67-7.36,0
							c-1.73,17.19-108.54,7.55-123.06,7.43c-40.83-0.35-81.67-0.33-122.5,0.06c-40.73,0.4-81.44,1.42-122.16,2.31
							c-20.02,0.44-40.08,0.72-60.08-0.59c-17.47-1.14-34.51,3.2-38.58-18.42c-1.79-9.54,0.09-21.29,0.12-31.04
							c0.33-82.77,0.68-165.54,0.96-248.32c0.14-41.39,0.28-82.77,0.44-124.16c0.08-20.69,0.16-41.39,0.24-62.08
							c0.04-10.35,0.08-20.69,0.12-31.04c0.01-1.62,0.41-40.1,6.54-35.2C697.7,223.21,701.98,219.23,699.03,216.49L699.03,216.49z"
							/>
					</g>
					<g>
						<path class="st0" d="M697.41,223.17c-4.51,3.57-8.94,7.26-13.26,11.05c-3.08,2.71,1.37,6.99,4.46,4.46
							c4.44-3.64,8.79-7.41,13.05-11.27C704.57,224.76,700.36,220.83,697.41,223.17L697.41,223.17z"/>
					</g>
					<g>
						<path class="st0" d="M700.38,234.89c-6.67,4.66-13.4,10.47-19.08,16.29c-2.62,2.69,1.59,6.7,4.47,4.6
							c6.56-4.79,13.2-10.71,18.74-16.64C706.91,236.58,703.07,233.01,700.38,234.89L700.38,234.89z"/>
					</g>
					<g>
						<path class="st0" d="M699.77,251.04c-7.69,4.86-14.71,11.52-19.54,19.27c-2.14,3.42,2.44,7.24,5.05,3.94
							c5.45-6.9,11.25-12.92,18.3-18.21C706.87,253.57,703.14,248.91,699.77,251.04L699.77,251.04z"/>
					</g>
					<g>
						<path class="st0" d="M700.15,268.39c-7.15,4.01-13.69,9.82-17.48,17.2c-1.91,3.71,3.19,6.62,5.55,3.24
							c4.19-6,8.78-11.2,15.03-15.14C706.59,271.59,703.61,266.45,700.15,268.39L700.15,268.39z"/>
					</g>
					<g>
						<path class="st0" d="M698.19,285.28c-4.67,5.64-9.71,10.86-15.08,15.83c-3.07,2.84,1.39,7.05,4.51,4.51
							c5.9-4.8,10.99-10.43,15.41-16.61C705.05,286.19,700.42,282.58,698.19,285.28L698.19,285.28z"/>
					</g>
					<g>
						<path class="st0" d="M701.35,299.89c-6.17,5.72-12.37,11.41-18.26,17.44c-2.93,3.01,1.51,7.4,4.59,4.59
							c6.22-5.67,12.12-11.67,18.06-17.64C708.58,301.44,704.28,297.18,701.35,299.89L701.35,299.89z"/>
					</g>
					<g>
						<path class="st0" d="M698.3,317.87c-6.21,6.8-9.81,10.81-15.7,17.9c-2.58,3.11,1.71,7.59,4.51,4.51
							c6.2-6.82,9.68-10.94,15.55-18.04C705.15,319.22,701.02,314.9,698.3,317.87L698.3,317.87z"/>
					</g>
					<g>
						<path class="st0" d="M699.34,335.33c-6.59,6.94-10.49,12.86-16.71,20.13c-2.64,3.08,1.63,7.5,4.51,4.51
							c6.64-6.89,10.3-13.03,16.57-20.26C706.31,336.73,702.12,332.41,699.34,335.33L699.34,335.33z"/>
					</g>
					<g>
						<path class="st0" d="M698.25,356.78c-5.85,6.08-11.39,12.49-16.81,18.96c-2.61,3.11,1.69,7.59,4.52,4.53
							c5.72-6.2,11.37-12.53,16.66-19.1C705.06,358.13,701.07,353.84,698.25,356.78L698.25,356.78z"/>
					</g>
					<g>
						<path class="st0" d="M697.69,380.62c-5.65,5.12-10.98,10.7-16.16,16.3c-2.82,3.05,1.56,7.47,4.57,4.57
							c5.51-5.27,10.99-10.71,16.01-16.45C704.77,382.02,700.7,377.9,697.69,380.62L697.69,380.62z"/>
					</g>
					<g>
						<path class="st0" d="M696.19,401.84c-3.83,3.74-7.74,7.42-11.36,11.37c-2.74,2.99,1.46,7.18,4.44,4.44
							c3.95-3.62,7.63-7.52,11.37-11.35C703.49,403.39,699.1,399,696.19,401.84L696.19,401.84z"/>
					</g>
					<g>
						<path class="st0" d="M697.99,419.86c-4.03,4.1-8,8.25-11.79,12.58c-2.68,3.06,1.62,7.48,4.51,4.51
							c4.01-4.13,7.84-8.41,11.61-12.76C704.87,421.24,700.78,417.02,697.99,419.86L697.99,419.86z"/>
					</g>
					<g>
						<path class="st0" d="M695.9,440.54c-4.36,4.84-8.77,9.64-12.82,14.74c-2.49,3.13,1.64,7.58,4.51,4.51
							c4.46-4.76,8.55-9.83,12.7-14.86C702.79,441.9,698.61,437.53,695.9,440.54L695.9,440.54z"/>
					</g>
					<g>
						<path class="st0" d="M694.4,460.12c-3.96,4.5-8.19,8.89-11.74,13.73c-2.18,2.97,2.5,6.35,5.01,3.86
							c4.05-4.03,7.58-8.7,11.26-13.07C701.55,461.53,697.15,457.01,694.4,460.12L694.4,460.12z"/>
					</g>
					<g>
						<path class="st0" d="M694.84,481.61c-4.31,4.77-8.64,9.54-12.53,14.67c-2.2,2.89,2.55,6.43,4.99,3.85
							c4.24-4.47,8.05-9.36,11.89-14.17C701.59,482.93,697.55,478.62,694.84,481.61L694.84,481.61z"/>
					</g>
					<g>
						<path class="st0" d="M695.54,500.17c-3.94,4.16-9.46,9.47-13.01,13.97c-2.5,3.16,1.49,7.5,4.54,4.54
							c4.12-3.99,9.11-9.79,12.85-14.13c2.57-2.99,0.76-9.78-2.01-6.85L695.54,500.17z"/>
					</g>
					<g>
						<path class="st0" d="M696.65,519.58c-6.12,4.26-11.69,9.55-15.46,16.04c-2.06,3.55,3.1,6.39,5.41,3.16
							c3.79-5.31,7.84-10.05,13.15-13.91C702.87,522.59,699.91,517.31,696.65,519.58L696.65,519.58z"/>
					</g>
					<g>
						<path class="st0" d="M696.16,540.64c-5.04,4.66-8.24,7.14-13.04,12.06c-2.85,2.93,1.41,7.07,4.44,4.44
							c5.19-4.5,8-7.38,12.95-12.14c2.87-2.76,0.58-9.11-2.33-6.42L696.16,540.64z"/>
					</g>
					<g>
						<path class="st0" d="M696.55,556.36c-5.54,5.82-9.9,9.76-15.03,15.95c-2.56,3.1,1.54,7.43,4.49,4.49
							c5.71-5.67,9.6-10.04,14.9-16.09C703.5,557.76,699.31,553.46,696.55,556.36L696.55,556.36z"/>
					</g>
					<g>
						<path class="st0" d="M697.92,577.14c-6.84,5.19-12.66,10.4-17.36,17.65c-1.92,2.96,2.64,6.6,4.95,3.82
							c5.2-6.24,9.83-11.47,16.16-16.61c2.7-2.19-0.35-7.73-3.16-5.6L697.92,577.14z"/>
					</g>
					<g>
						<path class="st0" d="M697.76,594.94c-5.72,6.57-11.64,13.03-16.8,20.05c-2.16,2.93,2.56,6.46,5.01,3.86
							c5.8-6.14,10.92-12.93,16.19-19.52C704.6,596.27,700.43,591.88,697.76,594.94L697.76,594.94z"/>
					</g>
					<g>
						<path class="st0" d="M698.44,616.58c-6,7.43-12.34,14.67-17.75,22.56c-2.04,2.98,2.62,6.6,5.03,3.88
							c6.34-7.16,11.81-15.08,17.57-22.7C705.37,617.54,700.64,613.85,698.44,616.58L698.44,616.58z"/>
					</g>
					<g>
						<path class="st0" d="M697.71,640.28c-6.59,5.59-12.78,12.16-17.07,19.71c-1.74,3.06,2.73,6.87,5.06,3.91
							c5.24-6.67,10.34-13.26,16.41-19.23C704.99,641.82,700.72,637.72,697.71,640.28L697.71,640.28z"/>
					</g>
					<g>
						<path class="st0" d="M697.85,663.19c-5.2,6-10.66,11.87-15.35,18.29c-2.17,2.97,2.58,6.53,5.06,3.91
							c5.27-5.58,9.86-11.84,14.64-17.84C704.64,664.51,700.49,660.14,697.85,663.19L697.85,663.19z"/>
					</g>
					<g>
						<path class="st0" d="M699.54,684.34c-5.65,5.99-11.89,11.82-16.78,18.46c-2.26,3.07,2.48,6.24,5.06,3.91
							c5.91-5.33,10.88-11.98,16.09-17.99C706.5,685.74,702.3,681.41,699.54,684.34L699.54,684.34z"/>
					</g>
					<g>
						<path class="st0" d="M699.58,707.13c-7.9,7.04-15.06,15.56-19.19,25.38c-1.43,3.41,3.99,5.4,5.81,2.45
							c5.26-8.54,8.43-15.96,15.82-22.87C704.98,709.31,702.59,704.46,699.58,707.13L699.58,707.13z"/>
					</g>
					<g>
						<path class="st0" d="M694.16,730.38c-3.87,5.3-7.91,10.66-11.29,16.29c-1.81,3.02,2.75,6.8,5.03,3.88
							c4.2-5.4,7.92-11.28,11.63-17.03C701.73,730.1,696.47,727.22,694.16,730.38L694.16,730.38z"/>
					</g>
					<g>
						<path class="st0" d="M704.07,752.23c-4.62,5.46-9.38,11.01-13.42,16.92c-2.06,3.01,2.62,6.62,5.06,3.91
							c4.78-5.31,9.05-11.27,13.26-17.05C711.04,753.17,706.35,749.53,704.07,752.23L704.07,752.23z"/>
					</g>
					<g>
						<path class="st0" d="M725.62,753.34c-4.2,5.54-8.42,11.48-11.88,17.51c-2.1,3.66,3.07,6.34,5.49,3.21
							c4.25-5.5,8.13-11.66,11.64-17.65C732.9,752.94,727.91,750.31,725.62,753.34L725.62,753.34z"/>
					</g>
					<g>
						<path class="st0" d="M743.18,753.18c-3.99,5.82-7.84,11.74-11.37,17.85c-2.06,3.57,3.19,6.52,5.47,3.19
							c3.98-5.82,7.65-11.86,11.17-17.97C750.42,752.81,745.37,749.97,743.18,753.18L743.18,753.18z"/>
					</g>
					<g>
						<path class="st0" d="M760.78,753.2c-3.31,5.91-6.66,11.82-9.68,17.88c-1.78,3.58,3.36,6.68,5.41,3.16
							c3.41-5.86,6.48-11.91,9.59-17.93C767.92,752.8,762.73,749.71,760.78,753.2L760.78,753.2z"/>
					</g>
					<g>
						<path class="st0" d="M781.56,750.79c-5.2,6.02-9.12,13-10.73,20.84c-0.81,3.97,4.9,5.61,6.1,1.68
							c2.01-6.56,4.77-12.7,9.02-18.13C788.35,752.11,784.22,747.7,781.56,750.79L781.56,750.79z"/>
					</g>
					<g>
						<path class="st0" d="M797.87,751.97c-5.56,7.05-10.07,14.51-13.24,22.93c-1.28,3.38,4.39,5.82,5.89,2.48
							c3.41-7.58,7.38-14.88,12.29-21.6C804.88,752.92,800.08,749.17,797.87,751.97L797.87,751.97z"/>
					</g>
					<g>
						<path class="st0" d="M820.2,749.72c-5.03,6.08-9.02,12.69-11.7,20.12c-1.39,3.85,4.51,5.26,6.01,1.66
							c2.59-6.2,5.87-12.15,10.02-17.45C826.9,751,822.73,746.65,820.2,749.72L820.2,749.72z"/>
					</g>
					<g>
						<path class="st0" d="M838.99,750.9c-4.97,5.41-8.96,12.01-10.78,19.18c-1.01,4.02,4.69,5.44,6.1,1.68
							c2.27-6.01,5.02-11.43,9.1-16.44C845.91,752.27,841.77,747.88,838.99,750.9L838.99,750.9z"/>
					</g>
					<g>
						<path class="st0" d="M858.33,751.58c-3.07,6.63-6.05,13.29-8.85,20.03c-1.36,3.27,4.27,5.67,5.76,2.43
							c3.05-6.64,5.9-13.35,8.68-20.11C865.24,750.76,859.79,748.44,858.33,751.58L858.33,751.58z"/>
					</g>
					<g>
						<path class="st0" d="M879.54,750.93c-5.24,6.17-8.72,13.4-9.52,21.51c-0.34,3.47,5.39,4.24,6.1,0.83
							c1.37-6.57,3.59-12.64,7.77-17.97C886.3,752.24,882.15,747.86,879.54,750.93L879.54,750.93z"/>
					</g>
					<g>
						<path class="st0" d="M900.62,748.79c-4.92,6.56-8.19,13.95-9.58,22.03c-0.68,3.93,5.21,5.69,6.08,1.68
							c1.62-7.45,4.51-14.3,8.85-20.58C908.26,748.59,902.96,745.68,900.62,748.79L900.62,748.79z"/>
					</g>
					<g>
						<path class="st0" d="M921.94,750.21c-6.46,4.06-10.91,10.89-12.45,18.31c-0.82,3.96,5.11,5.66,6.1,1.68
							c1.59-6.37,5.03-11.08,10.02-15.22C928.28,752.77,924.83,748.39,921.94,750.21L921.94,750.21z"/>
					</g>
					<g>
						<path class="st0" d="M941.91,750.54c-5.49,6.23-9.88,13.6-11.78,21.75c-0.92,3.93,4.8,5.5,6.04,1.66
							c2.28-7.05,5.28-13.36,10.14-19.02C948.89,751.92,944.57,747.52,941.91,750.54L941.91,750.54z"/>
					</g>
					<g>
						<path class="st0" d="M955.64,751.53c-2.95,6.68-6.02,13.33-8.64,20.14c-1.29,3.35,4.29,5.72,5.83,2.46
							c3.1-6.61,5.78-13.43,8.56-20.18C962.73,750.69,957.08,748.28,955.64,751.53L955.64,751.53z"/>
					</g>
					<g>
						<path class="st0" d="M978.07,749.78c-3.81,7.01-7.81,13.95-11.32,21.12c-1.76,3.6,3.36,6.7,5.42,3.17
							c4.03-6.88,7.61-14.06,11.34-21.11C985.42,749.39,980.02,746.21,978.07,749.78L978.07,749.78z"/>
					</g>
					<g>
						<path class="st0" d="M995.93,751.41c-2.76,4.83-5.59,9.64-8.1,14.61c-1.82,3.6,3.34,6.69,5.45,3.18
							c2.87-4.78,5.43-9.73,8.04-14.65C1003.19,751.02,997.93,747.91,995.93,751.41L995.93,751.41z"/>
					</g>
					<g>
						<path class="st0" d="M1017.13,755.54c-1.79,4.83-4.09,9.22-6.78,13.6c-1.88,3.05,2.75,6.84,5.08,3.92
							c3.72-4.67,6.38-10.03,7.78-15.84C1024.18,753.21,1018.53,751.77,1017.13,755.54L1017.13,755.54z"/>
					</g>
					<g>
						<path class="st0" d="M1039.86,754.71c-3.14,5.46-6.21,11.1-8.6,16.93c-1.45,3.53,4.12,5.58,6,2.53
							c3.14-5.12,5.72-10.73,8.15-16.22C1047.05,754.26,1041.97,751.04,1039.86,754.71L1039.86,754.71z"/>
					</g>
					<g>
						<path class="st0" d="M1062.3,753.19c-3.46,5.77-5.85,12.58-5.62,19.39c0.12,3.48,5.84,4.66,6.4,0.87
							c0.89-6.01,1.93-11.59,4.61-17.11C1069.42,752.77,1064.39,749.71,1062.3,753.19L1062.3,753.19z"/>
					</g>
					<g>
						<path class="st0" d="M1084.93,756.21c-3.61,4.71-5.63,10.48-4.94,16.43c0.48,4.15,6.32,4.32,6.59,0
							c0.3-4.77,1.4-9.08,4.04-13.11C1093,755.9,1087.43,752.95,1084.93,756.21L1084.93,756.21z"/>
					</g>
					<g>
						<path class="st0" d="M1107.56,757.58c-3.28,4.68-5.57,10.66-4.83,16.46c0.52,4.03,6.07,4.17,6.38,0
							c0.44-5.91,1.16-11.55,3.83-13.31C1116.34,758.49,1109.83,754.33,1107.56,757.58L1107.56,757.58z"/>
					</g>
					<g>
						<path class="st0" d="M1124.62,759.46c-0.99,2.74-2.03,9.63-2.92,12.4c-1.25,3.91,4.55,5.28,6.01,1.66
							c1.09-2.7,2.04-9.63,3.03-12.37C1132.14,757.3,1126,755.64,1124.62,759.46L1124.62,759.46z"/>
					</g>
					<g>
						<path class="st0" d="M1139.97,760.43c-0.05,1.63-0.52,6.28-0.48,7.9c0.1,4.06,6.2,4.06,6.31,0c0.04-1.63,0.53-6.28,0.48-7.9
							c-0.13-4.06-6.17-2.55-6.31,1.51V760.43z"/>
					</g>
				</g>
				<g>
					<g>
						<path d="M1194.24,199.48c-0.36,13.79-0.78,27.59-0.92,41.38c-0.04,4.08,6.18,4.06,6.33,0c0.49-13.79,0.69-27.59,0.97-41.38
							C1200.69,195.37,1194.34,195.38,1194.24,199.48L1194.24,199.48z"/>
					</g>
					<g>
						<path d="M1206.26,200.34c-1.25,31.82-1.1,63.61-3.04,95.43c-0.27,4.35,6.37,4.27,6.73,0c2.65-31.55,4.61-63.8,2.37-95.43
							C1212.03,196.48,1206.41,196.41,1206.26,200.34L1206.26,200.34z"/>
					</g>
					<g>
						<path d="M1188.46,623.46c-0.31,44.46-0.58,89,0.51,133.45c0.1,4.25,6.55,4.26,6.61,0c0.66-44.45-0.05-89-0.79-133.45
							C1194.72,619.39,1188.49,619.38,1188.46,623.46L1188.46,623.46z"/>
					</g>
					<g>
						<path d="M1199.04,692.72c0.35,20.83,0.49,41.7,1.57,62.5c0.22,4.19,6.57,4.25,6.56,0c-0.04-20.83-1.02-41.68-1.78-62.5
							C1205.25,688.65,1198.97,688.62,1199.04,692.72L1199.04,692.72z"/>
					</g>
					<g>
						<path d="M1230.26,731.01c-35.81,0.56-71.55-0.21-107.28-2.69c-4.08-0.28-4.03,6.01,0,6.33c35.74,2.85,71.45,3.85,107.28,2.6
							C1234.25,737.1,1234.28,730.94,1230.26,731.01L1230.26,731.01z"/>
					</g>
					<g>
						<path d="M728.09,192.72c-0.3,10.42-0.65,20.83-0.83,31.25c-0.07,3.98,6.02,3.96,6.17,0c0.38-10.41,0.59-20.83,0.85-31.25
							C734.38,188.74,728.2,188.74,728.09,192.72L728.09,192.72z"/>
					</g>
					<g>
						<path d="M742.12,194.36c1.23,26.57,1.25,52.91-0.82,79.43c-0.33,4.17,6.07,4.09,6.47,0c2.57-26.43,3.03-52.98,0.52-79.43
							C747.91,190.48,741.93,190.34,742.12,194.36L742.12,194.36z"/>
					</g>
					<path d="M1239.75,193.39c0.03-2.32-2.08-3.2-3.8-2.72c-0.03,0-0.05-0.01-0.08-0.01c-77.87,7.74-156.82,4.75-235.14,3.55
						c0.01-0.39,0.06-0.74,0.06-1.13c0.18-23.07-18.93-42.21-42.05-42.27c-22.87-0.06-40.15,20.69-39.62,42.63
						c-26.83-0.2-53.65-0.4-80.48-0.76c-45.02-0.59-91.97-6.62-136.72-1.36c-0.75,0.09-1.31,0.43-1.77,0.85
						c-1.51,0.01-2.94,0.98-2.83,2.96c5.41,93.66-0.05,186.9-2.16,280.55c-2.09,92.68,6.65,185.02,0.67,277.65
						c0,0.05,0.02,0.09,0.02,0.14c-0.61,1.9,0.33,4.27,2.9,4.15c88.22-4.29,176.35-6.57,264.68-4.28
						c89.08,2.31,178.04,8.85,267.2,6.03c2.27-0.07,3.34-1.95,3.24-3.71c0.22-0.45,0.36-0.96,0.31-1.6
						C1221.71,567.58,1237.38,379.98,1239.75,193.39z M927.81,182.45c3.6-10.45,11.41-19.22,22.62-22.36
						c16.16-4.52,34.72,5.39,39.96,21.26c7.17,21.73-5.83,42.05-28.85,42.87c-13.83,0.49-27.17-6.28-31.87-17.83
						c-1.37-1.99-2.22-4.14-2.81-6.48c0.17,0,0.35,0,0.52,0.01c-0.58-1.33-0.95-2.75-1.23-4.21c-0.06-0.8-0.16-1.59-0.17-2.41
						c0.01-0.34-0.01-0.69-0.01-1.03c-0.02-0.08-0.04-0.11-0.06-0.21C924.81,188.71,925.76,185.16,927.81,182.45z M963.45,746.55
						c-86.84-2.25-173.99-1.3-260.69,4.41c5.69-91.83-2.83-183.39-0.76-275.28c2.09-92.72,9.19-185.77,1.66-278.41
						c44.3-4.72,90.5,1.14,135,1.73c26.93,0.36,53.86,0.59,80.79,0.82c-1.01,36.84,73.08,47.97,80.68,0.9
						c77.76,1.28,156.08,3.88,233.49-2.85c-7.75,183.91-17.83,370.94-6.27,554.76C1139.3,755.2,1051.44,748.83,963.45,746.55z"/>
				</g>
			</g>
		</g>
		<g>
			<path class="st0" d="M982.1,531.94c-16.68,5.94-33.11,12.47-49.4,19.4c1,1.71,2,3.42,3,5.13c16.25-8.52,31.9-17.4,45.56-29.77
				c2.74-2.48-0.75-6.03-3.66-4.74c-18.76,8.25-37.51,16.51-56.27,24.77c1.02,1.75,2.05,3.51,3.07,5.26
				c20.67-13.12,41.05-26.5,59.9-42.17c2.9-2.41-0.8-6.23-3.76-4.87c-17.64,8.12-35.27,16.24-52.91,24.36
				c1.05,1.8,2.1,3.59,3.15,5.39c17.77-13.16,35.55-26.3,53.33-39.43c2.76-2.04,1.27-6.84-2.46-5.84
				c-16.8,4.52-32.26,11.05-47.21,19.94c1.31,1.7,2.62,3.39,3.92,5.08c13.42-10.64,26.84-21.27,40.26-31.91
				c2.41-1.91,0.21-5.39-2.3-5.55c-13.52-0.89-26.57,8.84-38.39,14.59c1.32,1.71,2.64,3.42,3.96,5.13
				c13.47-11.52,26.25-23.65,38.44-36.52c2.15-2.27,0.05-6.55-3.19-5.48c-12.5,4.09-23.58,10.01-34.95,16.6
				c1.33,1.72,2.66,3.45,3.99,5.17c10.38-9.72,20.77-19.44,31.15-29.16c2.31-2.16-0.08-6.72-3.22-5.53
				c-10.09,3.82-19.5,8.37-28.72,14.03c1.51,1.51,3.03,3.03,4.54,4.54c5.5-7.18,11.05-14.33,16.47-21.58
				c2.21-2.95-2.85-6.91-5.15-3.97c-5.75,7.35-11.38,14.79-17.05,22.21c-2.08,2.72,1.88,6.17,4.54,4.54
				c8.77-5.38,17.47-9.72,27.13-13.38c-1.07-1.84-2.15-3.68-3.22-5.53c-10.38,9.73-20.75,19.46-31.13,29.18
				c-2.75,2.58,0.78,7.04,3.99,5.17c10.79-6.26,21.48-12.05,33.38-15.96c-1.06-1.83-2.13-3.66-3.19-5.48
				c-12.19,12.87-24.95,25.02-38.42,36.54c-2.97,2.55,0.81,6.66,3.96,5.13c9.7-4.73,24.26-14.43,35.09-13.72
				c-0.77-1.85-1.53-3.7-2.3-5.55c-13.41,10.64-26.83,21.29-40.24,31.93c-2.92,2.31,0.83,6.93,3.92,5.08
				c14.45-8.6,29.41-14.95,45.64-19.37c-0.82-1.95-1.64-3.89-2.46-5.84c-17.74,13.2-35.5,26.39-53.26,39.56
				c-3.22,2.39-0.54,7.09,3.15,5.39c17.63-8.13,35.26-16.26,52.88-24.39c-1.25-1.62-2.51-3.25-3.76-4.87
				c-18.45,15.35-38.42,28.36-58.59,41.29c-3.37,2.16-0.45,6.82,3.07,5.26c18.75-8.27,37.5-16.54,56.24-24.82
				c-1.22-1.58-2.44-3.16-3.66-4.74c-13.3,12.09-28.53,20.53-44.28,28.91c-3.45,1.83-0.42,6.62,3,5.13
				c15.77-6.89,31.72-13.29,47.81-19.4C986.67,535.87,985.36,530.79,982.1,531.94L982.1,531.94z"/>
		</g>
		<g>
			<path class="st0" d="M969.55,418.02c3.86-5.05,7.51-10.25,11.11-15.48c1.9-2.76-1.73-5.74-4.34-4.34
				c-8.85,4.72-17.25,10.1-25.31,16.07c1.31,1.7,2.62,3.39,3.93,5.09c6.04-6.06,12.27-11.97,18.16-18.17
				c3.18-3.34,6.43-6.19,4.6-11.02c-0.75-2-2.93-3.2-4.95-2.01c-7.93,4.66-15.7,9.58-23.35,14.69c1.38,1.79,2.76,3.58,4.14,5.37
				c8.08-8.45,16.17-16.91,24.26-25.35c2.3-2.4,0.04-6.94-3.39-5.82c-8.3,2.73-15.46,6.9-21.95,12.77c1.84,1.42,3.68,2.84,5.51,4.25
				c4-5.2,8.06-10.36,12.11-15.53c2.37-3.03-0.59-8.08-4.42-5.73c-4.14,2.53-8.28,5.06-12.42,7.58c1.45,1.88,2.9,3.76,4.35,5.64
				c1.15-1.01,2.28-2.05,3.38-3.11c3.35-3.14-1.58-7.91-4.99-4.99c-1.17,0.98-2.33,1.99-3.46,3.02c-3.07,2.73,0.89,7.72,4.35,5.64
				c4.16-2.5,8.32-4.98,12.48-7.48c-1.66-1.66-3.33-3.33-4.99-4.99c-4.13,5.48-8.26,10.97-12.44,16.41
				c-2.53,3.29,2.71,6.79,5.51,4.25c5.62-5.09,11.64-8.61,18.83-11.02c-1.13-1.94-2.26-3.88-3.39-5.82
				c-8.05,8.48-16.11,16.96-24.17,25.44c-2.58,2.71,0.81,7.61,4.14,5.37c7.64-5.13,15.41-10.03,23.3-14.78
				c-1.65-0.67-3.3-1.34-4.95-2.01c1.02,2.61-7.82,9.64-9.56,11.4c-3.76,3.81-7.53,7.61-11.3,11.41c-2.49,2.52,0.89,7.36,3.93,5.09
				c8.05-6,16.45-11.34,25.24-16.19c-1.45-1.45-2.89-2.89-4.34-4.34c-3.49,5.28-6.93,10.59-10.16,16.04
				C963.25,418.37,967.57,420.63,969.55,418.02L969.55,418.02z"/>
		</g>
		<g>
			<path d="M971.91,430.3c-2.19-1.58-5.34-1.39-7.85-1.55c-5.17-0.32-10.34-0.64-15.51-0.92c-6-0.32-10.09,1.81-12.15,7.73
				c-1.45,4.18-2.14,8.73-2.65,13.34c-7.06,21.98-11.57,43.99-20.87,65.38c-4.29,9.86-20.37,30.87-14.03,42.58
				c5.65,10.42,20.98,6.06,29.9,4.53c16.35-2.8,39.05-4.37,53-14.51c1.2,0.36,2.57-0.03,2.82-1.59
				c5.6-34.96,4.72-81.01-10.81-113.52C973.36,430.95,972.68,430.5,971.91,430.3z M979.69,541.99c-13.33,3.59-27.09,5.42-40.71,7.59
				c-4.85,0.77-20.43,5.64-25.06,3.64c-9.31-4.02,1.25-18.76,3.6-23.89c10.02-21.8,22.15-47.07,23.25-71.84
				c1.42-5.07,1.75-10.37,2.72-15.78c1.1-6.19,5.38-5.77,10.7-5.79c0.86,0,10.97-0.16,13.62,0.34c1.51,17.58,6.33,34.77,8.3,52.34
				C978.11,506.38,978.73,524.16,979.69,541.99z"/>
			<path d="M939.55,371.77c-3.61,6.9-1.82,18.38-2.12,26c-0.23,5.75-2.03,14.96,4.19,18.5c6.18,3.52,38.62,5.79,35.27-7.5
				c2.11-3.83,2.19-8.59,2.42-13.39c0.34-7.31,1.64-16.39-2.9-22.72c-4.28-5.98-11.36-6.55-18.15-6.48
				C951.9,366.25,943,365.17,939.55,371.77z M960.71,374.62c1.96,0.1,5.75,0.01,7.23,1.32c2.23,1.98,3.14,6.41,3.42,9.27
				c0.58,5.94,0.85,14.13-0.51,20.76c-0.31,0.34-0.59,0.75-0.77,1.28c-1.38,4.03-11.26,2.75-14.37,2.61
				c-6.76-0.31-10.3-1.92-10-8.97c0.24-5.81-1.87-23.8,4.4-26C952.79,373.94,957.85,374.47,960.71,374.62z"/>
			<path d="M1172.1,428.91c-16.57-34.7-48.74-55.89-84.3-67.61c-4.98-2.48-10.06-4.8-15.21-6.99
				c-22.08-9.35-45.19-15.64-68.94-18.98c-15.13-2.13-30.33-4.13-45.5-4.08c-0.24-0.11-0.53-0.19-0.87-0.18
				c-73.95,0.87-160.46,32.18-196.91,100.69c-31.68,59.56,11.65,146.67,78.08,157.72c-9.05,15.83-21.92,24.77-39.79,30.81
				c-0.39-0.02-0.77-0.01-1.17-0.03c-1.08-0.05-1.73,0.71-1.89,1.59c-0.55,0.96-0.33,2.46,1.02,3c19.83,7.89,41.12,6.81,61.34,0.8
				c18.18-5.41,39.32-13.87,53.06-27.35c3.18-0.04,6.35-0.11,9.48-0.06c12.01,0.21,24.04,0.56,36.06,0.32
				c2.26-0.05,4.57-0.12,6.88-0.2c37.76,1.43,75.73-2.22,112.67-10.03c18.47-3.9,36.52-8.63,51.87-20.07
				c15.21-11.34,29.71-26.42,40.33-42.18C1187.72,497.26,1186.74,459.57,1172.1,428.91z M1166.86,437.85
				c1.23,3.04,2.25,6.1,3.17,9.17c-1.47-0.65-3.13-0.93-4.73-0.96c-0.72-2.84-1.56-5.66-2.58-8.47c-0.01-0.03-0.03-0.07-0.04-0.1
				c1.18,0.17,2.37,0.33,3.56,0.44C1166.47,437.95,1166.67,437.9,1166.86,437.85z M1173.75,466.09c-1.83-0.68-3.81-1.08-5.8-1.32
				c-0.16-4.81-0.72-9.63-1.68-14.43c1.09,0.21,2.12,0.59,3.23,1.1c0.69,0.31,1.31,0.27,1.82,0.04
				C1172.53,456.35,1173.32,461.23,1173.75,466.09z M1174.05,477.32c-2-0.93-4.15-1.44-6.36-1.66c0.18-2.17,0.27-4.34,0.3-6.52
				c1.82,0.44,3.6,0.98,5.45,1.32c0.21,0.04,0.4,0.02,0.59,0C1174.12,472.76,1174.13,475.04,1174.05,477.32z M1167.23,479.87
				c2.27,0.38,4.43,1.19,6.49,2.21c-0.37,4.06-1.01,8.08-1.94,12.05c-2.26-0.86-4.54-1.57-6.89-2.18
				C1165.91,487.97,1166.7,483.94,1167.23,479.87z M1164.97,433.6c-1.36-0.2-2.72-0.39-4.08-0.57c-1.47-3.58-3.05-7.08-4.82-10.42
				c1.08,0.3,2.2,0.45,3.35,0.44c1.56,2.59,3.06,5.25,4.43,8.06C1164.26,431.93,1164.59,432.77,1164.97,433.6z M1156.49,418.4
				c-0.27-0.1-0.55-0.14-0.82-0.27c-0.78-0.38-1.51-0.22-2.08,0.16c-4.34-7.38-9.38-14.14-15.03-20.32
				C1145.24,403.98,1151.29,410.71,1156.49,418.4z M825.62,625.44c4.25-0.62,8.48-1.54,12.66-2.72c0.97,0.61,1.97,1.19,3.01,1.65
				C836.07,625.15,830.84,625.49,825.62,625.44z M896.17,600.63c-1.91-1.15-3.76-2.37-5.52-3.72c0.28-0.22,0.51-0.45,0.68-0.71
				c4.12,1.32,8.42,1.86,12.79,2.03c-2.31,1.83-4.75,3.57-7.31,5.21C897.38,602.57,897.36,601.35,896.17,600.63z M886.91,599.32
				c2.22,1.86,4.58,3.58,7.18,4.88c0.43,0.21,0.84,0.24,1.22,0.19c-2.59,1.59-5.27,3.1-8.02,4.51c0.4-0.99,0.08-2.31-1.23-2.84
				c-2-0.8-3.89-1.67-5.7-2.71C882.59,602.01,884.76,600.67,886.91,599.32z M876.2,605.79c2.65,1.87,5.63,3.48,8.77,4.24
				c0.02,0,0.03,0,0.05,0c-3.63,1.78-7.35,3.42-11.07,4.9c0.04-0.65-0.22-1.33-0.99-1.81c-1.61-1-3.31-1.88-5.02-2.75
				C870.74,608.9,873.49,607.36,876.2,605.79z M863.4,612.74c2.23,1.25,4.47,2.55,6.78,3.66c-3.24,1.21-6.47,2.32-9.62,3.32
				c-0.15-0.29-0.36-0.57-0.68-0.8c-1.31-0.93-2.69-1.79-4.06-2.63C858.37,615.16,860.91,613.99,863.4,612.74z M851.29,618.23
				c0.1,0.09,0.16,0.19,0.28,0.27c1.38,0.89,2.75,1.8,4.14,2.68c-3.33,0.97-6.66,1.74-9.99,2.38c0.22-0.8,0.02-1.7-0.89-2.19
				c-0.29-0.15-0.57-0.3-0.85-0.44C846.43,620.1,848.87,619.21,851.29,618.23z M888.74,590.62c-0.52,0.21-0.96,0.63-1.28,1.13
				c-0.06,0.03-0.11,0.05-0.17,0.09c-23.43,14.82-45.73,25.56-71.99,28.02c13.11-6.2,24.22-17.93,29.57-30.9
				c3.11-2.31,3.48-7.83-1.21-8.46c-32.65-4.4-57.98-26.45-71.69-55.84c-7.44-15.96-12.44-34.82-12.57-52.47
				c-0.13-17.65,7.48-32.91,16.35-47.7c31.24-52.08,99.69-77.78,159.69-86.93c39.33-3.84,83.35,4.81,120.13,18.06
				c38.14,13.74,75.8,34.86,94.5,72.41c19.92,40.01,5.96,82.98-25.66,112.17c-15.26,14.09-34.07,23.89-53.62,30.59
				c-18.25,6.26-41.33,13.45-60.71,11.81c-0.94-0.08-1.73,0.14-2.35,0.55c-16.26,1.2-33.14,5.49-48.6,5.9
				c-12.01,0.31-24.02-0.02-36.03-0.24C911.9,588.62,899.28,586.41,888.74,590.62z M1160.25,521.78c-2.19-0.84-4.36-1.76-6.5-2.72
				c1.13-1.96,2.19-3.95,3.19-5.97c2.19,1.04,4.44,1.95,6.76,2.69C1162.63,517.8,1161.48,519.8,1160.25,521.78z M1123.98,555.46
				c1.18,1.12,2.2,2.41,3.39,3.51c-3.74,3.23-7.66,6.17-11.73,8.74c-0.14-0.43-0.37-0.83-0.75-1.12c-1.57-1.21-3.3-2.23-5.03-3.26
				c4.45-2.75,8.76-5.73,12.89-8.95C1123.17,554.74,1123.59,555.09,1123.98,555.46z M1094.47,577.25c-4.42,1.4-8.93,2.59-13.48,3.62
				c-0.5-0.52-1.22-0.79-2.04-0.48c-0.55,0.21-1.51-0.69-2.18-1.34c4.47-1.61,8.9-3.37,13.25-5.31
				C1091.37,575.07,1092.86,576.26,1094.47,577.25z M1052.57,586.18c6.45-1.52,12.85-3.28,19.14-5.36c0.6,0.56,1.2,1.1,1.83,1.63
				c-5.11,1-10.2,1.9-15.19,2.79C1056.42,585.58,1054.49,585.86,1052.57,586.18z M1100.36,575.21c-2.07-1.1-4.03-2.2-5.86-3.53
				c3.76-1.8,7.45-3.75,11.06-5.82c2.01,1.54,4.14,3,6.39,4.06c-0.31,0.17-0.61,0.38-0.92,0.55
				C1107.6,572.29,1104.02,573.83,1100.36,575.21z M1130.43,556.2c-1.1-1.72-2.63-3.23-4.31-4.57c1.18-0.98,2.39-1.94,3.54-2.97
				c1.06-0.94,2.1-1.91,3.12-2.89c0.56,0.46,1.14,0.9,1.7,1.34c0.99,0.76,1.99,1.56,3.11,2.13
				C1135.28,551.63,1132.88,553.95,1130.43,556.2z M1140.55,546.11c-0.01-0.01-0.01-0.02-0.02-0.03c-1.03-1.04-2.44-1.74-3.62-2.6
				c-0.35-0.25-0.68-0.53-1.02-0.8c1.82-1.88,3.59-3.82,5.28-5.81c1.56,1.22,3.29,2.18,5.19,2.85
				C1144.47,541.86,1142.53,543.99,1140.55,546.11z M1149.31,536.35c-0.03-0.02-0.04-0.04-0.07-0.06c-1.74-0.93-3.43-1.97-5.07-3.07
				c2.57-3.27,4.97-6.66,7.17-10.17c2,1.14,4.08,2.03,6.29,2.7c-2.09,3.02-4.31,5.99-6.8,8.86
				C1150.33,535.19,1149.81,535.77,1149.31,536.35z M1165.71,511.75c-2.28-0.9-4.56-1.81-6.82-2.76c1.87-4.16,3.47-8.44,4.79-12.78
				c2.31,0.83,4.63,1.66,6.95,2.45C1169.35,503.11,1167.7,507.47,1165.71,511.75z"/>
		</g>
		<g>
			<g>
				<path id="XMLID_290_" class="st0" d="M847.99,879.26c-2.17,1.08-6.25,3.02-10.99,3.36c-0.84,0.06-1.46,0.05-1.66,0.05
					c-4.28-0.07-7.56-1.71-8.64-2.36c-4.02-2.42-6.83-8.87-6.18-16.35l0.07-1.96c1.75-0.04,4.65-0.16,7.5-0.53
					c3.14-0.41,6.06-0.99,8.68-1.73c3.15-0.89,8.43-2.38,13.88-6.34c6.13-4.44,10.04-9.48,11.61-14.98
					c0.58-2.02,0.87-4.16,0.87-6.34c0-4.23-1.1-7.47-3.5-10.23c-2.59-2.59-5.71-3.85-9.53-3.85c-5.28,0-10.02,1.17-14.48,3.58
					c-5.34,2.76-10.42,6.88-15.09,12.24c-9.31,10.74-13.83,21.83-13.83,33.91c0,6.69,1.88,12.1,5.76,16.53
					c0.95,1.09,2.5,2.57,4.65,3.9c3.91,2.41,7.67,2.93,10.29,3.27c1.08,0.14,2.37,0.25,3.83,0.25c1.27,0.01,4.76-0.06,10.02-1.56
					c4.64-1.33,7.92-3,10.76-4.47c2.75-1.42,6.36-3.5,10.37-6.45l0.22-0.17l0.03-8.43l-0.91,0.68
					C858.36,873.52,853.6,876.48,847.99,879.26z M844.86,826.82c0.35,0,0.71,0.02,1.06,0.06c1.99,0.21,3.35,1.02,4.18,2.49
					c0.86,1.52,1.13,3.77,0.83,6.7c-0.36,3.44-1.52,5.93-2.17,7.1c-2.1,3.75-5,5.69-6.39,6.63c-0.99,0.66-2.02,1.2-2.04,1.21
					c-0.86,0.45-1.75,0.82-2.33,1.04c0,0-1.8,0.6-3.73,1.17c-2.59,0.75-6.6,1.14-12.94,1.26c1.7-7.5,4.96-13.98,9.95-19.78
					c2.31-2.64,4.68-4.67,6.86-5.86C840.42,827.49,842.68,826.82,844.86,826.82z"/>
			</g>
			<g>
				<path class="st0" d="M894.76,819.06v73.2h-14.68v-73.2H894.76z"/>
				<path class="st0" d="M971.84,892.25h-14.68l-33.24-50.23v50.23h-14.68v-73.3h14.68l33.24,50.34v-50.34h14.68V892.25z"/>
				<path class="st0" d="M1031.51,819.06v11.85h-30.52v18.77h23.39v11.64h-23.39v30.94h-14.68v-73.2H1031.51z"/>
				<path class="st0" d="M1056.99,888.16c-5.73-3.22-10.28-7.67-13.63-13.37c-3.36-5.7-5.03-12.14-5.03-19.35
					c0-7.13,1.68-13.54,5.03-19.24c3.35-5.7,7.9-10.16,13.63-13.37c5.73-3.22,12.02-4.83,18.87-4.83c6.92,0,13.23,1.61,18.93,4.83
					c5.7,3.21,10.21,7.67,13.53,13.37c3.32,5.7,4.98,12.11,4.98,19.24c0,7.2-1.66,13.65-4.98,19.35
					c-3.32,5.7-7.85,10.16-13.58,13.37c-5.73,3.21-12.02,4.82-18.88,4.82C1069.01,892.99,1062.72,891.38,1056.99,888.16z
					 M1087.5,876.89c3.36-1.99,5.98-4.84,7.87-8.55c1.89-3.71,2.83-8,2.83-12.9c0-4.89-0.94-9.18-2.83-12.85
					c-1.89-3.67-4.51-6.48-7.87-8.44c-3.35-1.96-7.23-2.94-11.64-2.94c-4.4,0-8.3,0.98-11.69,2.94c-3.39,1.96-6.03,4.77-7.92,8.44
					c-1.89,3.67-2.83,7.95-2.83,12.85c0,4.89,0.94,9.19,2.83,12.9c1.89,3.7,4.52,6.55,7.92,8.55s7.29,2.99,11.69,2.99
					C1080.27,879.88,1084.15,878.88,1087.5,876.89z"/>
			</g>
		</g>
	</g>
</g>
</svg>
