<?xml version="1.0" encoding="utf-8"?>
<!-- Generator: Adobe Illustrator 26.0.1, SVG Export Plug-In . SVG Version: 6.00 Build 0)  -->
<svg version="1.1" id="Layer_1" xmlns="http://www.w3.org/2000/svg" xmlns:xlink="http://www.w3.org/1999/xlink" x="0px" y="0px"
	 viewBox="0 0 1920 1080" style="enable-background:new 0 0 1920 1080;" xml:space="preserve">
<style type="text/css">
	.st0{fill:#C3272E;}
</style>
<g>
	<g>
		<path id="XMLID_290_" class="st0" d="M633.59,609.25c-6.31,3.13-18.23,8.79-32.02,9.79c-2.46,0.18-4.25,0.16-4.84,0.15
			c-12.46-0.22-22.04-4.97-25.19-6.87c-11.71-7.04-19.9-25.85-18.01-47.64l0.21-5.7c5.1-0.11,13.56-0.47,21.85-1.55
			c9.15-1.19,17.65-2.89,25.28-5.04c9.19-2.59,24.57-6.94,40.46-18.46c17.87-12.95,29.26-27.64,33.85-43.66
			c1.69-5.9,2.55-12.12,2.55-18.49c0-12.31-3.22-21.76-10.21-29.82c-7.56-7.55-16.64-11.22-27.77-11.22
			c-15.39,0-29.2,3.41-42.2,10.42c-15.56,8.04-30.36,20.04-43.98,35.68c-27.13,31.31-40.32,63.63-40.32,98.81
			c0,19.51,5.49,35.26,16.78,48.16c2.78,3.18,7.28,7.5,13.55,11.37c11.39,7.03,22.36,8.55,29.98,9.52c3.15,0.4,6.91,0.71,11.15,0.73
			c3.7,0.02,13.88-0.16,29.19-4.55c13.53-3.88,23.09-8.75,31.35-13.02c8-4.14,18.55-10.2,30.23-18.79l0.65-0.49l0.09-24.58
			l-2.64,1.99C663.8,592.52,649.93,601.14,633.59,609.25z M624.45,456.42c1.03,0,2.06,0.05,3.08,0.16
			c5.79,0.61,9.78,2.98,12.19,7.25c2.5,4.42,3.3,10.98,2.41,19.52c-1.05,10.04-4.42,17.27-6.33,20.69
			c-6.12,10.92-14.56,16.59-18.61,19.32c-2.88,1.93-5.89,3.51-5.93,3.53c-2.5,1.3-5.1,2.38-6.78,3.03c-0.01,0-5.23,1.76-10.88,3.4
			c-7.56,2.19-19.23,3.33-37.7,3.66c4.94-21.85,14.45-40.73,29-57.65c6.74-7.7,13.65-13.59,20-17.07
			C611.52,458.38,618.1,456.42,624.45,456.42z"/>
	</g>
	<g>
		<path d="M769.89,433.81v213.31h-42.78V433.81H769.89z"/>
		<path d="M994.51,647.11h-42.79l-96.88-146.38v146.38h-42.78V433.5h42.78l96.88,146.69V433.5h42.79V647.11z"/>
		<path d="M1168.39,433.81v34.53h-88.93v54.7h68.16v33.92h-68.16v90.15h-42.78V433.81H1168.39z"/>
		<path d="M1242.65,635.2c-16.71-9.38-29.96-22.36-39.73-38.97c-9.79-16.6-14.67-35.39-14.67-56.38c0-20.78,4.89-39.47,14.67-56.08
			c9.77-16.6,23.02-29.6,39.73-38.96c16.7-9.38,35.03-14.06,55-14.06c20.17,0,38.56,4.69,55.16,14.06
			c16.61,9.36,29.74,22.36,39.43,38.96c9.67,16.61,14.51,35.3,14.51,56.08c0,20.99-4.84,39.78-14.51,56.38
			c-9.69,16.61-22.88,29.6-39.58,38.97c-16.71,9.36-35.04,14.05-55.01,14.05S1259.35,644.57,1242.65,635.2z M1331.57,602.35
			c9.79-5.81,17.42-14.11,22.93-24.91c5.5-10.81,8.24-23.33,8.24-37.59s-2.75-26.75-8.24-37.44c-5.51-10.69-13.14-18.89-22.93-24.6
			c-9.77-5.71-21.08-8.56-33.92-8.56c-12.83,0-24.19,2.85-34.07,8.56c-9.89,5.71-17.57,13.9-23.07,24.6
			c-5.51,10.69-8.26,23.18-8.26,37.44s2.75,26.78,8.26,37.59c5.5,10.79,13.18,19.1,23.07,24.91c9.89,5.81,21.24,8.7,34.07,8.7
			C1310.5,611.05,1321.8,608.16,1331.57,602.35z"/>
	</g>
</g>
</svg>
