<?xml version="1.0" encoding="utf-8"?>
<!-- Generator: Adobe Illustrator 27.0.0, SVG Export Plug-In . SVG Version: 6.00 Build 0)  -->
<svg version="1.1" xmlns="http://www.w3.org/2000/svg" xmlns:xlink="http://www.w3.org/1999/xlink" x="0px" y="0px"
	 viewBox="0 0 1920 1080" style="enable-background:new 0 0 1920 1080;" xml:space="preserve">
<style type="text/css">
	.st0{fill:#FFFFFF;}
</style>
<g id="Layer_1">
</g>
<g id="dizajn">
	<g>
		<g>
			<g>
				<path class="st0" d="M1043.7,457.1c-3.82,4.56-7.63,9.13-11.45,13.69c-1.02,1.22,0.73,2.99,1.76,1.76
					c3.82-4.56,7.63-9.13,11.45-13.69C1046.49,457.64,1044.74,455.87,1043.7,457.1L1043.7,457.1z"/>
			</g>
			<g>
				<path class="st0" d="M1050.71,457.72c-5.58,6.12-10.49,12.74-14.71,19.87c-0.82,1.38,1.33,2.64,2.15,1.26
					c4.11-6.95,8.88-13.4,14.32-19.36C1053.55,458.3,1051.79,456.53,1050.71,457.72L1050.71,457.72z"/>
			</g>
			<g>
				<path class="st0" d="M1064.11,451.83c-8.32,10.02-16.1,20.45-23.32,31.29c-0.89,1.34,1.27,2.59,2.15,1.26
					c7.1-10.66,14.74-20.93,22.93-30.78C1066.89,452.37,1065.13,450.6,1064.11,451.83L1064.11,451.83z"/>
			</g>
			<g>
				<path class="st0" d="M1067.83,457.25c-5.14,6.98-10.29,13.96-15.43,20.95c-3.62,4.91-9.39,10.31-9.32,16.79
					c0.02,1.6,2.51,1.61,2.49,0c-0.06-6.61,7.97-14.16,11.67-19.17c4.25-5.77,8.5-11.54,12.75-17.3
					C1070.93,457.22,1068.77,455.97,1067.83,457.25L1067.83,457.25z"/>
			</g>
			<g>
				<path class="st0" d="M1075.17,460.95c-9.03,11.13-17.22,22.86-24.53,35.19c-0.82,1.38,1.33,2.64,2.15,1.26
					c7.2-12.15,15.25-23.72,24.14-34.69C1077.94,461.47,1076.18,459.7,1075.17,460.95L1075.17,460.95z"/>
			</g>
			<g>
				<path class="st0" d="M1079.02,466.71c-8.69,11.24-16.65,22.98-23.85,35.23c-0.81,1.39,1.34,2.64,2.15,1.26
					c7.09-12.07,14.9-23.65,23.46-34.72C1081.75,467.22,1080,465.44,1079.02,466.71L1079.02,466.71z"/>
			</g>
			<g>
				<path class="st0" d="M1083.11,471.29c-7.33,10.4-14.29,21.04-20.87,31.93c-0.83,1.38,1.32,2.63,2.15,1.26
					c6.59-10.89,13.54-21.53,20.87-31.93C1086.18,471.23,1084.02,469.99,1083.11,471.29L1083.11,471.29z"/>
			</g>
			<g>
				<path class="st0" d="M1084.65,477.87c-5.85,9.68-11.7,19.36-17.55,29.04c-0.83,1.38,1.32,2.63,2.15,1.26
					c5.85-9.68,11.7-19.36,17.55-29.04C1087.64,477.75,1085.48,476.49,1084.65,477.87L1084.65,477.87z"/>
			</g>
			<g>
				<path class="st0" d="M1089.77,481.07c-5.95,9.51-11.58,19.2-16.89,29.08c-0.76,1.41,1.39,2.67,2.15,1.26
					c5.31-9.88,10.94-19.57,16.9-29.08C1092.77,480.96,1090.62,479.71,1089.77,481.07L1089.77,481.07z"/>
			</g>
			<g>
				<path class="st0" d="M1090.84,488.63c-3.96,8.09-7.92,16.17-11.89,24.26c-0.7,1.43,1.45,2.7,2.15,1.26
					c3.96-8.09,7.92-16.17,11.89-24.26C1093.69,488.46,1091.54,487.19,1090.84,488.63L1090.84,488.63z"/>
			</g>
			<g>
				<path class="st0" d="M1095.76,495.59c-3.7,7.25-7.39,14.51-11.09,21.76c-0.73,1.43,1.42,2.69,2.15,1.26
					c3.7-7.25,7.39-14.51,11.09-21.76C1098.64,495.42,1096.49,494.16,1095.76,495.59L1095.76,495.59z"/>
			</g>
			<g>
				<path class="st0" d="M1102.52,500.25c-2.69,5.73-5.37,11.45-8.06,17.18c-0.68,1.44,1.47,2.71,2.15,1.26
					c2.69-5.73,5.37-11.45,8.06-17.18C1105.35,500.07,1103.2,498.8,1102.52,500.25L1102.52,500.25z"/>
			</g>
			<g>
				<path class="st0" d="M974.31,288.19c-13.92,13.31-26.72,27.67-38.38,43c-0.97,1.28,1.19,2.52,2.15,1.26
					c11.53-15.16,24.23-29.34,37.99-42.5C977.23,288.84,975.47,287.08,974.31,288.19L974.31,288.19z"/>
			</g>
			<g>
				<path class="st0" d="M985.44,292.88c1.53-1.42,3.05-2.84,4.58-4.26c-0.59-0.59-1.18-1.17-1.76-1.76
					c-18.22,20.51-36.44,41.03-54.66,61.54c-1.06,1.2,0.69,2.96,1.76,1.76c18.22-20.51,36.44-41.03,54.66-61.54
					c1.06-1.2-0.58-2.86-1.76-1.76c-1.53,1.42-3.05,2.84-4.58,4.26C982.5,292.21,984.26,293.97,985.44,292.88L985.44,292.88z"/>
			</g>
			<g>
				<path class="st0" d="M996.52,290.47c-18.83,21.45-37.67,42.9-56.5,64.35c-1.05,1.2,0.7,2.97,1.76,1.76
					c18.83-21.45,37.67-42.9,56.5-64.35C999.33,291.03,997.58,289.26,996.52,290.47L996.52,290.47z"/>
			</g>
			<g>
				<path class="st0" d="M1006.56,290.82c-21.64,24.86-43.28,49.72-64.92,74.58c-1.05,1.2,0.71,2.97,1.76,1.76
					c21.64-24.86,43.28-49.72,64.92-74.58C1009.37,291.38,1007.62,289.61,1006.56,290.82L1006.56,290.82z"/>
			</g>
			<g>
				<path class="st0" d="M1012.27,295.77c-19.25,24.92-39.97,48.66-62.03,71.12c-1.12,1.15,0.64,2.91,1.76,1.76
					c22.22-22.62,43.04-46.54,62.42-71.63C1015.4,295.76,1013.24,294.52,1012.27,295.77L1012.27,295.77z"/>
			</g>
			<g>
				<path class="st0" d="M1012.92,308.72c-20.95,27.08-43.09,53.2-66.35,78.31c-1.09,1.18,0.67,2.94,1.76,1.76
					c23.27-25.11,45.4-51.23,66.35-78.31C1015.65,309.23,1013.9,307.46,1012.92,308.72L1012.92,308.72z"/>
			</g>
			<g>
				<path class="st0" d="M1017.19,322.64c-19.01,21.03-39.95,40.97-56.85,63.8c-0.95,1.29,1.21,2.53,2.15,1.26
					c16.77-22.65,37.6-42.42,56.46-63.29C1020.02,323.22,1018.27,321.45,1017.19,322.64L1017.19,322.64z"/>
			</g>
			<g>
				<path class="st0" d="M1009.39,339.07c-14.5,19.28-29.77,37.94-45.79,55.98c-1.06,1.2,0.69,2.96,1.76,1.76
					c16.16-18.2,31.55-37.04,46.18-56.49C1012.5,339.04,1010.34,337.8,1009.39,339.07L1009.39,339.07z"/>
			</g>
			<g>
				<path class="st0" d="M1002.99,363.75c-9.01,10.26-18.02,20.53-27.03,30.79c-1.05,1.2,0.7,2.97,1.76,1.76
					c9.01-10.26,18.02-20.53,27.03-30.79C1005.81,364.31,1004.05,362.54,1002.99,363.75L1002.99,363.75z"/>
			</g>
			<g>
				<path class="st0" d="M1013.32,388.5c-3.54,8.09-7.08,16.18-10.61,24.27c-0.64,1.46,1.51,2.73,2.15,1.26
					c3.54-8.09,7.08-16.18,10.61-24.27C1016.11,388.31,1013.96,387.04,1013.32,388.5L1013.32,388.5z"/>
			</g>
			<g>
				<path class="st0" d="M1021.58,395.12c0.14-0.11,0.27-0.23,0.41-0.34c-0.5,0.06-1.01,0.13-1.51,0.19c0,0-8.62,19.22-9.42,21.01
					c-0.64,1.45,1.5,2.72,2.15,1.26c2.64-5.97,5.28-11.94,7.92-17.91c0.81-1.83,3.22-5.16,0.6-6.51c-0.54-0.28-1.06-0.18-1.51,0.19
					c-0.14,0.11-0.27,0.23-0.41,0.34C1018.59,394.38,1020.36,396.13,1021.58,395.12L1021.58,395.12z"/>
			</g>
			<g>
				<path class="st0" d="M1024.03,399.03c-2.39,5.98-4.77,11.97-7.16,17.95c-0.59,1.49,1.81,2.14,2.4,0.66
					c2.39-5.98,4.77-11.97,7.16-17.95C1027.02,398.21,1024.61,397.56,1024.03,399.03L1024.03,399.03z"/>
			</g>
			<g>
				<path class="st0" d="M1031.27,399.1c-2.49,6.35-5.18,12.61-8.05,18.79c-0.67,1.45,1.47,2.71,2.15,1.26
					c2.97-6.38,5.73-12.83,8.3-19.38C1034.26,398.27,1031.85,397.62,1031.27,399.1L1031.27,399.1z"/>
			</g>
			<g>
				<path class="st0" d="M1035.52,404.12c-0.85,4.63-2.33,8.99-4.52,13.16c-0.75,1.42,1.4,2.68,2.15,1.26
					c2.29-4.34,3.89-8.92,4.77-13.75C1038.21,403.21,1035.81,402.54,1035.52,404.12L1035.52,404.12z"/>
			</g>
			<g>
				<path class="st0" d="M1040.74,407.37c-1.31,4.06-2.62,8.12-3.93,12.18c-0.49,1.53,1.91,2.19,2.4,0.66
					c1.31-4.06,2.62-8.12,3.93-12.18C1043.64,406.51,1041.23,405.85,1040.74,407.37L1040.74,407.37z"/>
			</g>
			<g>
				<path class="st0" d="M1045.9,412.84c-1.85,4-3.71,8.01-5.56,12.01c-0.67,1.45,1.48,2.71,2.15,1.26c1.85-4,3.71-8.01,5.56-12.01
					C1048.72,412.65,1046.57,411.38,1045.9,412.84L1045.9,412.84z"/>
			</g>
			<g>
				<path class="st0" d="M1050.17,419.16c-1.9,4.51-3.81,9.01-5.71,13.52c-0.62,1.46,1.53,2.73,2.15,1.26
					c1.9-4.51,3.81-9.01,5.71-13.52C1052.94,418.96,1050.79,417.69,1050.17,419.16L1050.17,419.16z"/>
			</g>
			<g>
				<path class="st0" d="M1056.82,422.15c-2.48,8.04-5.34,15.93-8.6,23.69c-0.62,1.48,1.79,2.12,2.4,0.66
					c3.26-7.76,6.12-15.65,8.6-23.69C1059.7,421.28,1057.29,420.62,1056.82,422.15L1056.82,422.15z"/>
			</g>
			<g>
				<path class="st0" d="M1061.7,430.69c-4.38,7.82-7.62,16.06-9.7,24.78c-0.37,1.56,2.03,2.22,2.4,0.66
					c2.03-8.51,5.17-16.55,9.45-24.18C1064.64,430.55,1062.49,429.29,1061.7,430.69L1061.7,430.69z"/>
			</g>
			<g>
				<path class="st0" d="M1066.48,443.05c-2.56,4.87-5.55,9.46-9.02,13.74c-1,1.24,0.75,3.01,1.76,1.76
					c3.6-4.45,6.75-9.18,9.41-14.24C1069.38,442.89,1067.23,441.63,1066.48,443.05L1066.48,443.05z"/>
			</g>
			<g>
				<path class="st0" d="M957.83,400.17c0.73-0.42,1.46-0.84,2.19-1.27c-0.47-0.61-0.94-1.22-1.41-1.83
					c-2.99,6.77-6.13,13.47-9.41,20.1c-0.71,1.43,1.44,2.7,2.15,1.26c3.28-6.63,6.42-13.33,9.41-20.1c0.43-0.98-0.28-2.09-1.41-1.83
					c-1.43,0.34-2.29,0.84-3.29,1.91C954.97,399.58,956.73,401.35,957.83,400.17L957.83,400.17z"/>
			</g>
			<g>
				<path class="st0" d="M966.82,397.72c-1.68,5.55-3.7,10.96-6.08,16.24c-0.65,1.45,1.49,2.72,2.15,1.26
					c2.47-5.48,4.59-11.08,6.33-16.83C969.69,396.85,967.29,396.19,966.82,397.72L966.82,397.72z"/>
			</g>
			<g>
				<path class="st0" d="M976.31,393.18c-2.67,7.46-5.34,14.92-8.01,22.38c-0.54,1.51,1.87,2.16,2.4,0.66
					c2.67-7.46,5.34-14.92,8.01-22.38C979.26,392.33,976.85,391.68,976.31,393.18L976.31,393.18z"/>
			</g>
			<g>
				<path class="st0" d="M988.01,388.09c-3.09,9.39-6.19,18.78-9.28,28.17c-0.5,1.53,1.9,2.18,2.4,0.66
					c3.09-9.39,6.19-18.78,9.28-28.17C990.92,387.22,988.51,386.57,988.01,388.09L988.01,388.09z"/>
			</g>
			<g>
				<path class="st0" d="M998.11,387.52c-2.22,10.03-5.85,19.45-10.95,28.38c-0.8,1.39,1.35,2.65,2.15,1.26
					c5.2-9.09,8.94-18.75,11.2-28.97C1000.86,386.62,998.45,385.95,998.11,387.52L998.11,387.52z"/>
			</g>
			<g>
				<path class="st0" d="M1007.28,386.81c-3.29,8.11-6.57,16.21-9.86,24.32c-0.6,1.49,1.81,2.13,2.4,0.66
					c3.29-8.11,6.57-16.21,9.86-24.32C1010.28,385.99,1007.87,385.34,1007.28,386.81L1007.28,386.81z"/>
			</g>
			<g>
				<path class="st0" d="M923.33,399.08c-2.18,6.34-4.36,12.67-6.55,19.01c-0.52,1.52,1.88,2.17,2.4,0.66
					c2.18-6.34,4.36-12.67,6.55-19.01C926.26,398.22,923.85,397.57,923.33,399.08L923.33,399.08z"/>
			</g>
			<g>
				<path class="st0" d="M934.82,391.33c-2.5,9.17-5.01,18.34-7.51,27.5c-0.42,1.55,1.98,2.21,2.4,0.66
					c2.5-9.17,5.01-18.34,7.51-27.5C937.65,390.44,935.24,389.78,934.82,391.33L934.82,391.33z"/>
			</g>
			<g>
				<path class="st0" d="M945.01,391.3c-2.23,8.26-4.82,16.39-7.79,24.41c-0.56,1.51,1.85,2.16,2.4,0.66
					c2.97-8.02,5.56-16.15,7.79-24.41C947.83,390.41,945.43,389.75,945.01,391.3L945.01,391.3z"/>
			</g>
			<g>
				<path class="st0" d="M913.87,400.47c-2.88,5.77-5.33,11.71-7.34,17.85c-0.5,1.53,1.91,2.18,2.4,0.66
					c1.94-5.93,4.3-11.67,7.08-17.25C916.73,400.3,914.58,399.03,913.87,400.47L913.87,400.47z"/>
			</g>
			<g>
				<path class="st0" d="M904.69,403.99c-2.03,5.39-4.06,10.79-6.1,16.19c-0.57,1.5,1.84,2.15,2.4,0.66
					c2.03-5.4,4.06-10.79,6.1-16.19C907.66,403.15,905.25,402.5,904.69,403.99L904.69,403.99z"/>
			</g>
			<g>
				<path class="st0" d="M894.5,411.73c-1.41,3.78-2.42,7.65-3.03,11.64c-0.24,1.57,2.16,2.25,2.4,0.66
					c0.61-3.99,1.61-7.86,3.03-11.64C897.47,410.89,895.06,410.24,894.5,411.73L894.5,411.73z"/>
			</g>
			<g>
				<path class="st0" d="M815.13,512.02c-1.71,0.75-2.58,2-2.6,3.74c-0.13,0.59-0.26,1.17-0.39,1.76c-0.45,2.05-0.9,4.1-1.36,6.15
					c-0.85,3.8-1.71,7.6-2.57,11.4c-0.36,1.56,2.05,2.23,2.4,0.66c1.2-5.26,2.38-10.52,3.55-15.79c0.56-2.53,2.42-6.49,1.26-8.99
					c-0.25-0.53-0.9-0.66-1.41-0.57c-0.15,0.03-0.3,0.05-0.45,0.08c-0.53,0.09-0.91,0.69-0.91,1.2c0,0.12,0,0.24,0,0.37
					C812.63,513.62,815.12,513.62,815.13,512.02L815.13,512.02z"/>
			</g>
			<g>
				<path class="st0" d="M823.57,499.24c-3.35,10.7-4.69,21.67-4.01,32.87c0.1,1.59,2.54,1.61,2.49,0c-0.03-0.8-0.05-1.6-0.08-2.4
					c-0.05-1.6-2.54-1.61-2.49,0c0.03,0.8,0.05,1.6,0.08,2.4c0.83,0,1.66,0,2.49,0c-0.67-10.99,0.62-21.69,3.92-32.2
					C826.45,498.36,824.04,497.71,823.57,499.24L823.57,499.24z"/>
			</g>
			<g>
				<path class="st0" d="M834.36,479.1c0.51-0.61,1.02-1.21,1.53-1.82c-0.69-0.4-1.39-0.81-2.08-1.21
					c-2.89,16.28-5.21,32.65-6.98,49.1c-0.17,1.59,2.32,1.58,2.49,0c1.75-16.22,4.04-32.37,6.89-48.43c0.19-1.1-1.2-2.26-2.08-1.21
					c-0.51,0.61-1.02,1.21-1.53,1.82C831.58,478.56,833.33,480.33,834.36,479.1L834.36,479.1z"/>
			</g>
			<g>
				<path class="st0" d="M842.37,467.11c-2.69,18.65-4.82,37.37-6.38,56.16c-0.13,1.6,2.36,1.59,2.49,0
					c1.54-18.56,3.63-37.06,6.29-55.49C845,466.2,842.6,465.52,842.37,467.11L842.37,467.11z"/>
			</g>
			<g>
				<path class="st0" d="M852.43,452.3c-3.41,20.96-5.68,42.06-6.82,63.26c-0.09,1.6,2.41,1.6,2.49,0
					c1.12-20.98,3.36-41.86,6.73-62.6C855.09,451.39,852.69,450.72,852.43,452.3L852.43,452.3z"/>
			</g>
			<g>
				<path class="st0" d="M862.95,442.3c-3.02,23.49-5.31,47.06-6.88,70.7c-0.11,1.6,2.39,1.59,2.49,0
					c1.57-23.63,3.86-47.2,6.88-70.7C865.65,440.72,863.16,440.73,862.95,442.3L862.95,442.3z"/>
			</g>
			<g>
				<path class="st0" d="M874.41,428.87c-2.66,28.18-3.66,56.47-2.98,84.78c0.04,1.6,2.53,1.61,2.49,0
					c-0.68-28.3,0.31-56.59,2.98-84.78C877.05,427.27,874.56,427.28,874.41,428.87L874.41,428.87z"/>
			</g>
			<g>
				<path class="st0" d="M884.48,420.49c-0.6,25.71-0.25,51.42,1.04,77.1c0.08,1.6,2.57,1.61,2.49,0
					c-1.29-25.68-1.63-51.39-1.04-77.1C887.01,418.88,884.52,418.89,884.48,420.49L884.48,420.49z"/>
			</g>
			<g>
				<path d="M957.5,292.98c-14.59,6.58-19.44,21.81-21.89,36.56c-2.79,16.82-4,35.13,3.92,50.84c6.32,12.55,18.86,22.31,33.41,21.98
					c15.99-0.36,26.43-13.37,33.52-26.26c8.97-16.31,15.09-34.6,16.18-53.25c0.79-13.5,0.09-30.23-12.32-38.52
					c-23.68-15.81-70.78,6.93-71.71,35.66c-0.07,2.28,3.08,2.47,3.79,0.51c5.12-14.14,15.18-22.39,28.53-28.49
					c11.97-5.46,28.22-9.6,38.45,1.15c9.51,10,7.04,29.63,4.73,42.13c-2.29,12.41-6.86,24.43-12.73,35.57
					c-5.88,11.15-14.45,24.11-28.42,24.67c-15.96,0.63-27.54-13.39-31.36-27.52c-3.41-12.61-2.02-25.97-0.06-38.7
					c2.03-13.1,5.69-26.05,17.72-33.37C961.17,294.78,959.48,292.08,957.5,292.98L957.5,292.98z"/>
			</g>
			<g>
				<path d="M945.08,382.51c-24.3,4-47.4,17.65-64.09,35.46c-19.26,20.54-36.88,43.47-54.1,65.74c-7.54,9.76-14.93,19.84-20.7,30.77
					c-3.14,5.96-7.71,15.55-3.85,22.24c3.45,5.97,9.83,5.09,15.44,3.11c12.76-4.52,26.2-11.41,37.03-19.47
					c2.66-1.98,0.43-6.07-2.64-4.52c-9.8,4.96-19.12,10.69-29.16,15.21c-6.61,2.98-14.49,7.01-15.32-3.49
					c-0.39-4.93,4.16-10.95,6.58-15.05c11.08-18.81,25.54-35.44,39.29-52.29c12.72-15.58,24.83-32.57,39.82-46.07
					c15.69-14.13,34.92-18.78,53-28.55C948.15,384.61,946.84,382.22,945.08,382.51L945.08,382.51z"/>
			</g>
			<g>
				<path d="M889.83,453.84c8.67-1.04,5.39,22.23,4.32,26.46c-2.15,8.43-6.09,16.38-13.14,21.66c-11.2,8.37-25.6,11.4-36.85,19.8
					c-1.82,1.36-0.84,4.44,1.61,3.83c11.94-3.01,24.26-9.33,34.85-15.52c8.2-4.8,13.73-11.64,17.28-20.44
					c3.87-9.61,6.16-22.95,2.15-32.94c-2.05-5.09-5.58-9.01-10.9-5.38C888.15,451.98,888.36,454.02,889.83,453.84L889.83,453.84z"/>
			</g>
			<g>
				<path d="M892.65,451.19c-6.2-3.51-12.71,4.79-16.43,8.85c-5.1,5.58-12.2,13.38-13.81,20.93c-0.45,2.13,2.19,4.01,3.84,2.23
					c3.75-4.03,6.03-9.56,9.34-14.02c3.13-4.23,10.44-15.23,16.33-15.32C893.33,453.85,893.92,451.9,892.65,451.19L892.65,451.19z"
					/>
			</g>
			<g>
				<path d="M870.2,470.36c-4.9,1.78-9.69,3.92-14.28,6.4c-4.38,2.38-9.91,4.77-13.1,8.64c-1.08,1.32-0.1,3.46,1.73,2.98
					c4.62-1.21,8.82-4.69,12.91-7.1c4.64-2.74,9.26-5.51,13.79-8.44C872.48,472.06,871.72,469.81,870.2,470.36L870.2,470.36z"/>
			</g>
			<g>
				<path d="M1032.31,458.2c-4.63,16.09,5.11,41.92,22.38,47.03c2.47,0.73,3.97-2.36,2.4-4.12c-5.37-5.99-11.55-9.72-15.74-16.98
					c-4.52-7.82-6.57-16.57-6.35-25.57C1035.02,457.01,1032.73,456.73,1032.31,458.2L1032.31,458.2z"/>
			</g>
			<g>
				<path d="M1033.78,459.83c2.39-3.18,8.41-2.96,12.03-2.46c5.36,0.74,8.69,4,11.93,7.98c4.29,5.28,6.85,12.47,11.66,17.12
					c1.3,1.26,3.93,0.42,3.79-1.57c-0.64-9.32-11.08-22.38-19.45-26.6c-6.17-3.11-20.41-4.14-22.35,4.52
					C1031.04,460.34,1032.91,460.99,1033.78,459.83L1033.78,459.83z"/>
			</g>
			<g>
				<path d="M1045.87,497.35c8.68,7.21,17.56,13.74,27.39,19.36c8.41,4.82,17.64,10.46,27.65,9.52c2.93-0.27,4.16-4.98,0.76-5.58
					c-19.43-3.44-37.28-15.53-54.17-25.39C1046.22,494.52,1044.68,496.36,1045.87,497.35L1045.87,497.35z"/>
			</g>
			<g>
				<path d="M1000.29,383.55c13.24,7.64,26.81,15.19,38.8,24.74c12.5,9.96,19.95,24.06,28.39,37.34
					c7.82,12.31,15.87,24.52,22.84,37.35c4.26,7.83,8.16,15.87,11.28,24.23c1.84,4.93,4.86,9.32-1.26,13.62
					c-1.2,0.84-4.56,0.97-6.05,1.54c-2.15,0.82-1.7,3.61,0.53,3.88c13.72,1.67,19.08-3.49,14.64-17.12
					c-6.22-19.1-16.84-36.53-27.51-53.41c-10.08-15.95-19.43-34.62-33.26-47.71c-12.62-11.94-30.14-23.45-47.13-27.45
					C999.78,380.14,998.64,382.59,1000.29,383.55L1000.29,383.55z"/>
			</g>
			<g>
				<path d="M888.22,420.8c-1.59,9.47,0.61,20.35,1.45,29.85c0.28,3.15,5.23,3.17,4.95,0c-0.85-9.52-0.55-20.81-3.78-29.85
					C890.42,419.67,888.46,419.36,888.22,420.8L888.22,420.8z"/>
			</g>
			<g>
				<path d="M889.55,423.9c25.63-1.96,51.08-3.4,76.8-3.22c26.89,0.19,53.37,0.09,79.72,6.01c2.96,0.66,4.11-3.56,1.25-4.52
					c-24.75-8.31-53.08-6.27-78.83-6.36c-26.4-0.09-53.35,0-79.33,5.21C887.55,421.34,887.89,424.03,889.55,423.9L889.55,423.9z"/>
			</g>
			<g>
				<path d="M1048.58,425.25c0.02-0.09,0.04-0.19,0.06-0.28c0.12-0.62-0.07-1.42-0.7-1.72c-0.11-0.05-0.23-0.11-0.34-0.16
					c-0.88-0.42-1.82-0.22-2.38,0.62c-2.04,3.1-1.42,8.62-1.6,12.17c-0.29,5.5-0.82,11.19-0.28,16.67c0.26,2.66,4.7,3.84,5.12,0.69
					c0.64-4.71,0.51-9.49,0.47-14.24c-0.02-2.43-0.04-4.86-0.11-7.29c-0.06-1.39-0.12-2.78-0.18-4.17c0.46-2.21-0.19-2.72-1.95-1.52
					C1047.38,426.37,1048.41,426.12,1048.58,425.25L1048.58,425.25z"/>
			</g>
			<g>
				<path d="M894.36,483c-1.83,19.47-2.61,38.99-4.91,58.42c-2.28,19.34-6.02,38.46-8.44,57.78c-0.29,2.31,3.34,2.64,3.96,0.54
					c10.8-36.42,14.76-78.92,12.02-116.74C896.86,481.3,894.51,481.32,894.36,483L894.36,483z"/>
			</g>
			<g>
				<path d="M883.1,602.73c27.31,0.9,54.85-2.14,82.22-1.93c27.4,0.21,54.84,3.39,82.21,3.04c2.47-0.03,3.16-3.89,0.6-4.44
					c-26.84-5.77-55.47-5.69-82.81-5.54c-27.17,0.15-55.97,0.09-82.57,6.26C881.26,600.48,881.65,602.68,883.1,602.73L883.1,602.73z
					"/>
			</g>
			<g>
				<path d="M1047.06,496.57c-2.1,17.15-0.38,35.22-0.53,52.5c-0.16,17.47-1.03,35.03-0.7,52.5c0.06,3.43,4.92,3.3,5.24,0
					c1.75-18.06,1.62-36.56,1.37-54.68c-0.23-16.61,0.58-34.35-2.78-50.66C1049.34,494.63,1047.23,495.21,1047.06,496.57
					L1047.06,496.57z"/>
			</g>
			<g>
				<path class="st0" d="M916.72,456.9c4.45-4,12.56-1.89,17.79-1.73c5.36,0.17,10.73,0.05,16.08-0.29
					c7.06-0.44,12.36-0.3,19.41,0.22c1.8,0.13,3.39,0.11,5.4,0.03c6.64-0.27,11.62-0.1,17.82-0.8c6.24-0.71,13.63,1.41,20.53,0.79
					c1.79-0.16,2.55-3.1,0.46-3.42c-6.76-1.04-13.41-1.76-20-3.66c-0.74-0.21-1.76-0.02-2.27,0.6c-1.33,1.61-21.3-0.34-22.97-0.41
					c-8.13-0.32-16.19,0.88-24.4,1.12c-7.87,0.23-27.04-4.52-30.38,6.06C913.7,456.95,915.65,457.86,916.72,456.9L916.72,456.9z"/>
			</g>
			<g>
				<path class="st0" d="M916.53,468.07c4.53-4.1,12.75-0.51,18.48-1.69c4.98-1.02,8.59-0.7,13.37-0.71
					c10.95-0.01,20.68-3.17,32.03-1.56c1.9,0.27,2.8-2.48,0.82-2.97c-11.72-2.9-24.18-1.15-36.03-1.08
					c-7.3,0.04-14.6,1.34-22.04,1.78c-4.22,0.25-6.68,0.64-8.96,4.42C913.32,467.76,915.31,469.17,916.53,468.07L916.53,468.07z"/>
			</g>
			<g>
				<path class="st0" d="M919.97,485.65c12.14-3.58,28.33-3.19,40.94-2.19c4.53,0.36,8.11,1.81,12.6,1.06
					c7.63-1.28,13.71-0.27,21.54-0.26c2.2,0,2.8-3.48,0.53-3.94c-6.68-1.36-13.62-2.21-20.42-1.92c-5.62,0.24-10.71-0.63-16.29-0.56
					c-7.65,0.09-15.73,0.78-23.44,1.05c-6.07,0.22-11.24,1.13-16.59,4.1C917.41,483.78,918.38,486.12,919.97,485.65L919.97,485.65z"
					/>
			</g>
			<g>
				<path class="st0" d="M911.62,522.37c2.37-2.27,7.67,0.69,10,1.09c4.33,0.74,7.68,0.13,11.86-0.56
					c5.58-0.91,9.93-2.36,15.93-1.47c3.37,0.5,6.63,1.27,10.04,1.65c9.35,1.03,17.37,1.22,26.52-0.57
					c10.16-1.99,20.77-0.48,31.07-0.88c2.25-0.09,2.21-3.3,0-3.47c-9.1-0.67-19.59-1.82-28.66-0.53
					c-13.41,1.9-25.86,3.03-39.22-0.84c-10.19-2.95-16.76,3.84-27.25,2.49c-4.56-0.59-9.38-2.99-12.39,1.46
					C908.66,522.04,910.56,523.39,911.62,522.37L911.62,522.37z"/>
			</g>
			<g>
				<path class="st0" d="M1012.75,532.07c-3.49-0.33-6.78-2.7-10.31-2.73c-3.19-0.03-6.75,0.58-9.92,0.81
					c-13.4,0.98-27.12,1.91-40.62,3.09c-2.05,0.18-2.13,3.25,0,3.25c14.63-0.02,29.49-0.65,43.99-1.2c1.43-0.05,2.36-0.44,3.94-0.72
					c5.06-0.88,8.45,1.06,13.29,0.26C1014.81,534.56,1014.21,532.21,1012.75,532.07L1012.75,532.07z"/>
			</g>
			<g>
				<path class="st0" d="M1012.3,543.46c-2.43,0.01-6.35-2.08-9.11-2.46c-2.68-0.37-5.3,0.25-7.94,0.57
					c-7.56,0.93-15.12,1.14-22.73,1.29c-1.96,0.04-1.95,2.96,0,3.04c7.81,0.31,15.39-0.1,23.16-0.85c4.21-0.4,7.68,0.29,11.75,0.71
					c3.52,0.36,1.72,0.82,5.22,0.29C1014.14,545.82,1013.75,543.45,1012.3,543.46L1012.3,543.46z"/>
			</g>
			<g>
				<path class="st0" d="M903.8,573.71c8.74-0.21,17.46-0.45,26.19-0.89c3.83-0.19,7.79-0.73,11.63-0.58
					c4.21,0.16,7.01,2.05,10.94,2.45c5.02,0.51,8.4-2.35,13.26-2.84c9.31-0.94,20.33,4.33,29.51,6c2.36,0.43,3.32-2.84,1-3.62
					c-8.48-2.86-18.24-6.02-27.14-7.29c-7.11-1.01-11.05,2.85-18.49,2.57c-5.44-0.21-10.64-1.26-16.34-0.92
					c-10.21,0.62-20.37,1.47-30.56,2.4C902.09,571.14,902.02,573.75,903.8,573.71L903.8,573.71z"/>
			</g>
			<g>
				<path class="st0" d="M963.96,586.48c1.93-1.24,3.81-2.53,5.77-3.73c-0.86-0.35-1.73-0.7-2.6-1.06c1.13,4.09,4.47,5.06,8.28,3.8
					c1.21-0.4,1.71-1.16,3.08-1.06c0.27,0.02,2.41,1.41,2.87,1.48c3.88,0.59,6.8-2.06,10.99,0.11c1.48,0.77,3.17-1.16,1.85-2.4
					c-3.83-3.58-6.5-1.64-11.07-1.87c-2-0.1-2.89-1.37-4.8-1.61c-2.32-0.29-6.29,3.14-7.98,0.19c-0.59-1.03-1.95-1.11-2.77-0.36
					c-1.69,1.54-3.45,2.99-5.18,4.48C961.3,585.41,962.74,587.27,963.96,586.48L963.96,586.48z"/>
			</g>
		</g>
		<g>
			<g>
				<path d="M924.08,649.17c1.27-1.83,2.5-4.39,4.11-5.92c0.34-0.49,0.69-0.99,1.03-1.48c1.46-0.27,2.92-0.39,4.4-0.37
					c4.62-0.25,9.27-0.26,13.89-0.36c8.6-0.19,17.2-0.31,25.8-0.36c17.86-0.11,35.73,0.06,53.59,0.5c3.83,0.09,3.83-5.86,0-5.95
					c-20.17-0.5-40.35-0.65-60.53-0.44c-9.92,0.1-19.85,0.3-29.77,0.57c-3.37,0.09-7.95-0.63-10.81,1.5
					c-2.87,2.14-4.83,6.39-6.85,9.31C916.75,649.32,921.9,652.3,924.08,649.17L924.08,649.17z"/>
			</g>
		</g>
		<g>
			<g>
				<path d="M921.6,650.8c7.91-0.24,15.65,0.39,23.51,1.06c7.82,0.67,15.71,0.32,23.54,0.23c16.61-0.19,33.22-0.39,49.82-0.58
					c3.83-0.04,3.84-6,0-5.95c-16.61,0.19-33.22,0.39-49.82,0.58c-7.52,0.09-15.09,0.43-22.6-0.15c-8.19-0.62-16.23-1.39-24.46-1.15
					C917.78,644.97,917.76,650.92,921.6,650.8L921.6,650.8z"/>
			</g>
		</g>
		<g>
			<g>
				<path d="M1024.87,636.47c-2.39,3.35-4.89,6.62-7.51,9.81c-2.41,2.94,1.77,7.17,4.21,4.21c2.94-3.57,5.76-7.24,8.44-11.01
					C1032.24,636.35,1027.07,633.37,1024.87,636.47L1024.87,636.47z"/>
			</g>
		</g>
		<path class="st0" d="M881.15,672.53c-5.85,4.62-13.37,6.36-19.25,11.03c-3,2.38,1.24,6.57,4.21,4.21
			c5.84-4.64,13.36-6.38,19.25-11.03C888.36,674.37,884.12,670.18,881.15,672.53z"/>
		<path class="st0" d="M880.66,683.94c-7.53,2.17-14.58,5.19-20.65,10.23c-2.95,2.45,1.28,6.64,4.21,4.21
			c5.25-4.35,11.54-6.83,18.03-8.7C885.92,688.63,884.36,682.88,880.66,683.94z"/>
		<path class="st0" d="M882.41,693.19c-6.51,1.2-12.68,3.37-18.56,6.39c-3.41,1.75-0.4,6.89,3,5.14c5.44-2.8,11.13-4.68,17.14-5.79
			C887.75,698.24,886.16,692.5,882.41,693.19z"/>
		<path class="st0" d="M878.86,710.32c-4.04,3.68-10.93,5.31-15.97,7.17c-3.56,1.32-2.02,7.08,1.58,5.74
			c6.1-2.26,13.7-4.25,18.59-8.7C885.9,711.94,881.68,707.74,878.86,710.32z"/>
		<path class="st0" d="M884.85,719.2c-7.2,1.56-14.32,3.4-21.37,5.53c-3.66,1.11-2.1,6.85,1.58,5.74
			c7.05-2.13,14.17-3.97,21.37-5.53C890.17,724.14,888.59,718.4,884.85,719.2z"/>
		<path class="st0" d="M883.5,728.41c-5.62,0.94-11.09,2.39-16.44,4.36c-3.57,1.31-2.02,7.07,1.58,5.74
			c5.35-1.97,10.81-3.42,16.44-4.36C888.85,733.52,887.25,727.78,883.5,728.41z"/>
		<path class="st0" d="M884,734.55c-5.66,1.63-11.32,3.26-16.98,4.89c-3.67,1.06-2.11,6.8,1.58,5.74
			c5.66-1.63,11.32-3.26,16.98-4.89C889.26,739.23,887.69,733.49,884,734.55z"/>
		<path class="st0" d="M882.41,701.9c-6.39,1.98-12.77,3.96-19.16,5.94c-3.65,1.13-2.09,6.88,1.58,5.74
			c6.39-1.98,12.77-3.96,19.16-5.94C887.64,706.51,886.09,700.76,882.41,701.9z"/>
		<path class="st0" d="M876.91,665.7c-5.64,2.02-10.92,4.71-15.79,8.19c-3.09,2.21-0.12,7.37,3,5.14c4.45-3.18,9.21-5.74,14.37-7.59
			C882.08,670.16,880.53,664.41,876.91,665.7z"/>
		<path d="M1075.15,625.89c1.3-1.92-0.06-3.75-1.82-4.23c-0.01,0-0.02-0.01-0.03-0.01c-0.41-0.94-1.26-1.68-2.58-1.72
			c-52.47-1.61-104.98-1.98-157.46-1.09c-1.11,0.02-1.89,0.54-2.36,1.26c-0.33,0.21-0.63,0.49-0.89,0.86
			c-10.87,15.55-32.79,17.82-43.54,33.63c-0.57,0.06-1.15,0.31-1.67,0.79c-2.53,2.33-4.14,4.99-5.09,8.3
			c-0.14,0.5-0.14,0.98-0.03,1.43c-0.13,0.33-0.21,0.7-0.21,1.12c0,17.79,0.41,35.57,1.21,53.35c0.03,0.66,0.24,1.2,0.55,1.63
			c1.38,8.33,1.91,16.69,1.65,25.14c-0.12,3.83,5.84,3.83,5.95,0c0.29-9.41-0.43-18.69-2.06-27.95c-0.05-0.26-0.12-0.5-0.22-0.71
			c-0.73-16.71-1.11-33.43-1.13-50.16c40.26,1.18,80.52,2.35,120.78,3.53c10.22,0.3,20.44,0.6,30.66,0.9
			c5.27,0.15,10.55,0.41,15.82,0.46c1.66,0.02,3.28-0.02,4.85-0.24c-4.48,24.9-5.97,50.18-4.31,75.44c0.25,3.8,6.21,3.83,5.95,0
			c-1.67-25.47-0.21-50.98,4.5-76.08c0.12-0.65,0.04-1.24-0.17-1.74c2.2-1.64,3.81-3.88,5.41-6.08c3.01-4.13,5.92-8.34,8.85-12.53
			c3.57-5.1,7.11-10.23,10.62-15.37c-1.47,38.12-1.96,76.26-1.44,114.4c0.05,3.83,6.01,3.84,5.95,0
			c-0.56-41.24,0.05-82.49,1.81-123.69C1074.86,626.31,1075,626.1,1075.15,625.89z M1053.73,646.6c-2.56,3.67-5.14,7.33-7.73,10.98
			c-2.31,3.26-4.65,7.79-8.89,8.74c-4.98,1.11-11.21-0.05-16.29-0.2c-4.62-0.13-9.23-0.27-13.85-0.4
			c-9.56-0.28-19.12-0.56-28.68-0.84c-37.04-1.08-74.08-2.16-111.11-3.25c0.23-0.32,0.49-0.64,0.76-0.95
			c0.97,0.07,1.96-0.33,2.6-1.41c9.88-16.64,32.51-19.07,44.01-34.49c51.16-0.84,102.33-0.5,153.47,1.03
			C1063.29,632.77,1058.54,639.71,1053.73,646.6z"/>
		<g>
			<g>
				<path d="M706.17,704.06c3.85,0,3.85-5.98,0-5.98C702.32,698.08,702.31,704.06,706.17,704.06L706.17,704.06z"/>
			</g>
			<g>
				<g>
					<path class="st0" d="M967.68,155.35c-28.67-11.51-32.99,33.15-25.96,50.39c10.46,25.65,46.59,21.17,57.71-1.56
						c1.72-3.52-2.71-7.54-5.69-4.39c-10.29,10.92-28.48,24.63-41.42,7.8c-4.94-6.42-5.93-15.37-5.85-23.32
						c0.11-10.88,5.06-27.55,19.55-22.94C969.92,162.58,971.3,156.8,967.68,155.35L967.68,155.35z"/>
				</g>
				<g>
					<path class="st0" d="M932.28,180.63c4.01-1.69,8.12-3.26,11.96-5.31c3.65-1.95,1.22-7.17-2.64-5.81
						c-4.11,1.45-8.04,3.42-11.99,5.25C925.84,176.5,928.45,182.23,932.28,180.63L932.28,180.63z"/>
				</g>
				<g>
					<path class="st0" d="M929.13,196.19c4.2-1.78,8.42-3.77,12.36-6.07c3.49-2.04,1.13-7.36-2.7-5.75
						c-4.21,1.77-8.33,3.95-12.28,6.24C923.11,192.58,925.43,197.76,929.13,196.19L929.13,196.19z"/>
				</g>
				<g>
					<path class="st0" d="M931.35,212.87c5.57-2.65,10.16-6.68,13.56-11.83c2.29-3.47-3.08-6.36-5.46-3.19
						c-3.05,4.05-6.77,7.26-11.2,9.72C924.76,209.52,927.83,214.55,931.35,212.87L931.35,212.87z"/>
				</g>
				<g>
					<path class="st0" d="M937.49,222.83c5.59-2.69,10.22-6.74,13.46-12.04c2.13-3.49-3.16-6.47-5.43-3.17
						c-2.92,4.25-6.55,7.53-11.16,9.87C930.79,219.3,933.93,224.55,937.49,222.83L937.49,222.83z"/>
				</g>
				<g>
					<g>
						<path class="st0" d="M700.29,216.49c-10.7-9.93-16.59,3.31-17.72,12.92c-4.9,41.64-0.41,86.63-0.6,128.59
							c-0.37,84.25-0.81,168.5-1.17,252.75c-0.18,41.39-0.35,82.77-0.53,124.16c-0.04,8.57-4.03,27.52,2.21,35.33
							c5.21,6.53,19.07,5.88,26.58,6.71c41.42,4.61,83.39,1.82,124.94,0.95c40.82-0.85,81.66-1.32,122.49-1.4
							c46.67-0.09,93.33,0.41,139.99,1.29c16.22,0.31,62.3,10.1,64.8-15.94c0.45-4.72-6.89-4.67-7.36,0
							c-1.73,17.19-108.54,7.55-123.06,7.43c-40.83-0.35-81.67-0.33-122.5,0.06c-40.73,0.4-81.44,1.42-122.16,2.31
							c-20.02,0.44-40.08,0.72-60.08-0.59c-17.47-1.14-34.51,3.2-38.58-18.42c-1.79-9.54,0.09-21.29,0.12-31.04
							c0.33-82.77,0.68-165.54,0.96-248.32c0.14-41.39,0.28-82.77,0.44-124.16c0.08-20.69,0.16-41.39,0.24-62.08
							c0.04-10.35,0.08-20.69,0.12-31.04c0.01-1.62,0.41-40.1,6.54-35.2C698.97,223.21,703.24,219.23,700.29,216.49L700.29,216.49z"
							/>
					</g>
					<g>
						<path class="st0" d="M698.67,223.17c-4.51,3.57-8.94,7.26-13.26,11.05c-3.08,2.71,1.37,6.99,4.46,4.46
							c4.44-3.64,8.79-7.41,13.05-11.27C705.84,224.76,701.63,220.83,698.67,223.17L698.67,223.17z"/>
					</g>
					<g>
						<path class="st0" d="M701.65,234.89c-6.67,4.66-13.4,10.47-19.08,16.29c-2.62,2.69,1.59,6.7,4.47,4.6
							c6.56-4.79,13.2-10.71,18.74-16.64C708.18,236.58,704.33,233.01,701.65,234.89L701.65,234.89z"/>
					</g>
					<g>
						<path class="st0" d="M701.04,251.04c-7.69,4.86-14.71,11.52-19.54,19.27c-2.14,3.42,2.44,7.24,5.05,3.94
							c5.45-6.9,11.25-12.92,18.3-18.21C708.14,253.57,704.41,248.91,701.04,251.04L701.04,251.04z"/>
					</g>
					<g>
						<path class="st0" d="M701.41,268.39c-7.15,4.01-13.69,9.82-17.48,17.2c-1.91,3.71,3.19,6.62,5.55,3.24
							c4.19-6,8.78-11.2,15.03-15.14C707.85,271.59,704.88,266.45,701.41,268.39L701.41,268.39z"/>
					</g>
					<g>
						<path class="st0" d="M699.45,285.28c-4.67,5.64-9.71,10.86-15.08,15.83c-3.07,2.84,1.39,7.05,4.51,4.51
							c5.9-4.8,10.99-10.43,15.41-16.61C706.32,286.19,701.69,282.58,699.45,285.28L699.45,285.28z"/>
					</g>
					<g>
						<path class="st0" d="M702.62,299.89c-6.17,5.72-12.37,11.41-18.26,17.44c-2.93,3.01,1.51,7.4,4.59,4.59
							c6.23-5.67,12.12-11.67,18.06-17.64C709.84,301.44,705.54,297.18,702.62,299.89L702.62,299.89z"/>
					</g>
					<g>
						<path class="st0" d="M699.57,317.87c-6.21,6.8-9.81,10.81-15.7,17.9c-2.58,3.11,1.71,7.59,4.51,4.51
							c6.2-6.82,9.68-10.94,15.55-18.04C706.41,319.22,702.28,314.9,699.57,317.87L699.57,317.87z"/>
					</g>
					<g>
						<path class="st0" d="M700.61,335.33c-6.59,6.94-10.49,12.86-16.71,20.13c-2.64,3.08,1.63,7.5,4.51,4.51
							c6.64-6.89,10.3-13.03,16.57-20.26C707.57,336.73,703.38,332.41,700.61,335.33L700.61,335.33z"/>
					</g>
					<g>
						<path class="st0" d="M699.51,356.78c-5.85,6.08-11.39,12.49-16.81,18.96c-2.61,3.11,1.69,7.59,4.52,4.53
							c5.72-6.2,11.37-12.53,16.66-19.1C706.33,358.13,702.34,353.84,699.51,356.78L699.51,356.78z"/>
					</g>
					<g>
						<path class="st0" d="M698.96,380.62c-5.65,5.12-10.98,10.7-16.16,16.3c-2.82,3.05,1.56,7.47,4.57,4.57
							c5.51-5.27,10.99-10.71,16.01-16.45C706.03,382.02,701.96,377.9,698.96,380.62L698.96,380.62z"/>
					</g>
					<g>
						<path class="st0" d="M697.46,401.84c-3.83,3.74-7.74,7.42-11.36,11.37c-2.74,2.99,1.46,7.18,4.44,4.44
							c3.95-3.62,7.63-7.52,11.37-11.35C704.75,403.39,700.36,399,697.46,401.84L697.46,401.84z"/>
					</g>
					<g>
						<path class="st0" d="M699.25,419.86c-4.03,4.1-8,8.25-11.79,12.58c-2.68,3.06,1.62,7.48,4.51,4.51
							c4.01-4.13,7.84-8.41,11.61-12.76C706.14,421.24,702.05,417.02,699.25,419.86L699.25,419.86z"/>
					</g>
					<g>
						<path class="st0" d="M697.16,440.54c-4.36,4.84-8.77,9.64-12.82,14.74c-2.49,3.13,1.64,7.58,4.51,4.51
							c4.46-4.76,8.55-9.83,12.7-14.86C704.06,441.9,699.87,437.53,697.16,440.54L697.16,440.54z"/>
					</g>
					<g>
						<path class="st0" d="M695.67,460.12c-3.96,4.5-8.19,8.89-11.74,13.73c-2.18,2.97,2.5,6.35,5.01,3.86
							c4.05-4.03,7.58-8.7,11.26-13.07C702.82,461.53,698.41,457.01,695.67,460.12L695.67,460.12z"/>
					</g>
					<g>
						<path class="st0" d="M696.11,481.61c-4.31,4.77-8.64,9.54-12.53,14.67c-2.2,2.89,2.55,6.43,4.99,3.85
							c4.24-4.47,8.05-9.36,11.89-14.17C702.86,482.93,698.81,478.62,696.11,481.61L696.11,481.61z"/>
					</g>
					<g>
						<path class="st0" d="M696.81,500.17c-3.94,4.16-9.46,9.47-13.01,13.97c-2.5,3.16,1.49,7.5,4.54,4.54
							c4.12-3.99,9.11-9.79,12.85-14.13c2.57-2.99,0.76-9.78-2.01-6.85L696.81,500.17z"/>
					</g>
					<g>
						<path class="st0" d="M697.91,519.58c-6.12,4.26-11.69,9.55-15.46,16.04c-2.06,3.55,3.1,6.39,5.41,3.16
							c3.79-5.31,7.84-10.05,13.15-13.91C704.14,522.59,701.18,517.31,697.91,519.58L697.91,519.58z"/>
					</g>
					<g>
						<path class="st0" d="M697.43,540.64c-5.04,4.66-8.24,7.14-13.04,12.06c-2.86,2.93,1.41,7.07,4.44,4.44
							c5.19-4.5,8-7.38,12.95-12.14c2.87-2.76,0.58-9.11-2.33-6.42L697.43,540.64z"/>
					</g>
					<g>
						<path class="st0" d="M697.81,556.36c-5.54,5.82-9.9,9.76-15.03,15.95c-2.56,3.1,1.54,7.43,4.49,4.49
							c5.71-5.67,9.6-10.04,14.9-16.09C704.76,557.76,700.58,553.46,697.81,556.36L697.81,556.36z"/>
					</g>
					<g>
						<path class="st0" d="M699.18,577.14c-6.84,5.19-12.66,10.4-17.36,17.65c-1.92,2.96,2.64,6.6,4.95,3.82
							c5.2-6.24,9.83-11.47,16.16-16.61c2.7-2.19-0.35-7.73-3.16-5.6L699.18,577.14z"/>
					</g>
					<g>
						<path class="st0" d="M699.03,594.94c-5.72,6.57-11.64,13.03-16.8,20.05c-2.16,2.93,2.56,6.46,5.01,3.86
							c5.8-6.14,10.92-12.93,16.19-19.52C705.87,596.27,701.69,591.88,699.03,594.94L699.03,594.94z"/>
					</g>
					<g>
						<path class="st0" d="M699.7,616.58c-6,7.43-12.34,14.67-17.75,22.56c-2.04,2.98,2.62,6.6,5.03,3.88
							c6.34-7.16,11.81-15.08,17.57-22.7C706.64,617.54,701.9,613.85,699.7,616.58L699.7,616.58z"/>
					</g>
					<g>
						<path class="st0" d="M698.98,640.28c-6.59,5.59-12.78,12.16-17.07,19.71c-1.74,3.06,2.73,6.87,5.06,3.91
							c5.24-6.67,10.34-13.26,16.41-19.23C706.26,641.82,701.98,637.72,698.98,640.28L698.98,640.28z"/>
					</g>
					<g>
						<path class="st0" d="M699.12,663.19c-5.2,6-10.66,11.87-15.35,18.29c-2.17,2.97,2.58,6.53,5.06,3.91
							c5.27-5.58,9.86-11.84,14.64-17.84C705.9,664.51,701.76,660.14,699.12,663.19L699.12,663.19z"/>
					</g>
					<g>
						<path class="st0" d="M700.8,684.34c-5.65,5.99-11.89,11.82-16.78,18.46c-2.26,3.07,2.48,6.24,5.06,3.91
							c5.91-5.33,10.88-11.98,16.09-17.99C707.76,685.74,703.56,681.41,700.8,684.34L700.8,684.34z"/>
					</g>
					<g>
						<path class="st0" d="M700.85,707.13c-7.9,7.04-15.06,15.56-19.19,25.38c-1.43,3.41,3.99,5.4,5.81,2.45
							c5.26-8.54,8.43-15.96,15.82-22.87C706.25,709.31,703.85,704.46,700.85,707.13L700.85,707.13z"/>
					</g>
					<g>
						<path class="st0" d="M695.43,730.38c-3.87,5.3-7.91,10.66-11.29,16.29c-1.81,3.02,2.75,6.8,5.03,3.88
							c4.2-5.4,7.92-11.28,11.63-17.03C703,730.1,697.74,727.22,695.43,730.38L695.43,730.38z"/>
					</g>
					<g>
						<path class="st0" d="M705.34,752.23c-4.62,5.46-9.38,11.01-13.42,16.92c-2.06,3.01,2.62,6.62,5.06,3.91
							c4.78-5.31,9.05-11.27,13.26-17.05C712.3,753.17,707.62,749.53,705.34,752.23L705.34,752.23z"/>
					</g>
					<g>
						<path class="st0" d="M726.89,753.34c-4.2,5.54-8.42,11.48-11.88,17.51c-2.1,3.66,3.07,6.34,5.49,3.21
							c4.25-5.5,8.13-11.66,11.64-17.65C734.16,752.94,729.18,750.31,726.89,753.34L726.89,753.34z"/>
					</g>
					<g>
						<path class="st0" d="M744.44,753.18c-3.99,5.82-7.84,11.74-11.37,17.85c-2.06,3.57,3.19,6.52,5.47,3.19
							c3.98-5.82,7.65-11.86,11.17-17.97C751.69,752.81,746.64,749.97,744.44,753.18L744.44,753.18z"/>
					</g>
					<g>
						<path class="st0" d="M762.05,753.2c-3.31,5.91-6.66,11.82-9.68,17.88c-1.78,3.58,3.36,6.68,5.41,3.16
							c3.41-5.86,6.48-11.91,9.59-17.93C769.19,752.8,764,749.71,762.05,753.2L762.05,753.2z"/>
					</g>
					<g>
						<path class="st0" d="M782.83,750.79c-5.2,6.02-9.12,13-10.73,20.84c-0.81,3.97,4.9,5.61,6.1,1.68
							c2.01-6.56,4.77-12.7,9.02-18.13C789.62,752.11,785.49,747.7,782.83,750.79L782.83,750.79z"/>
					</g>
					<g>
						<path class="st0" d="M799.13,751.97c-5.56,7.05-10.07,14.51-13.24,22.93c-1.28,3.38,4.39,5.82,5.89,2.48
							c3.41-7.58,7.38-14.88,12.29-21.6C806.15,752.92,801.34,749.17,799.13,751.97L799.13,751.97z"/>
					</g>
					<g>
						<path class="st0" d="M821.46,749.72c-5.03,6.08-9.02,12.69-11.7,20.12c-1.39,3.85,4.51,5.26,6.01,1.66
							c2.59-6.2,5.87-12.15,10.02-17.45C828.17,751,824,746.65,821.46,749.72L821.46,749.72z"/>
					</g>
					<g>
						<path class="st0" d="M840.26,750.9c-4.97,5.41-8.96,12.01-10.78,19.18c-1.01,4.02,4.69,5.44,6.1,1.68
							c2.27-6.01,5.02-11.43,9.1-16.44C847.18,752.27,843.03,747.88,840.26,750.9L840.26,750.9z"/>
					</g>
					<g>
						<path class="st0" d="M859.6,751.58c-3.07,6.63-6.05,13.29-8.85,20.03c-1.36,3.27,4.27,5.67,5.76,2.43
							c3.05-6.64,5.9-13.35,8.68-20.11C866.5,750.76,861.05,748.44,859.6,751.58L859.6,751.58z"/>
					</g>
					<g>
						<path class="st0" d="M880.81,750.93c-5.24,6.17-8.72,13.4-9.52,21.51c-0.34,3.47,5.39,4.24,6.1,0.83
							c1.37-6.57,3.59-12.64,7.77-17.97C887.56,752.24,883.41,747.86,880.81,750.93L880.81,750.93z"/>
					</g>
					<g>
						<path class="st0" d="M901.89,748.79c-4.92,6.56-8.19,13.95-9.58,22.03c-0.68,3.93,5.21,5.69,6.08,1.68
							c1.62-7.45,4.51-14.3,8.85-20.58C909.53,748.59,904.22,745.68,901.89,748.79L901.89,748.79z"/>
					</g>
					<g>
						<path class="st0" d="M923.21,750.21c-6.46,4.06-10.91,10.89-12.45,18.31c-0.82,3.96,5.11,5.66,6.1,1.68
							c1.59-6.37,5.03-11.08,10.02-15.22C929.55,752.77,926.1,748.39,923.21,750.21L923.21,750.21z"/>
					</g>
					<g>
						<path class="st0" d="M943.18,750.54c-5.49,6.23-9.88,13.6-11.78,21.75c-0.92,3.93,4.8,5.5,6.04,1.66
							c2.28-7.05,5.28-13.36,10.14-19.02C950.15,751.92,945.83,747.52,943.18,750.54L943.18,750.54z"/>
					</g>
					<g>
						<path class="st0" d="M956.91,751.53c-2.95,6.68-6.02,13.33-8.64,20.14c-1.29,3.35,4.29,5.72,5.83,2.46
							c3.1-6.61,5.78-13.43,8.56-20.18C963.99,750.69,958.35,748.28,956.91,751.53L956.91,751.53z"/>
					</g>
					<g>
						<path class="st0" d="M979.34,749.78c-3.81,7.01-7.81,13.95-11.32,21.12c-1.76,3.6,3.36,6.7,5.42,3.17
							c4.03-6.88,7.61-14.06,11.34-21.11C986.68,749.39,981.28,746.21,979.34,749.78L979.34,749.78z"/>
					</g>
					<g>
						<path class="st0" d="M997.19,751.41c-2.76,4.83-5.59,9.64-8.1,14.61c-1.82,3.6,3.34,6.69,5.45,3.18
							c2.87-4.78,5.43-9.73,8.04-14.65C1004.46,751.02,999.2,747.91,997.19,751.41L997.19,751.41z"/>
					</g>
					<g>
						<path class="st0" d="M1018.4,755.54c-1.79,4.83-4.09,9.22-6.78,13.6c-1.88,3.05,2.75,6.84,5.08,3.92
							c3.72-4.67,6.38-10.03,7.78-15.84C1025.45,753.21,1019.79,751.77,1018.4,755.54L1018.4,755.54z"/>
					</g>
					<g>
						<path class="st0" d="M1041.13,754.71c-3.14,5.46-6.21,11.1-8.6,16.93c-1.45,3.53,4.12,5.58,6,2.53
							c3.14-5.12,5.72-10.73,8.15-16.22C1048.31,754.26,1043.24,751.04,1041.13,754.71L1041.13,754.71z"/>
					</g>
					<g>
						<path class="st0" d="M1063.56,753.19c-3.46,5.77-5.85,12.58-5.62,19.39c0.12,3.48,5.84,4.66,6.4,0.87
							c0.89-6.01,1.93-11.59,4.61-17.11C1070.68,752.77,1065.65,749.71,1063.56,753.19L1063.56,753.19z"/>
					</g>
					<g>
						<path class="st0" d="M1086.2,756.21c-3.61,4.71-5.63,10.48-4.94,16.43c0.48,4.15,6.32,4.32,6.59,0
							c0.3-4.77,1.4-9.08,4.04-13.11C1094.27,755.9,1088.7,752.95,1086.2,756.21L1086.2,756.21z"/>
					</g>
					<g>
						<path class="st0" d="M1108.83,757.58c-3.28,4.68-5.57,10.66-4.83,16.46c0.52,4.03,6.07,4.17,6.38,0
							c0.44-5.91,1.16-11.55,3.83-13.31C1117.61,758.49,1111.1,754.33,1108.83,757.58L1108.83,757.58z"/>
					</g>
					<g>
						<path class="st0" d="M1125.88,759.46c-0.99,2.74-2.03,9.63-2.92,12.4c-1.25,3.91,4.55,5.28,6.01,1.66
							c1.09-2.7,2.04-9.63,3.03-12.37C1133.4,757.3,1127.27,755.64,1125.88,759.46L1125.88,759.46z"/>
					</g>
					<g>
						<path class="st0" d="M1141.23,760.43c-0.05,1.63-0.52,6.28-0.48,7.9c0.1,4.06,6.2,4.06,6.31,0c0.04-1.63,0.53-6.28,0.48-7.9
							c-0.13-4.06-6.17-2.55-6.31,1.51V760.43z"/>
					</g>
				</g>
				<g>
					<g>
						<path d="M1195.5,199.48c-0.36,13.79-0.78,27.59-0.92,41.38c-0.04,4.08,6.18,4.06,6.33,0c0.49-13.79,0.69-27.59,0.97-41.38
							C1201.96,195.37,1195.61,195.38,1195.5,199.48L1195.5,199.48z"/>
					</g>
					<g>
						<path d="M1207.52,200.34c-1.25,31.82-1.1,63.61-3.04,95.43c-0.27,4.35,6.37,4.27,6.73,0c2.65-31.55,4.61-63.8,2.37-95.43
							C1213.3,196.48,1207.68,196.41,1207.52,200.34L1207.52,200.34z"/>
					</g>
					<g>
						<path d="M1189.73,623.46c-0.31,44.46-0.58,89,0.51,133.45c0.1,4.25,6.55,4.26,6.61,0c0.66-44.45-0.05-89-0.79-133.45
							C1195.99,619.39,1189.76,619.38,1189.73,623.46L1189.73,623.46z"/>
					</g>
					<g>
						<path d="M1200.31,692.72c0.35,20.83,0.49,41.7,1.57,62.5c0.22,4.19,6.57,4.25,6.56,0c-0.04-20.83-1.02-41.68-1.78-62.5
							C1206.51,688.65,1200.24,688.62,1200.31,692.72L1200.31,692.72z"/>
					</g>
					<g>
						<path d="M1231.52,731.01c-35.81,0.56-71.55-0.21-107.28-2.69c-4.08-0.28-4.03,6.01,0,6.33c35.74,2.85,71.45,3.85,107.28,2.6
							C1235.52,737.1,1235.55,730.94,1231.52,731.01L1231.52,731.01z"/>
					</g>
					<g>
						<path d="M729.35,192.72c-0.3,10.42-0.65,20.83-0.83,31.25c-0.07,3.98,6.02,3.96,6.17,0c0.38-10.41,0.59-20.83,0.85-31.25
							C735.65,188.74,729.47,188.74,729.35,192.72L729.35,192.72z"/>
					</g>
					<g>
						<path d="M743.38,194.36c1.23,26.57,1.25,52.91-0.82,79.43c-0.33,4.17,6.07,4.09,6.47,0c2.57-26.43,3.03-52.98,0.52-79.43
							C749.18,190.48,743.2,190.34,743.38,194.36L743.38,194.36z"/>
					</g>
					<path d="M1241.02,193.39c0.03-2.32-2.08-3.2-3.8-2.72c-0.03,0-0.05-0.01-0.08-0.01c-77.87,7.74-156.82,4.75-235.14,3.55
						c0.01-0.39,0.06-0.74,0.06-1.13c0.18-23.07-18.93-42.21-42.05-42.27c-22.87-0.06-40.15,20.69-39.62,42.63
						c-26.83-0.2-53.65-0.4-80.48-0.76c-45.02-0.59-91.97-6.62-136.72-1.36c-0.75,0.09-1.31,0.43-1.77,0.85
						c-1.51,0.01-2.94,0.98-2.83,2.96c5.41,93.66-0.05,186.9-2.16,280.55c-2.09,92.68,6.65,185.02,0.67,277.65
						c0,0.05,0.02,0.09,0.02,0.14c-0.61,1.9,0.33,4.27,2.9,4.15c88.22-4.29,176.35-6.57,264.68-4.28
						c89.08,2.31,178.04,8.85,267.2,6.03c2.27-0.07,3.34-1.95,3.24-3.71c0.22-0.45,0.36-0.96,0.31-1.6
						C1222.97,567.58,1238.64,379.98,1241.02,193.39z M929.07,182.45c3.6-10.45,11.41-19.22,22.62-22.36
						c16.16-4.52,34.72,5.39,39.96,21.26c7.17,21.73-5.83,42.05-28.85,42.87c-13.83,0.49-27.17-6.28-31.87-17.83
						c-1.37-1.99-2.22-4.14-2.81-6.48c0.17,0,0.35,0,0.52,0.01c-0.58-1.33-0.95-2.75-1.23-4.21c-0.06-0.8-0.16-1.59-0.17-2.41
						c0.01-0.34-0.01-0.69-0.01-1.03c-0.02-0.08-0.04-0.11-0.06-0.21C926.08,188.71,927.02,185.16,929.07,182.45z M964.72,746.55
						c-86.84-2.25-173.99-1.3-260.69,4.41c5.69-91.83-2.83-183.39-0.76-275.28c2.09-92.72,9.19-185.77,1.66-278.41
						c44.3-4.72,90.5,1.14,135,1.73c26.93,0.36,53.86,0.59,80.79,0.82c-1.01,36.84,73.08,47.97,80.68,0.9
						c77.76,1.28,156.08,3.88,233.49-2.85c-7.75,183.91-17.83,370.94-6.27,554.76C1140.56,755.2,1052.7,748.83,964.72,746.55z"/>
				</g>
			</g>
		</g>
		<g>
			<g>
				<path class="st0" d="M850.44,819.04v71.92h-14.43v-71.92H850.44z"/>
				<path class="st0" d="M879.39,878.8h32.36v12.16H862.7v-11.13l32.15-48.64H862.7v-12.16h49.05v11.13L879.39,878.8z"/>
				<path class="st0" d="M974.81,860.15c2.61,3.3,3.92,7.08,3.92,11.33c0,3.85-0.94,7.23-2.83,10.15c-1.89,2.92-4.62,5.2-8.19,6.85
					c-3.57,1.65-7.8,2.47-12.67,2.47h-31.02v-71.92h29.68c4.88,0,9.08,0.79,12.62,2.37c3.54,1.58,6.22,3.78,8.04,6.59
					c1.82,2.82,2.73,6.01,2.73,9.58c0,4.19-1.12,7.7-3.35,10.51c-2.23,2.82-5.2,4.81-8.91,5.98
					C968.87,854.83,972.2,856.85,974.81,860.15z M938.44,848.71h13.19c3.44,0,6.08-0.77,7.93-2.32s2.78-3.76,2.78-6.65
					c0-2.88-0.93-5.12-2.78-6.7c-1.85-1.58-4.5-2.37-7.93-2.37h-13.19V848.71z M961.16,876.74c1.96-1.65,2.94-3.98,2.94-7.01
					c0-3.09-1.03-5.51-3.09-7.26c-2.06-1.75-4.84-2.63-8.35-2.63h-14.22v19.37h14.53C956.47,879.21,959.2,878.39,961.16,876.74z"/>
				<path class="st0" d="M1005.1,886.94c-5.63-3.16-10.1-7.54-13.4-13.14c-3.3-5.6-4.95-11.94-4.95-19.01
					c0-7.01,1.65-13.31,4.95-18.91c3.3-5.6,7.76-9.98,13.4-13.14c5.63-3.16,11.81-4.74,18.55-4.74c6.8,0,13,1.58,18.6,4.74
					c5.6,3.16,10.03,7.54,13.29,13.14c3.26,5.6,4.89,11.9,4.89,18.91c0,7.08-1.63,13.41-4.89,19.01c-3.26,5.6-7.71,9.98-13.34,13.14
					c-5.63,3.16-11.82,4.74-18.55,4.74C1016.92,891.68,1010.73,890.1,1005.1,886.94z M1035.09,875.86c3.3-1.96,5.87-4.76,7.73-8.4
					c1.85-3.64,2.78-7.86,2.78-12.67c0-4.81-0.93-9.02-2.78-12.62c-1.86-3.61-4.43-6.37-7.73-8.29c-3.3-1.92-7.11-2.88-11.44-2.88
					c-4.33,0-8.16,0.96-11.49,2.88c-3.33,1.92-5.92,4.69-7.78,8.29c-1.85,3.61-2.78,7.82-2.78,12.62c0,4.81,0.93,9.03,2.78,12.67
					c1.85,3.64,4.45,6.44,7.78,8.4s7.16,2.94,11.49,2.94C1027.98,878.8,1031.79,877.82,1035.09,875.86z"/>
				<path class="st0" d="M1108.24,890.96l-15.87-28.03h-6.8v28.03h-14.43v-71.92h27c5.56,0,10.3,0.98,14.22,2.94
					c3.92,1.96,6.85,4.6,8.81,7.93c1.96,3.33,2.94,7.06,2.94,11.18c0,4.74-1.37,9.02-4.12,12.83s-6.84,6.44-12.26,7.88l17.21,29.16
					H1108.24z M1085.58,852.11h12.06c3.92,0,6.84-0.94,8.76-2.83c1.92-1.89,2.89-4.52,2.89-7.88c0-3.3-0.96-5.86-2.89-7.68
					c-1.92-1.82-4.84-2.73-8.76-2.73h-12.06V852.11z"/>
				<path class="st0" d="M1151.62,819.04v71.92h-14.43v-71.92H1151.62z"/>
			</g>
			<g>
				<g>
					<path id="XMLID_00000029746163453263560620000003740775409400498570_" class="st0" d="M809.67,879.26
						c-2.17,1.08-6.25,3.02-10.99,3.36c-0.84,0.06-1.46,0.05-1.66,0.05c-4.28-0.07-7.56-1.71-8.64-2.36
						c-4.02-2.42-6.83-8.87-6.18-16.35l0.07-1.96c1.75-0.04,4.65-0.16,7.5-0.53c3.14-0.41,6.06-0.99,8.68-1.73
						c3.15-0.89,8.43-2.38,13.88-6.34c6.13-4.44,10.04-9.48,11.61-14.98c0.58-2.02,0.87-4.16,0.87-6.34c0-4.23-1.1-7.47-3.5-10.23
						c-2.59-2.59-5.71-3.85-9.53-3.85c-5.28,0-10.02,1.17-14.48,3.58c-5.34,2.76-10.42,6.88-15.09,12.24
						c-9.31,10.74-13.83,21.83-13.83,33.91c0,6.69,1.88,12.1,5.76,16.53c0.95,1.09,2.5,2.57,4.65,3.9
						c3.91,2.41,7.67,2.93,10.29,3.27c1.08,0.14,2.37,0.25,3.83,0.25c1.27,0.01,4.76-0.06,10.02-1.56c4.64-1.33,7.92-3,10.76-4.47
						c2.75-1.42,6.36-3.5,10.37-6.45l0.22-0.17l0.03-8.43l-0.91,0.68C820.04,873.52,815.28,876.48,809.67,879.26z M806.54,826.82
						c0.35,0,0.71,0.02,1.06,0.06c1.99,0.21,3.35,1.02,4.18,2.49c0.86,1.52,1.13,3.77,0.83,6.7c-0.36,3.44-1.52,5.93-2.17,7.1
						c-2.1,3.75-5,5.69-6.39,6.63c-0.99,0.66-2.02,1.2-2.04,1.21c-0.86,0.45-1.75,0.82-2.33,1.04c0,0-1.8,0.6-3.73,1.17
						c-2.59,0.75-6.6,1.14-12.94,1.26c1.7-7.5,4.96-13.98,9.95-19.78c2.31-2.64,4.68-4.67,6.86-5.86
						C802.1,827.49,804.36,826.82,806.54,826.82z"/>
				</g>
			</g>
		</g>
	</g>
</g>
</svg>
