<?xml version="1.0" encoding="utf-8"?>
<!-- Generator: Adobe Illustrator 26.0.1, SVG Export Plug-In . SVG Version: 6.00 Build 0)  -->
<svg version="1.1" id="Layer_1" xmlns="http://www.w3.org/2000/svg" xmlns:xlink="http://www.w3.org/1999/xlink" x="0px" y="0px"
	 viewBox="0 0 1920 1080" style="enable-background:new 0 0 1920 1080;" xml:space="preserve">
<style type="text/css">
	.st0{fill:#C3272E;}
</style>
<g>
	<g>
		<path d="M639.19,435.15v210.6h-42.24v-210.6H639.19z"/>
		<path d="M723.97,610.15h94.74v35.6H675.09v-32.58l94.14-142.41h-94.14v-35.6h143.62v32.59L723.97,610.15z"/>
		<path d="M1003.36,555.54c7.64,9.65,11.47,20.72,11.47,33.19c0,11.27-2.77,21.17-8.3,29.72C1001,627,993,633.68,982.54,638.51
			c-10.46,4.82-22.83,7.24-37.11,7.24h-90.82v-210.6h86.9c14.28,0,26.6,2.32,36.96,6.94c10.36,4.63,18.2,11.07,23.53,19.31
			c5.33,8.25,8,17.61,8,28.06c0,12.27-3.27,22.53-9.81,30.77c-6.54,8.25-15.24,14.08-26.1,17.5
			C985.96,539.95,995.72,545.88,1003.36,555.54z M896.86,522.05h38.62c10.06,0,17.8-2.26,23.23-6.79
			c5.43-4.53,8.15-11.01,8.15-19.46c0-8.45-2.72-14.98-8.15-19.61c-5.43-4.62-13.17-6.94-23.23-6.94h-38.62V522.05z M963.38,604.12
			c5.73-4.83,8.6-11.66,8.6-20.52c0-9.05-3.02-16.14-9.05-21.27c-6.04-5.13-14.18-7.69-24.44-7.69h-41.64v56.72h42.54
			C949.66,611.36,957.65,608.94,963.38,604.12z"/>
		<path d="M1092.06,633.99c-16.5-9.25-29.57-22.07-39.22-38.47c-9.65-16.39-14.48-34.95-14.48-55.67c0-20.52,4.83-38.97,14.48-55.37
			c9.66-16.39,22.73-29.22,39.22-38.47c16.49-9.25,34.59-13.88,54.31-13.88c19.91,0,38.06,4.63,54.46,13.88
			c16.39,9.26,29.37,22.08,38.92,38.47c9.55,16.39,14.33,34.85,14.33,55.37c0,20.72-4.78,39.27-14.33,55.67
			c-9.56,16.39-22.58,29.22-39.07,38.47c-16.5,9.25-34.6,13.88-54.31,13.88C1126.66,647.86,1108.56,643.24,1092.06,633.99z
			 M1179.86,601.55c9.65-5.73,17.2-13.93,22.63-24.59c5.43-10.66,8.14-23.03,8.14-37.11c0-14.08-2.71-26.4-8.14-36.96
			c-5.43-10.56-12.98-18.65-22.63-24.29c-9.65-5.63-20.82-8.45-33.49-8.45c-12.67,0-23.89,2.82-33.64,8.45
			c-9.76,5.64-17.35,13.73-22.78,24.29c-5.43,10.56-8.15,22.88-8.15,36.96c0,14.08,2.72,26.45,8.15,37.11
			c5.43,10.66,13.02,18.86,22.78,24.59s20.97,8.6,33.64,8.6C1159.05,610.15,1170.21,607.28,1179.86,601.55z"/>
		<path d="M1394.08,645.75l-46.46-82.07h-19.91v82.07h-42.24v-210.6h79.05c16.29,0,30.17,2.87,41.64,8.6
			c11.47,5.73,20.06,13.48,25.8,23.23c5.73,9.76,8.6,20.67,8.6,32.74c0,13.88-4.02,26.4-12.07,37.56s-20.02,18.86-35.9,23.08
			l50.38,85.39H1394.08z M1327.7,532.01h35.3c11.47,0,20.02-2.76,25.65-8.3c5.63-5.53,8.45-13.22,8.45-23.08
			c0-9.65-2.82-17.15-8.45-22.48c-5.63-5.32-14.18-7.99-25.65-7.99h-35.3V532.01z"/>
		<path d="M1521.1,435.15v210.6h-42.24v-210.6H1521.1z"/>
	</g>
	<g>
		<g>
			<path id="XMLID_00000029746163453263560620000003740775409400498570_" class="st0" d="M519.82,611.49
				c-6.34,3.15-18.31,8.83-32.18,9.84c-2.47,0.18-4.27,0.16-4.86,0.15c-12.52-0.22-22.14-4.99-25.31-6.9
				c-11.77-7.08-19.99-25.97-18.1-47.87l0.21-5.73c5.12-0.12,13.62-0.47,21.95-1.55c9.19-1.2,17.73-2.9,25.4-5.06
				c9.23-2.61,24.69-6.97,40.65-18.55c17.96-13.01,29.4-27.77,34.01-43.87c1.7-5.92,2.56-12.18,2.56-18.58
				c0-12.37-3.23-21.86-10.26-29.96c-7.59-7.59-16.72-11.28-27.9-11.28c-15.46,0-29.34,3.43-42.4,10.47
				c-15.64,8.08-30.5,20.14-44.19,35.85c-27.26,31.46-40.51,63.93-40.51,99.28c0,19.6,5.52,35.43,16.86,48.39
				c2.79,3.19,7.31,7.54,13.61,11.43c11.44,7.07,22.47,8.59,30.12,9.56c3.16,0.4,6.94,0.72,11.2,0.74
				c3.72,0.02,13.95-0.16,29.33-4.57c13.6-3.89,23.2-8.8,31.5-13.09c8.04-4.16,18.63-10.25,30.37-18.88l0.65-0.5l0.09-24.7l-2.66,2
				C550.16,594.68,536.23,603.34,519.82,611.49z M510.63,457.93c1.04,0,2.07,0.05,3.1,0.16c5.82,0.61,9.82,2.99,12.24,7.28
				c2.51,4.44,3.32,11.04,2.42,19.61c-1.06,10.09-4.44,17.35-6.36,20.79c-6.15,10.98-14.63,16.67-18.7,19.41
				c-2.89,1.94-5.92,3.52-5.96,3.54c-2.51,1.31-5.13,2.39-6.81,3.04c-0.01,0-5.26,1.77-10.94,3.42c-7.59,2.2-19.33,3.35-37.88,3.68
				c4.97-21.95,14.51-40.92,29.14-57.93c6.77-7.73,13.71-13.66,20.09-17.16C497.64,459.9,504.25,457.93,510.63,457.93z"/>
		</g>
	</g>
</g>
</svg>
