<?xml version="1.0" encoding="utf-8"?>
<!-- Generator: Adobe Illustrator 27.0.0, SVG Export Plug-In . SVG Version: 6.00 Build 0)  -->
<svg version="1.1" xmlns="http://www.w3.org/2000/svg" xmlns:xlink="http://www.w3.org/1999/xlink" x="0px" y="0px"
	 viewBox="0 0 1920 1080" style="enable-background:new 0 0 1920 1080;" xml:space="preserve">
<style type="text/css">
	.st0{fill:#FFFFFF;}
</style>
<g id="Layer_1">
</g>
<g id="dizajn">
	<g>
		<g>
			<path d="M706.17,704.06c3.85,0,3.85-5.98,0-5.98C702.32,698.08,702.31,704.06,706.17,704.06L706.17,704.06z"/>
		</g>
		<g>
			<path d="M793.73,308.19c-5.22,5.03-10.23,10.4-15.02,15.84c-2.64,3,1.56,7.31,4.43,4.43c5.11-5.14,10.14-10.5,14.82-16.04
				C800.41,309.52,796.54,305.48,793.73,308.19L793.73,308.19z"/>
		</g>
		<g>
			<path d="M807.8,307.68c-8.87,8.42-17.8,16.83-26.34,25.59c-2.85,2.93,1.5,7.25,4.48,4.48c8.94-8.35,17.55-17.08,26.16-25.77
				C814.85,309.19,810.63,304.99,807.8,307.68L807.8,307.68z"/>
		</g>
		<g>
			<path d="M815.14,315.59c-13.24,10.1-26.13,21.22-36.86,34.02c-2.59,3.08,1.58,7.46,4.49,4.49
				c11.58-11.83,23.14-23.33,36.09-33.68C821.56,318.26,817.92,313.48,815.14,315.59L815.14,315.59z"/>
		</g>
		<g>
			<path d="M817.51,325.5c-11.73,10.4-22.84,21.71-32.62,33.97c-2.46,3.09,1.7,7.52,4.44,4.44c10.48-11.75,21.14-23.18,32.52-34.07
				C824.73,327.08,820.45,322.89,817.51,325.5L817.51,325.5z"/>
		</g>
		<g>
			<path d="M821.05,338.8c-12.84,11.32-25.42,23.53-36.27,36.78c-2.54,3.1,1.59,7.49,4.49,4.49c11.99-12.4,23.71-24.93,36.14-36.92
				C828.29,340.38,824,336.2,821.05,338.8L821.05,338.8z"/>
		</g>
		<g>
			<path d="M821.39,353.72c-14.88,14.7-28.91,30.55-41.28,47.43c-2.13,2.91,2.71,6.68,5.03,3.88c13.21-15.99,26.54-31.7,40.66-46.9
				C828.53,355.2,824.26,350.89,821.39,353.72L821.39,353.72z"/>
		</g>
		<g>
			<path d="M822.98,371.58c-13.41,12.42-26.17,25.68-37.3,40.2c-2.22,2.89,2.68,6.66,5.06,3.91c11.81-13.66,23.69-27.1,36.63-39.71
				C830.25,373.17,825.9,368.87,822.98,371.58L822.98,371.58z"/>
		</g>
		<g>
			<path d="M826.27,386.23c-11.35,10.69-22.07,22.43-30.74,35.42c-2,3,2.8,6.81,5.06,3.91c9.49-12.2,19.1-24.01,30.07-34.93
				C833.51,387.79,829.18,383.49,826.27,386.23L826.27,386.23z"/>
		</g>
		<g>
			<path d="M830.94,395.75c-10.43,10.18-19.93,21.43-27.49,33.92c-2.14,3.54,3.21,6.56,5.49,3.21c7.92-11.69,16.44-22.7,26.41-32.71
				C838.18,397.31,833.81,392.94,830.94,395.75L830.94,395.75z"/>
		</g>
		<g>
			<path d="M838.76,405.17c-8.56,9.21-16.91,18.87-23.87,29.37c-1.96,2.96,2.76,6.72,4.99,3.85c7.59-9.78,15.02-19.57,23.32-28.78
				C845.89,406.63,841.52,402.2,838.76,405.17L838.76,405.17z"/>
		</g>
		<g>
			<path d="M846.07,413.93c-5.92,7.14-12.4,13.63-18.97,20.15c-2.96,2.94,1.41,7.11,4.51,4.51c7.28-6.11,13.58-13.37,19.38-20.87
				C853.14,414.94,848.34,411.2,846.07,413.93L846.07,413.93z"/>
		</g>
		<g>
			<path d="M785.17,379.18c-9.1,11.05-19.41,20.66-30.57,29.58c-2.72,2.17,0.91,6.94,3.75,4.86c11.72-8.57,22.04-18.82,31.17-30.1
				C791.97,380.49,787.69,376.12,785.17,379.18L785.17,379.18z"/>
		</g>
		<g>
			<path d="M789.74,388.6c-12.65,11.6-24.6,24.04-35.02,37.69c-2.19,2.86,2.7,6.66,5.03,3.88c10.87-12.99,22.02-25.57,34.34-37.22
				C796.97,390.22,792.65,385.94,789.74,388.6L789.74,388.6z"/>
		</g>
		<g>
			<path d="M796.75,400.49c-9.24,9.66-18.85,19.09-27.59,29.21c-2.67,3.1,1.55,7.47,4.54,4.54c9.56-9.34,18.39-19.52,27.46-29.35
				C803.88,401.96,799.54,397.58,796.75,400.49L796.75,400.49z"/>
		</g>
		<g>
			<path d="M966.76,302.38c-7.08,2.7-13.03,7.32-16.82,13.95c-2.01,3.51,3.18,6.48,5.38,3.15c3.25-4.92,7.57-8.91,13.06-11.22
				C971.91,306.77,970.49,300.96,966.76,302.38L966.76,302.38z"/>
		</g>
		<g>
			<path d="M978.83,303.89c-11.99,7.32-24.11,16.95-32.54,28.27c-2.25,3.02,2.51,6.34,5.06,3.91c10-9.51,19.33-18.69,30.66-26.73
				C985.26,307.03,982.35,301.74,978.83,303.89L978.83,303.89z"/>
		</g>
		<g>
			<path d="M978.66,314.64c-10.84,9.32-22.48,18.92-32,29.6c-2.3,2.58,0.86,7.5,3.95,5.12c11.56-8.93,22.16-19.95,32.44-30.32
				C985.9,316.16,981.66,312.06,978.66,314.64L978.66,314.64z"/>
		</g>
		<g>
			<path d="M989.59,322.29c-14.56,11.51-29.64,23.71-41.47,38.1c-2.62,3.18,1.43,7.4,4.57,4.57c13.99-12.54,26.88-26.16,41.31-38.27
				C997.11,324.09,992.68,319.85,989.59,322.29L989.59,322.29z"/>
		</g>
		<g>
			<path d="M988.53,335.96c-18.47,14.81-44.4,30.62-54.22,53.07c-1.67,3.81,3.51,7.13,5.73,3.35
				c12.54-21.43,34.51-35.91,52.89-52.02C995.98,337.68,991.59,333.51,988.53,335.96L988.53,335.96z"/>
		</g>
		<g>
			<path d="M985.42,353.87c-18.06,17-36.13,34.45-52.14,53.43c-2.69,3.18,1.64,7.7,4.64,4.64c17.44-17.77,34.2-36.14,51.94-53.62
				C992.75,355.46,988.36,351.1,985.42,353.87L985.42,353.87z"/>
		</g>
		<g>
			<path d="M984.91,374.44c-17.18,15.03-35.36,29.63-51.33,45.95c-3.07,3.14,1.43,7.3,4.71,4.71c17.89-14.18,34.3-30.72,51.05-46.24
				C992.31,376.11,987.92,371.81,984.91,374.44L984.91,374.44z"/>
		</g>
		<g>
			<path d="M994.86,382.79c-15.08,13.37-30.73,26.73-44.71,41.25c-3,3.12,1.45,7.35,4.67,4.67c15.52-12.86,30.01-27.45,44.46-41.5
				C1002.2,384.38,997.86,380.13,994.86,382.79L994.86,382.79z"/>
		</g>
		<g>
			<path d="M1001.38,390.91c-11.67,10.97-23.79,21.71-34.78,33.37c-2.94,3.12,1.5,7.47,4.67,4.67
				c12.02-10.59,23.16-22.34,34.51-33.64C1008.65,392.48,1004.31,388.17,1001.38,390.91L1001.38,390.91z"/>
		</g>
		<g>
			<path d="M1011.32,399.06c-7.83,9.67-16.3,18.22-25.21,26.87c-2.64,2.56,0.98,7.61,4.05,5.25c10.09-7.76,18.93-17.82,26-28.38
				C1018.08,399.92,1013.54,396.32,1011.32,399.06L1011.32,399.06z"/>
		</g>
		<g>
			<path d="M1136.56,307.63c-7.47,4.55-14.41,9.88-20.47,16.2c-2.78,2.9,1.51,7.2,4.41,4.41c5.93-5.7,12.22-10.87,19.18-15.28
				C1143.01,310.84,1139.97,305.55,1136.56,307.63L1136.56,307.63z"/>
		</g>
		<g>
			<path d="M1141.13,315.26c-9.59,6.23-18.68,13.34-26.49,21.72c-2.8,3,1.52,7.33,4.51,4.51c7.95-7.51,16.12-14.62,25.12-20.87
				C1147.51,318.37,1144.52,313.06,1141.13,315.26L1141.13,315.26z"/>
		</g>
		<g>
			<path d="M1146.53,324.08c-9.92,7.53-19.6,15.76-27.58,25.38c-2.58,3.12,1.58,7.51,4.53,4.53c8.62-8.76,17.16-17.37,26.77-25.08
				C1152.94,326.74,1149.31,321.97,1146.53,324.08L1146.53,324.08z"/>
		</g>
		<g>
			<path d="M1147.01,338.51c-12.08,10.07-24.26,20.03-36.06,30.43c-3.1,2.73,1.37,7,4.48,4.48c12.21-9.91,24.05-20.27,35.98-30.51
				C1154.46,340.29,1150.06,335.98,1147.01,338.51L1147.01,338.51z"/>
		</g>
		<g>
			<path d="M1148.89,348.51c-9.01,8.88-18.5,17.18-28.12,25.39c-3.17,2.71,1.35,6.97,4.51,4.51c9.97-7.78,19.2-16.42,28.05-25.45
				C1156.17,350.06,1151.78,345.67,1148.89,348.51L1148.89,348.51z"/>
		</g>
		<g>
			<path d="M1143.85,364.58c-5.92,5.44-11.86,10.87-17.73,16.36c-2.93,2.74,1.45,7.08,4.39,4.39c5.94-5.42,11.82-10.91,17.72-16.38
				C1151.16,366.23,1146.78,361.88,1143.85,364.58L1143.85,364.58z"/>
		</g>
		<g>
			<path d="M1116.74,383.38c-11.09,8.19-22.29,16.26-33.16,24.76c-2.8,2.19,0.91,7.06,3.83,4.97c11-7.87,21.68-16.19,32.46-24.36
				C1123.01,386.37,1119.98,380.99,1116.74,383.38L1116.74,383.38z"/>
		</g>
		<g>
			<path d="M1131.62,383.77c-14.85,10.12-29.45,20.87-42.72,33.02c-3.04,2.78,1.38,6.98,4.46,4.46
				c13.54-11.08,27.04-22.1,41.36-32.17C1137.92,386.82,1134.91,381.53,1131.62,383.77L1131.62,383.77z"/>
		</g>
		<g>
			<path d="M1149.67,382.36c-22.29,17.16-45,33.77-67.3,50.92c-3.19,2.45-0.2,7.97,3.24,5.55c23.21-16.34,45.6-33.94,67.87-51.54
				C1156.25,385.1,1152.5,380.18,1149.67,382.36L1149.67,382.36z"/>
		</g>
		<g>
			<path d="M1154.33,391.37c-17.13,14.51-34.84,27.98-52.75,41.49c-3.23,2.44-0.32,7.9,3.27,5.59
				c19.15-12.33,37.26-27.15,53.86-42.7C1161.65,392.99,1157.33,388.83,1154.33,391.37L1154.33,391.37z"/>
		</g>
		<g>
			<path d="M1159.26,401.66c-16.55,11.81-33.27,24.99-47.12,39.92c-2.89,3.11,1.43,7.3,4.61,4.61
				c15.52-13.14,30.41-26.87,46.29-39.63C1165.77,404.36,1162.15,399.6,1159.26,401.66L1159.26,401.66z"/>
		</g>
		<g>
			<path d="M1168.88,407.55c-11.43,9.38-23.19,19.07-33.59,29.59c-3.05,3.08,1.4,7.14,4.62,4.62c11.65-9.1,22.65-19.62,33.31-29.87
				C1176.13,409.1,1171.88,405.08,1168.88,407.55L1168.88,407.55z"/>
		</g>
		<g>
			<path d="M1168.26,421.45c-6.18,5.1-12.33,10.4-18.06,16.01c-3.07,3.01,1.44,7.28,4.64,4.64c6.19-5.09,12.11-10.63,17.84-16.23
				C1175.62,423.02,1171.31,418.93,1168.26,421.45L1168.26,421.45z"/>
		</g>
		<g>
			<path d="M1177.53,427.49c-3.71,3.85-7.52,7.63-11.03,11.67c-2.68,3.1,1.55,7.46,4.54,4.54c3.83-3.74,7.37-7.77,11-11.71
				C1184.81,428.99,1180.4,424.52,1177.53,427.49L1177.53,427.49z"/>
		</g>
		<g>
			<path d="M970.87,470.78c-9.25,8.5-17.81,18.02-24.81,28.47c-1.99,2.96,2.76,6.73,5.01,3.86c7.63-9.76,15.44-19.17,24.12-28.02
				C977.94,472.28,973.75,468.14,970.87,470.78L970.87,470.78z"/>
		</g>
		<g>
			<path d="M988.19,476.73c-13.81,11.99-27.27,25.05-38.51,39.53c-2.44,3.14,1.66,7.62,4.51,4.51
				c12.48-13.62,24.77-27.13,38.34-39.7C995.45,478.36,991.15,474.16,988.19,476.73L988.19,476.73z"/>
		</g>
		<g>
			<path d="M994.76,491.4c-14.04,13.15-28.08,27.63-38.51,43.88c-1.96,3.05,2.72,6.8,5.1,3.93c12.35-14.87,23.99-29.82,37.77-43.45
				C1001.95,492.96,997.65,488.69,994.76,491.4L994.76,491.4z"/>
		</g>
		<g>
			<path d="M999.72,506.25c-9.77,8.57-18.94,17.74-27.46,27.56c-5.85,6.75-15.32,15.2-15.04,24.75c0.12,4.23,6.38,4.22,6.56,0
				c0.39-9.02,13.27-20.15,19.1-26.62c6.71-7.45,13.84-14.52,21.2-21.33C1007.01,507.89,1002.68,503.65,999.72,506.25L999.72,506.25
				z"/>
		</g>
		<g>
			<path d="M1009.1,518.72c-14.75,14.37-28.59,30.14-39.96,47.35c-2.06,3.12,2.92,7.09,5.26,4.06
				c12.53-16.18,25.15-32.01,39.09-47.02C1016.21,520.19,1011.98,515.92,1009.1,518.72L1009.1,518.72z"/>
		</g>
		<g>
			<path d="M1006.96,563.15c-7.62,10.34-16.33,19.58-25.59,28.46c-2.99,2.87,1.41,7.1,4.49,4.49c10.18-8.63,18.86-18.88,26.46-29.82
				C1014.63,562.97,1009.29,559.98,1006.96,563.15L1006.96,563.15z"/>
		</g>
		<g>
			<path d="M1021,571.08c-10.3,12.43-21.12,24.42-31.51,36.78c-2.62,3.12,1.59,7.54,4.54,4.54c11.32-11.5,21.53-24.12,31.46-36.83
				C1027.95,572.41,1023.64,567.89,1021,571.08L1021,571.08z"/>
		</g>
		<g>
			<path d="M1026.55,591.38c-10.58,11.09-20.81,22.51-30.2,34.63c-2.51,3.24,1.85,7.89,4.62,4.62c9.93-11.67,19.78-23.4,30.05-34.78
				C1033.75,592.85,1029.38,588.42,1026.55,591.38L1026.55,591.38z"/>
		</g>
		<g>
			<path d="M963.15,554.6c-17.53,12.6-34.34,27-48.74,43.12c-2.72,3.04,1.54,7.39,4.51,4.51c15.46-15.02,31.07-29.39,47.95-42.81
				C969.57,557.27,965.98,552.56,963.15,554.6L963.15,554.6z"/>
		</g>
		<g>
			<path d="M963.9,572.56c-21.2,17.5-41.81,36.12-61,55.81c-2.9,2.97,1.52,7.36,4.54,4.54c20.18-18.79,40.3-37.56,60.81-56
				C971.22,574.23,966.9,570.08,963.9,572.56L963.9,572.56z"/>
		</g>
		<g>
			<path d="M961.12,597.87c-15.75,11.42-30.93,23.78-44.56,37.69c-2.95,3.01,1.53,7.44,4.61,4.61
				c13.94-12.85,28.04-25.36,43.13-36.85C967.47,600.91,964.45,595.47,961.12,597.87L961.12,597.87z"/>
		</g>
		<g>
			<path d="M1035.09,604.77c-8.28,9.05-17.07,17.53-26.06,25.87c-3.02,2.8,1.41,7.09,4.48,4.48c9.33-7.95,17.87-16.79,25.89-26.04
				C1041.95,606.14,1037.76,601.85,1035.09,604.77L1035.09,604.77z"/>
		</g>
		<g>
			<g>
				<path class="st0" d="M967.68,155.35c-28.67-11.51-32.99,33.15-25.96,50.39c10.46,25.65,46.59,21.17,57.71-1.56
					c1.72-3.52-2.71-7.54-5.69-4.39c-10.29,10.92-28.48,24.63-41.42,7.8c-4.94-6.42-5.93-15.37-5.85-23.32
					c0.11-10.88,5.06-27.55,19.55-22.94C969.92,162.58,971.3,156.8,967.68,155.35L967.68,155.35z"/>
			</g>
			<g>
				<path class="st0" d="M932.28,180.63c4.01-1.69,8.12-3.26,11.96-5.31c3.65-1.95,1.22-7.17-2.64-5.81
					c-4.11,1.45-8.04,3.42-11.99,5.25C925.84,176.5,928.45,182.23,932.28,180.63L932.28,180.63z"/>
			</g>
			<g>
				<path class="st0" d="M929.13,196.19c4.2-1.78,8.42-3.77,12.36-6.07c3.49-2.04,1.13-7.36-2.7-5.75
					c-4.21,1.77-8.33,3.95-12.28,6.24C923.11,192.58,925.43,197.76,929.13,196.19L929.13,196.19z"/>
			</g>
			<g>
				<path class="st0" d="M931.35,212.87c5.57-2.65,10.16-6.68,13.56-11.83c2.29-3.47-3.08-6.36-5.46-3.19
					c-3.05,4.05-6.77,7.26-11.2,9.72C924.76,209.52,927.83,214.55,931.35,212.87L931.35,212.87z"/>
			</g>
			<g>
				<path class="st0" d="M937.49,222.83c5.59-2.69,10.22-6.74,13.46-12.04c2.13-3.49-3.16-6.47-5.43-3.17
					c-2.92,4.25-6.55,7.53-11.16,9.87C930.79,219.3,933.93,224.55,937.49,222.83L937.49,222.83z"/>
			</g>
			<g>
				<g>
					<path class="st0" d="M700.29,216.49c-10.7-9.93-16.59,3.31-17.72,12.92c-4.9,41.64-0.41,86.63-0.6,128.59
						c-0.37,84.25-0.81,168.5-1.17,252.75c-0.18,41.39-0.35,82.77-0.53,124.16c-0.04,8.57-4.03,27.52,2.21,35.33
						c5.21,6.53,19.07,5.88,26.58,6.71c41.42,4.61,83.39,1.82,124.94,0.95c40.82-0.85,81.66-1.32,122.49-1.4
						c46.67-0.09,93.33,0.41,139.99,1.29c16.22,0.31,62.3,10.1,64.8-15.94c0.45-4.72-6.89-4.67-7.36,0
						c-1.73,17.19-108.54,7.55-123.06,7.43c-40.83-0.35-81.67-0.33-122.5,0.06c-40.73,0.4-81.44,1.42-122.16,2.31
						c-20.02,0.44-40.08,0.72-60.08-0.59c-17.47-1.14-34.51,3.2-38.58-18.42c-1.79-9.54,0.09-21.29,0.12-31.04
						c0.33-82.77,0.68-165.54,0.96-248.32c0.14-41.39,0.28-82.77,0.44-124.16c0.08-20.69,0.16-41.39,0.24-62.08
						c0.04-10.35,0.08-20.69,0.12-31.04c0.01-1.62,0.41-40.1,6.54-35.2C698.97,223.21,703.24,219.23,700.29,216.49L700.29,216.49z"
						/>
				</g>
				<g>
					<path class="st0" d="M698.67,223.17c-4.51,3.57-8.94,7.26-13.26,11.05c-3.08,2.71,1.37,6.99,4.46,4.46
						c4.44-3.64,8.79-7.41,13.05-11.27C705.84,224.76,701.63,220.83,698.67,223.17L698.67,223.17z"/>
				</g>
				<g>
					<path class="st0" d="M701.65,234.89c-6.67,4.66-13.4,10.47-19.08,16.29c-2.62,2.69,1.59,6.7,4.47,4.6
						c6.56-4.79,13.2-10.71,18.74-16.64C708.18,236.58,704.33,233.01,701.65,234.89L701.65,234.89z"/>
				</g>
				<g>
					<path class="st0" d="M701.04,251.04c-7.69,4.86-14.71,11.52-19.54,19.27c-2.14,3.42,2.44,7.24,5.05,3.94
						c5.45-6.9,11.25-12.92,18.3-18.21C708.14,253.57,704.41,248.91,701.04,251.04L701.04,251.04z"/>
				</g>
				<g>
					<path class="st0" d="M701.41,268.39c-7.15,4.01-13.69,9.82-17.48,17.2c-1.91,3.71,3.19,6.62,5.55,3.24
						c4.19-6,8.78-11.2,15.03-15.14C707.85,271.59,704.88,266.45,701.41,268.39L701.41,268.39z"/>
				</g>
				<g>
					<path class="st0" d="M699.45,285.28c-4.67,5.64-9.71,10.86-15.08,15.83c-3.07,2.84,1.39,7.05,4.51,4.51
						c5.9-4.8,10.99-10.43,15.41-16.61C706.32,286.19,701.69,282.58,699.45,285.28L699.45,285.28z"/>
				</g>
				<g>
					<path class="st0" d="M702.62,299.89c-6.17,5.72-12.37,11.41-18.26,17.44c-2.93,3.01,1.51,7.4,4.59,4.59
						c6.23-5.67,12.12-11.67,18.06-17.64C709.84,301.44,705.54,297.18,702.62,299.89L702.62,299.89z"/>
				</g>
				<g>
					<path class="st0" d="M699.57,317.87c-6.21,6.8-9.81,10.81-15.7,17.9c-2.58,3.11,1.71,7.59,4.51,4.51
						c6.2-6.82,9.68-10.94,15.55-18.04C706.41,319.22,702.28,314.9,699.57,317.87L699.57,317.87z"/>
				</g>
				<g>
					<path class="st0" d="M700.61,335.33c-6.59,6.94-10.49,12.86-16.71,20.13c-2.64,3.08,1.63,7.5,4.51,4.51
						c6.64-6.89,10.3-13.03,16.57-20.26C707.57,336.73,703.38,332.41,700.61,335.33L700.61,335.33z"/>
				</g>
				<g>
					<path class="st0" d="M699.51,356.78c-5.85,6.08-11.39,12.49-16.81,18.96c-2.61,3.11,1.69,7.59,4.52,4.53
						c5.72-6.2,11.37-12.53,16.66-19.1C706.33,358.13,702.34,353.84,699.51,356.78L699.51,356.78z"/>
				</g>
				<g>
					<path class="st0" d="M698.96,380.62c-5.65,5.12-10.98,10.7-16.16,16.3c-2.82,3.05,1.56,7.47,4.57,4.57
						c5.51-5.27,10.99-10.71,16.01-16.45C706.03,382.02,701.96,377.9,698.96,380.62L698.96,380.62z"/>
				</g>
				<g>
					<path class="st0" d="M697.46,401.84c-3.83,3.74-7.74,7.42-11.36,11.37c-2.74,2.99,1.46,7.18,4.44,4.44
						c3.95-3.62,7.63-7.52,11.37-11.35C704.75,403.39,700.36,399,697.46,401.84L697.46,401.84z"/>
				</g>
				<g>
					<path class="st0" d="M699.25,419.86c-4.03,4.1-8,8.25-11.79,12.58c-2.68,3.06,1.62,7.48,4.51,4.51
						c4.01-4.13,7.84-8.41,11.61-12.76C706.14,421.24,702.05,417.02,699.25,419.86L699.25,419.86z"/>
				</g>
				<g>
					<path class="st0" d="M697.16,440.54c-4.36,4.84-8.77,9.64-12.82,14.74c-2.49,3.13,1.64,7.58,4.51,4.51
						c4.46-4.76,8.55-9.83,12.7-14.86C704.06,441.9,699.87,437.53,697.16,440.54L697.16,440.54z"/>
				</g>
				<g>
					<path class="st0" d="M695.67,460.12c-3.96,4.5-8.19,8.89-11.74,13.73c-2.18,2.97,2.5,6.35,5.01,3.86
						c4.05-4.03,7.58-8.7,11.26-13.07C702.82,461.53,698.41,457.01,695.67,460.12L695.67,460.12z"/>
				</g>
				<g>
					<path class="st0" d="M696.11,481.61c-4.31,4.77-8.64,9.54-12.53,14.67c-2.2,2.89,2.55,6.43,4.99,3.85
						c4.24-4.47,8.05-9.36,11.89-14.17C702.86,482.93,698.81,478.62,696.11,481.61L696.11,481.61z"/>
				</g>
				<g>
					<path class="st0" d="M696.81,500.17c-3.94,4.16-9.46,9.47-13.01,13.97c-2.5,3.16,1.49,7.5,4.54,4.54
						c4.12-3.99,9.11-9.79,12.85-14.13c2.57-2.99,0.76-9.78-2.01-6.85L696.81,500.17z"/>
				</g>
				<g>
					<path class="st0" d="M697.91,519.58c-6.12,4.26-11.69,9.55-15.46,16.04c-2.06,3.55,3.1,6.39,5.41,3.16
						c3.79-5.31,7.84-10.05,13.15-13.91C704.14,522.59,701.18,517.31,697.91,519.58L697.91,519.58z"/>
				</g>
				<g>
					<path class="st0" d="M697.43,540.64c-5.04,4.66-8.24,7.14-13.04,12.06c-2.86,2.93,1.41,7.07,4.44,4.44
						c5.19-4.5,8-7.38,12.95-12.14c2.87-2.76,0.58-9.11-2.33-6.42L697.43,540.64z"/>
				</g>
				<g>
					<path class="st0" d="M697.81,556.36c-5.54,5.82-9.9,9.76-15.03,15.95c-2.56,3.1,1.54,7.43,4.49,4.49
						c5.71-5.67,9.6-10.04,14.9-16.09C704.76,557.76,700.58,553.46,697.81,556.36L697.81,556.36z"/>
				</g>
				<g>
					<path class="st0" d="M699.18,577.14c-6.84,5.19-12.66,10.4-17.36,17.65c-1.92,2.96,2.64,6.6,4.95,3.82
						c5.2-6.24,9.83-11.47,16.16-16.61c2.7-2.19-0.35-7.73-3.16-5.6L699.18,577.14z"/>
				</g>
				<g>
					<path class="st0" d="M699.03,594.94c-5.72,6.57-11.64,13.03-16.8,20.05c-2.16,2.93,2.56,6.46,5.01,3.86
						c5.8-6.14,10.92-12.93,16.19-19.52C705.87,596.27,701.69,591.88,699.03,594.94L699.03,594.94z"/>
				</g>
				<g>
					<path class="st0" d="M699.7,616.58c-6,7.43-12.34,14.67-17.75,22.56c-2.04,2.98,2.62,6.6,5.03,3.88
						c6.34-7.16,11.81-15.08,17.57-22.7C706.64,617.54,701.9,613.85,699.7,616.58L699.7,616.58z"/>
				</g>
				<g>
					<path class="st0" d="M698.98,640.28c-6.59,5.59-12.78,12.16-17.07,19.71c-1.74,3.06,2.73,6.87,5.06,3.91
						c5.24-6.67,10.34-13.26,16.41-19.23C706.26,641.82,701.98,637.72,698.98,640.28L698.98,640.28z"/>
				</g>
				<g>
					<path class="st0" d="M699.12,663.19c-5.2,6-10.66,11.87-15.35,18.29c-2.17,2.97,2.58,6.53,5.06,3.91
						c5.27-5.58,9.86-11.84,14.64-17.84C705.9,664.51,701.76,660.14,699.12,663.19L699.12,663.19z"/>
				</g>
				<g>
					<path class="st0" d="M700.8,684.34c-5.65,5.99-11.89,11.82-16.78,18.46c-2.26,3.07,2.48,6.24,5.06,3.91
						c5.91-5.33,10.88-11.98,16.09-17.99C707.76,685.74,703.56,681.41,700.8,684.34L700.8,684.34z"/>
				</g>
				<g>
					<path class="st0" d="M700.85,707.13c-7.9,7.04-15.06,15.56-19.19,25.38c-1.43,3.41,3.99,5.4,5.81,2.45
						c5.26-8.54,8.43-15.96,15.82-22.87C706.25,709.31,703.85,704.46,700.85,707.13L700.85,707.13z"/>
				</g>
				<g>
					<path class="st0" d="M695.43,730.38c-3.87,5.3-7.91,10.66-11.29,16.29c-1.81,3.02,2.75,6.8,5.03,3.88
						c4.2-5.4,7.92-11.28,11.63-17.03C703,730.1,697.74,727.22,695.43,730.38L695.43,730.38z"/>
				</g>
				<g>
					<path class="st0" d="M705.34,752.23c-4.62,5.46-9.38,11.01-13.42,16.92c-2.06,3.01,2.62,6.62,5.06,3.91
						c4.78-5.31,9.05-11.27,13.26-17.05C712.3,753.17,707.62,749.53,705.34,752.23L705.34,752.23z"/>
				</g>
				<g>
					<path class="st0" d="M726.89,753.34c-4.2,5.54-8.42,11.48-11.88,17.51c-2.1,3.66,3.07,6.34,5.49,3.21
						c4.25-5.5,8.13-11.66,11.64-17.65C734.16,752.94,729.18,750.31,726.89,753.34L726.89,753.34z"/>
				</g>
				<g>
					<path class="st0" d="M744.44,753.18c-3.99,5.82-7.84,11.74-11.37,17.85c-2.06,3.57,3.19,6.52,5.47,3.19
						c3.98-5.82,7.65-11.86,11.17-17.97C751.69,752.81,746.64,749.97,744.44,753.18L744.44,753.18z"/>
				</g>
				<g>
					<path class="st0" d="M762.05,753.2c-3.31,5.91-6.66,11.82-9.68,17.88c-1.78,3.58,3.36,6.68,5.41,3.16
						c3.41-5.86,6.48-11.91,9.59-17.93C769.19,752.8,764,749.71,762.05,753.2L762.05,753.2z"/>
				</g>
				<g>
					<path class="st0" d="M782.83,750.79c-5.2,6.02-9.12,13-10.73,20.84c-0.81,3.97,4.9,5.61,6.1,1.68
						c2.01-6.56,4.77-12.7,9.02-18.13C789.62,752.11,785.49,747.7,782.83,750.79L782.83,750.79z"/>
				</g>
				<g>
					<path class="st0" d="M799.13,751.97c-5.56,7.05-10.07,14.51-13.24,22.93c-1.28,3.38,4.39,5.82,5.89,2.48
						c3.41-7.58,7.38-14.88,12.29-21.6C806.15,752.92,801.34,749.17,799.13,751.97L799.13,751.97z"/>
				</g>
				<g>
					<path class="st0" d="M821.46,749.72c-5.03,6.08-9.02,12.69-11.7,20.12c-1.39,3.85,4.51,5.26,6.01,1.66
						c2.59-6.2,5.87-12.15,10.02-17.45C828.17,751,824,746.65,821.46,749.72L821.46,749.72z"/>
				</g>
				<g>
					<path class="st0" d="M840.26,750.9c-4.97,5.41-8.96,12.01-10.78,19.18c-1.01,4.02,4.69,5.44,6.1,1.68
						c2.27-6.01,5.02-11.43,9.1-16.44C847.18,752.27,843.03,747.88,840.26,750.9L840.26,750.9z"/>
				</g>
				<g>
					<path class="st0" d="M859.6,751.58c-3.07,6.63-6.05,13.29-8.85,20.03c-1.36,3.27,4.27,5.67,5.76,2.43
						c3.05-6.64,5.9-13.35,8.68-20.11C866.5,750.76,861.05,748.44,859.6,751.58L859.6,751.58z"/>
				</g>
				<g>
					<path class="st0" d="M880.81,750.93c-5.24,6.17-8.72,13.4-9.52,21.51c-0.34,3.47,5.39,4.24,6.1,0.83
						c1.37-6.57,3.59-12.64,7.77-17.97C887.56,752.24,883.41,747.86,880.81,750.93L880.81,750.93z"/>
				</g>
				<g>
					<path class="st0" d="M901.89,748.79c-4.92,6.56-8.19,13.95-9.58,22.03c-0.68,3.93,5.21,5.69,6.08,1.68
						c1.62-7.45,4.51-14.3,8.85-20.58C909.53,748.59,904.22,745.68,901.89,748.79L901.89,748.79z"/>
				</g>
				<g>
					<path class="st0" d="M923.21,750.21c-6.46,4.06-10.91,10.89-12.45,18.31c-0.82,3.96,5.11,5.66,6.1,1.68
						c1.59-6.37,5.03-11.08,10.02-15.22C929.55,752.77,926.1,748.39,923.21,750.21L923.21,750.21z"/>
				</g>
				<g>
					<path class="st0" d="M943.18,750.54c-5.49,6.23-9.88,13.6-11.78,21.75c-0.92,3.93,4.8,5.5,6.04,1.66
						c2.28-7.05,5.28-13.36,10.14-19.02C950.15,751.92,945.83,747.52,943.18,750.54L943.18,750.54z"/>
				</g>
				<g>
					<path class="st0" d="M956.91,751.53c-2.95,6.68-6.02,13.33-8.64,20.14c-1.29,3.35,4.29,5.72,5.83,2.46
						c3.1-6.61,5.78-13.43,8.56-20.18C963.99,750.69,958.35,748.28,956.91,751.53L956.91,751.53z"/>
				</g>
				<g>
					<path class="st0" d="M979.34,749.78c-3.81,7.01-7.81,13.95-11.32,21.12c-1.76,3.6,3.36,6.7,5.42,3.17
						c4.03-6.88,7.61-14.06,11.34-21.11C986.68,749.39,981.28,746.21,979.34,749.78L979.34,749.78z"/>
				</g>
				<g>
					<path class="st0" d="M997.19,751.41c-2.76,4.83-5.59,9.64-8.1,14.61c-1.82,3.6,3.34,6.69,5.45,3.18
						c2.87-4.78,5.43-9.73,8.04-14.65C1004.46,751.02,999.2,747.91,997.19,751.41L997.19,751.41z"/>
				</g>
				<g>
					<path class="st0" d="M1018.4,755.54c-1.79,4.83-4.09,9.22-6.78,13.6c-1.88,3.05,2.75,6.84,5.08,3.92
						c3.72-4.67,6.38-10.03,7.78-15.84C1025.45,753.21,1019.79,751.77,1018.4,755.54L1018.4,755.54z"/>
				</g>
				<g>
					<path class="st0" d="M1041.13,754.71c-3.14,5.46-6.21,11.1-8.6,16.93c-1.45,3.53,4.12,5.58,6,2.53
						c3.14-5.12,5.72-10.73,8.15-16.22C1048.31,754.26,1043.24,751.04,1041.13,754.71L1041.13,754.71z"/>
				</g>
				<g>
					<path class="st0" d="M1063.56,753.19c-3.46,5.77-5.85,12.58-5.62,19.39c0.12,3.48,5.84,4.66,6.4,0.87
						c0.89-6.01,1.93-11.59,4.61-17.11C1070.68,752.77,1065.65,749.71,1063.56,753.19L1063.56,753.19z"/>
				</g>
				<g>
					<path class="st0" d="M1086.2,756.21c-3.61,4.71-5.63,10.48-4.94,16.43c0.48,4.15,6.32,4.32,6.59,0
						c0.3-4.77,1.4-9.08,4.04-13.11C1094.27,755.9,1088.7,752.95,1086.2,756.21L1086.2,756.21z"/>
				</g>
				<g>
					<path class="st0" d="M1108.83,757.58c-3.28,4.68-5.57,10.66-4.83,16.46c0.52,4.03,6.07,4.17,6.38,0
						c0.44-5.91,1.16-11.55,3.83-13.31C1117.61,758.49,1111.1,754.33,1108.83,757.58L1108.83,757.58z"/>
				</g>
				<g>
					<path class="st0" d="M1125.88,759.46c-0.99,2.74-2.03,9.63-2.92,12.4c-1.25,3.91,4.55,5.28,6.01,1.66
						c1.09-2.7,2.04-9.63,3.03-12.37C1133.4,757.3,1127.27,755.64,1125.88,759.46L1125.88,759.46z"/>
				</g>
				<g>
					<path class="st0" d="M1141.23,760.43c-0.05,1.63-0.52,6.28-0.48,7.9c0.1,4.06,6.2,4.06,6.31,0c0.04-1.63,0.53-6.28,0.48-7.9
						c-0.13-4.06-6.17-2.55-6.31,1.51V760.43z"/>
				</g>
			</g>
			<g>
				<g>
					<path d="M1195.5,199.48c-0.36,13.79-0.78,27.59-0.92,41.38c-0.04,4.08,6.18,4.06,6.33,0c0.49-13.79,0.69-27.59,0.97-41.38
						C1201.96,195.37,1195.61,195.38,1195.5,199.48L1195.5,199.48z"/>
				</g>
				<g>
					<path d="M1207.52,200.34c-1.25,31.82-1.1,63.61-3.04,95.43c-0.27,4.35,6.37,4.27,6.73,0c2.65-31.55,4.61-63.8,2.37-95.43
						C1213.3,196.48,1207.68,196.41,1207.52,200.34L1207.52,200.34z"/>
				</g>
				<g>
					<path d="M1189.73,623.46c-0.31,44.46-0.58,89,0.51,133.45c0.1,4.25,6.55,4.26,6.61,0c0.66-44.45-0.05-89-0.79-133.45
						C1195.99,619.39,1189.76,619.38,1189.73,623.46L1189.73,623.46z"/>
				</g>
				<g>
					<path d="M1200.31,692.72c0.35,20.83,0.49,41.7,1.57,62.5c0.22,4.19,6.57,4.25,6.56,0c-0.04-20.83-1.02-41.68-1.78-62.5
						C1206.51,688.65,1200.24,688.62,1200.31,692.72L1200.31,692.72z"/>
				</g>
				<g>
					<path d="M1231.52,731.01c-35.81,0.56-71.55-0.21-107.28-2.69c-4.08-0.28-4.03,6.01,0,6.33c35.74,2.85,71.45,3.85,107.28,2.6
						C1235.52,737.1,1235.55,730.94,1231.52,731.01L1231.52,731.01z"/>
				</g>
				<g>
					<path d="M729.35,192.72c-0.3,10.42-0.65,20.83-0.83,31.25c-0.07,3.98,6.02,3.96,6.17,0c0.38-10.41,0.59-20.83,0.85-31.25
						C735.65,188.74,729.47,188.74,729.35,192.72L729.35,192.72z"/>
				</g>
				<g>
					<path d="M743.38,194.36c1.23,26.57,1.25,52.91-0.82,79.43c-0.33,4.17,6.07,4.09,6.47,0c2.57-26.43,3.03-52.98,0.52-79.43
						C749.18,190.48,743.2,190.34,743.38,194.36L743.38,194.36z"/>
				</g>
				<path d="M1241.02,193.39c0.03-2.32-2.08-3.2-3.8-2.72c-0.03,0-0.05-0.01-0.08-0.01c-77.87,7.74-156.82,4.75-235.14,3.55
					c0.01-0.39,0.06-0.74,0.06-1.13c0.18-23.07-18.93-42.21-42.05-42.27c-22.87-0.06-40.15,20.69-39.62,42.63
					c-26.83-0.2-53.65-0.4-80.48-0.76c-45.02-0.59-91.97-6.62-136.72-1.36c-0.75,0.09-1.31,0.43-1.77,0.85
					c-1.51,0.01-2.94,0.98-2.83,2.96c5.41,93.66-0.05,186.9-2.16,280.55c-2.09,92.68,6.65,185.02,0.67,277.65
					c0,0.05,0.02,0.09,0.02,0.14c-0.61,1.9,0.33,4.27,2.9,4.15c88.22-4.29,176.35-6.57,264.68-4.28
					c89.08,2.31,178.04,8.85,267.2,6.03c2.27-0.07,3.34-1.95,3.24-3.71c0.22-0.45,0.36-0.96,0.31-1.6
					C1222.97,567.58,1238.64,379.98,1241.02,193.39z M929.07,182.45c3.6-10.45,11.41-19.22,22.62-22.36
					c16.16-4.52,34.72,5.39,39.96,21.26c7.17,21.73-5.83,42.05-28.85,42.87c-13.83,0.49-27.17-6.28-31.87-17.83
					c-1.37-1.99-2.22-4.14-2.81-6.48c0.17,0,0.35,0,0.52,0.01c-0.58-1.33-0.95-2.75-1.23-4.21c-0.06-0.8-0.16-1.59-0.17-2.41
					c0.01-0.34-0.01-0.69-0.01-1.03c-0.02-0.08-0.04-0.11-0.06-0.21C926.08,188.71,927.02,185.16,929.07,182.45z M964.72,746.55
					c-86.84-2.25-173.99-1.3-260.69,4.41c5.69-91.83-2.83-183.39-0.76-275.28c2.09-92.72,9.19-185.77,1.66-278.41
					c44.3-4.72,90.5,1.14,135,1.73c26.93,0.36,53.86,0.59,80.79,0.82c-1.01,36.84,73.08,47.97,80.68,0.9
					c77.76,1.28,156.08,3.88,233.49-2.85c-7.75,183.91-17.83,370.94-6.27,554.76C1140.56,755.2,1052.7,748.83,964.72,746.55z"/>
			</g>
		</g>
		<g>
			<path class="st0" d="M969.19,568.7c-2.33,2.69-4.13,5.67-5.43,8.99c-0.62,1.57,1.92,2.26,2.53,0.7c1.13-2.87,2.73-5.5,4.75-7.83
				C972.15,569.29,970.3,567.43,969.19,568.7L969.19,568.7z"/>
		</g>
		<g>
			<path class="st0" d="M977.6,567.35c-3.99,4.43-7.44,9.25-10.32,14.47c-0.82,1.48,1.45,2.81,2.27,1.33
				c2.78-5.02,6.07-9.67,9.91-13.94C980.58,567.95,978.73,566.09,977.6,567.35L977.6,567.35z"/>
		</g>
		<g>
			<path class="st0" d="M986.03,568.47c-7.25,7.82-14.49,15.63-21.74,23.45c-1.15,1.24,0.7,3.1,1.86,1.86
				c7.25-7.82,14.49-15.63,21.74-23.45C989.04,569.08,987.19,567.22,986.03,568.47L986.03,568.47z"/>
		</g>
		<g>
			<path class="st0" d="M985.11,581.62c-10.64,9.03-19.89,19.36-27.73,30.9c-0.95,1.4,1.32,2.72,2.27,1.33
				c7.72-11.36,16.85-21.49,27.32-30.37C988.26,582.38,986.39,580.53,985.11,581.62L985.11,581.62z"/>
		</g>
		<g>
			<path class="st0" d="M985.45,592.93c-9.6,10.56-19.2,21.12-28.8,31.69c-1.13,1.25,0.72,3.11,1.86,1.86
				c9.6-10.56,19.2-21.12,28.8-31.69C988.44,593.54,986.59,591.68,985.45,592.93L985.45,592.93z"/>
		</g>
		<g>
			<path class="st0" d="M986.85,605.33c-11.42,10.44-21.82,21.81-31.26,34.06c-1.03,1.34,1.25,2.65,2.27,1.33
				c9.29-12.07,19.6-23.25,30.85-33.53C989.96,606.04,988.1,604.19,986.85,605.33L986.85,605.33z"/>
		</g>
		<g>
			<path class="st0" d="M987.03,617.68c-6.32,6.68-12.51,13.47-18.53,20.41c-4.01,4.62-10.92,10.22-12.03,16.56
				c-0.29,1.65,2.24,2.36,2.53,0.7c0.7-3.98,4.35-7.21,6.86-10.17c2.48-2.92,4.99-5.82,7.52-8.69c5.07-5.75,10.24-11.39,15.51-16.95
				C990.05,618.31,988.2,616.45,987.03,617.68L987.03,617.68z"/>
		</g>
		<g>
			<path class="st0" d="M986.44,631.14c-8.88,9.94-17.44,20.15-25.67,30.63c-1.03,1.31,0.81,3.19,1.86,1.86
				c8.24-10.48,16.8-20.69,25.67-30.63C989.42,631.74,987.56,629.88,986.44,631.14L986.44,631.14z"/>
		</g>
		<g>
			<path class="st0" d="M990.09,639.46c-7.77,10.18-15.83,20.13-24.16,29.86c-1.09,1.28,0.76,3.14,1.86,1.86
				c8.48-9.9,16.66-20.03,24.57-30.39C993.39,639.44,991.1,638.13,990.09,639.46L990.09,639.46z"/>
		</g>
		<g>
			<path class="st0" d="M991.16,651.78c-6.43,6.43-12.6,13.08-18.52,19.97c-1.1,1.28,0.75,3.14,1.86,1.86
				c5.92-6.89,12.1-13.55,18.52-19.97C994.22,652.44,992.36,650.58,991.16,651.78L991.16,651.78z"/>
		</g>
		<g>
			<path class="st0" d="M1045.69,474.42c-0.06-0.01-0.11-0.02-0.17-0.03c0.32,0.42,0.64,0.84,0.96,1.27
				c-0.18,0.25-0.36,0.5-0.53,0.75c-0.34-0.04-0.67-0.09-1.01-0.13c0.06,0.04,0.11,0.08,0.17,0.11c-0.2-0.26-0.4-0.52-0.6-0.78
				c0.03,0.15,0.05,0.31,0.08,0.46c0.04-0.34,0.09-0.67,0.13-1.01c-0.7,1.42-2.38,2.6-3.37,3.87c-1.08,1.39-2.01,2.86-2.82,4.41
				c-0.78,1.5,1.49,2.83,2.27,1.33c0.89-1.71,1.92-3.34,3.17-4.82c0.9-1.07,2.86-2.34,3.15-3.77c0.56-2.76-3.49-2.79-3.25-0.41
				c0.05,0.53,0.37,1.16,0.96,1.27c0.06,0.01,0.11,0.02,0.17,0.03C1046.64,477.24,1047.35,474.71,1045.69,474.42L1045.69,474.42z"/>
		</g>
		<g>
			<path class="st0" d="M1054.24,474.21c-5.05,4.31-9.75,8.99-14.08,14.03c-1.1,1.28,0.75,3.14,1.86,1.86
				c4.33-5.04,9.03-9.71,14.08-14.03C1057.38,474.97,1055.52,473.12,1054.24,474.21L1054.24,474.21z"/>
		</g>
		<g>
			<path class="st0" d="M1057.05,479.42c-6.45,6.01-12.3,12.55-17.59,19.6c-1.02,1.35,1.26,2.66,2.27,1.33
				c5.16-6.86,10.9-13.21,17.18-19.06C1060.15,480.13,1058.29,478.27,1057.05,479.42L1057.05,479.42z"/>
		</g>
		<g>
			<path class="st0" d="M1056.68,490.63c-7.76,8.76-15.52,17.52-23.29,26.27c-1.12,1.26,0.73,3.12,1.86,1.86
				c7.76-8.76,15.52-17.52,23.29-26.27C1059.66,491.22,1057.81,489.36,1056.68,490.63L1056.68,490.63z"/>
		</g>
		<g>
			<path class="st0" d="M1057.78,503.37c-10.74,10.32-20.57,21.46-29.51,33.38c-1.02,1.35,1.26,2.66,2.27,1.33
				c8.8-11.74,18.52-22.68,29.1-32.85C1060.86,504.06,1059,502.2,1057.78,503.37L1057.78,503.37z"/>
		</g>
		<g>
			<path class="st0" d="M1059.13,515.71c-10.43,10.6-20.39,21.64-29.86,33.11c-1.07,1.29,0.78,3.16,1.86,1.86
				c9.47-11.47,19.43-22.51,29.86-33.11C1062.18,516.36,1060.32,514.5,1059.13,515.71L1059.13,515.71z"/>
		</g>
		<g>
			<path class="st0" d="M1059.63,532.04c0.78-1.07,1.57-2.14,2.35-3.21c-0.53-0.69-1.06-1.38-1.59-2.06
				c-8.81,9.1-17.62,18.21-26.43,27.31c-1.18,1.22,0.68,3.07,1.86,1.86c8.81-9.1,17.62-18.21,26.43-27.31
				c1.01-1.05-0.3-2.87-1.59-2.06c-1.98,1.24-2.95,2.51-3.56,4.77C1056.65,532.98,1059.18,533.67,1059.63,532.04L1059.63,532.04z"/>
		</g>
		<g>
			<path class="st0" d="M1060.3,537.08c-8.59,7.35-16.34,15.51-23.26,24.46c-1.02,1.32,0.82,3.19,1.86,1.86
				c6.91-8.94,14.67-17.1,23.26-24.45C1063.44,537.83,1061.58,535.98,1060.3,537.08L1060.3,537.08z"/>
		</g>
		<g>
			<path class="st0" d="M1062.55,544.79c-8.22,7.86-16.44,15.73-24.66,23.59c-1.22,1.17,0.64,3.03,1.86,1.86
				c8.22-7.86,16.44-15.73,24.66-23.59C1065.63,545.47,1063.77,543.62,1062.55,544.79L1062.55,544.79z"/>
		</g>
		<g>
			<path class="st0" d="M1128.89,379.46c-2.08,2.73-3.7,5.7-4.96,8.9c-0.62,1.57,1.92,2.26,2.53,0.7c1.17-2.98,2.76-5.73,4.69-8.27
				C1132.18,379.44,1129.9,378.13,1128.89,379.46L1128.89,379.46z"/>
		</g>
		<g>
			<path class="st0" d="M1136.22,380.69c-2.66,3.45-5.33,6.9-7.99,10.35c-1.03,1.34,1.25,2.65,2.27,1.33
				c2.66-3.45,5.33-6.9,7.99-10.35C1139.52,380.68,1137.24,379.37,1136.22,380.69L1136.22,380.69z"/>
		</g>
		<g>
			<path class="st0" d="M1137.14,393.13c-5.69,7.8-11.39,15.6-17.08,23.4c-1,1.37,1.28,2.68,2.27,1.33
				c5.69-7.8,11.39-15.6,17.08-23.4C1140.41,393.09,1138.13,391.78,1137.14,393.13L1137.14,393.13z"/>
		</g>
		<g>
			<path class="st0" d="M1139.76,403.26c-7.28,8.42-14.56,16.84-21.84,25.26c-1.1,1.27,0.75,3.14,1.86,1.86
				c7.28-8.42,14.56-16.84,21.84-25.26C1142.72,403.84,1140.87,401.98,1139.76,403.26L1139.76,403.26z"/>
		</g>
		<g>
			<path class="st0" d="M1140.37,413.64c-8.77,10.24-17.33,20.66-25.68,31.25c-1.04,1.31,0.81,3.18,1.86,1.86
				c8.35-10.59,16.91-21.01,25.68-31.25C1143.32,414.22,1141.47,412.36,1140.37,413.64L1140.37,413.64z"/>
		</g>
		<g>
			<path class="st0" d="M1140.27,423.93c-8.3,10.46-16.6,20.93-24.9,31.4c-1.04,1.31,0.81,3.18,1.86,1.86
				c8.3-10.47,16.6-20.93,24.9-31.4C1143.17,424.48,1141.32,422.61,1140.27,423.93L1140.27,423.93z"/>
		</g>
		<g>
			<path class="st0" d="M1143.61,432.66c-7.96,10.37-15.92,20.74-23.89,31.11c-1.03,1.34,1.25,2.65,2.27,1.33
				c7.96-10.37,15.92-20.74,23.89-31.11C1146.91,432.64,1144.63,431.33,1143.61,432.66L1143.61,432.66z"/>
		</g>
		<g>
			<path class="st0" d="M1141.38,450.12c-6.01,6.62-12.03,13.24-18.04,19.86c-1.13,1.25,0.72,3.11,1.86,1.86
				c6.01-6.62,12.03-13.24,18.04-19.86C1144.37,450.73,1142.52,448.86,1141.38,450.12L1141.38,450.12z"/>
		</g>
		<g>
			<path class="st0" d="M1142.56,458.02c-4.93,6.24-10.24,12.13-15.93,17.67c-1.21,1.18,0.64,3.04,1.86,1.86
				c5.7-5.54,11.01-11.43,15.93-17.67C1145.46,458.57,1143.61,456.7,1142.56,458.02L1142.56,458.02z"/>
		</g>
		<g>
			<path class="st0" d="M968.85,382.05c-2.7,2.7-4.72,5.84-6.15,9.38c-0.63,1.57,1.91,2.25,2.53,0.7c1.25-3.1,3.12-5.85,5.48-8.22
				C971.9,382.71,970.05,380.85,968.85,382.05L968.85,382.05z"/>
		</g>
		<g>
			<path class="st0" d="M975.38,381.24c-3.1,3.32-5.77,6.97-7.96,10.95c-0.82,1.48,1.45,2.81,2.27,1.33
				c2.09-3.78,4.6-7.25,7.55-10.41C978.39,381.86,976.53,380,975.38,381.24L975.38,381.24z"/>
		</g>
		<g>
			<path class="st0" d="M972.82,396.4c-5.28,5.78-10.09,11.93-14.43,18.46c-0.94,1.41,1.34,2.73,2.27,1.33
				c4.21-6.34,8.88-12.31,14.02-17.92C975.81,397.01,973.96,395.15,972.82,396.4L972.82,396.4z"/>
		</g>
		<g>
			<path class="st0" d="M976.54,401.96c-7.64,7.89-14.69,16.27-21.19,25.12c-1,1.36,1.28,2.68,2.27,1.33
				c6.36-8.67,13.3-16.86,20.78-24.59C979.57,402.6,977.72,400.74,976.54,401.96L976.54,401.96z"/>
		</g>
		<g>
			<path class="st0" d="M977.7,410.44c-8,8.78-15.66,17.83-22.99,27.17c-1.03,1.31,0.81,3.19,1.86,1.86
				c7.33-9.34,15-18.4,22.99-27.17C980.69,411.05,978.84,409.19,977.7,410.44L977.7,410.44z"/>
		</g>
		<g>
			<path class="st0" d="M979.5,418.36c-7.73,7.82-14.77,16.22-21.15,25.18c-0.98,1.38,1.29,2.69,2.27,1.33
				c6.25-8.77,13.17-16.98,20.73-24.65C982.54,419.01,980.69,417.15,979.5,418.36L979.5,418.36z"/>
		</g>
		<g>
			<path class="st0" d="M979.78,429.57c-5.79,4.61-11.02,9.81-15.67,15.57c-1.05,1.3,0.79,3.17,1.86,1.86
				c4.65-5.76,9.88-10.95,15.67-15.57C982.96,430.37,981.09,428.53,979.78,429.57L979.78,429.57z"/>
		</g>
		<g>
			<path class="st0" d="M884.34,472.26c-2.99,2.95-5.62,6.21-7.88,9.74c-0.91,1.43,1.36,2.75,2.27,1.33
				c2.15-3.35,4.64-6.42,7.47-9.21C887.4,472.93,885.54,471.07,884.34,472.26L884.34,472.26z"/>
		</g>
		<g>
			<path class="st0" d="M889.35,481.03c1.69,0,1.69-2.63,0-2.63C887.66,478.4,887.66,481.03,889.35,481.03L889.35,481.03z"/>
		</g>
		<g>
			<path class="st0" d="M896.52,477.12c-5.5,5.09-10.99,10.19-16.49,15.28c-1.24,1.15,0.62,3.01,1.86,1.86
				c5.5-5.09,10.99-10.19,16.49-15.28C899.62,477.82,897.75,475.97,896.52,477.12L896.52,477.12z"/>
		</g>
		<g>
			<path class="st0" d="M893.24,474.44c-4.68,4.28-9.35,8.57-14.03,12.86c-1.25,1.14,0.61,3,1.86,1.86
				c4.68-4.28,9.35-8.57,14.03-12.86C896.35,475.15,894.49,473.3,893.24,474.44L893.24,474.44z"/>
		</g>
		<g>
			<path class="st0" d="M895.55,487.94c-7.23,5.29-13.78,11.31-19.61,18.11c-1.09,1.28,0.75,3.14,1.86,1.86
				c5.68-6.62,12.04-12.55,19.08-17.7C898.22,489.22,896.91,486.94,895.55,487.94L895.55,487.94z"/>
		</g>
		<g>
			<path class="st0" d="M894.06,494.18c-7.23,7.83-14.63,15.51-22.18,23.04c-1.2,1.19,0.66,3.05,1.86,1.86
				c7.55-7.53,14.94-15.21,22.18-23.04C897.06,494.8,895.21,492.94,894.06,494.18L894.06,494.18z"/>
		</g>
		<g>
			<path class="st0" d="M897.63,500.81c-8.55,9.59-17.77,18.48-27.67,26.67c-1.3,1.08,0.56,2.93,1.86,1.86
				c9.9-8.19,19.13-17.08,27.67-26.67C900.61,501.41,898.75,499.55,897.63,500.81L897.63,500.81z"/>
		</g>
		<g>
			<path class="st0" d="M898.23,508.76c-9.84,9.53-19.32,19.41-28.42,29.64c-1.12,1.26,0.73,3.12,1.86,1.86
				c9.11-10.24,18.58-20.12,28.42-29.64C901.31,509.44,899.45,507.58,898.23,508.76L898.23,508.76z"/>
		</g>
		<g>
			<path class="st0" d="M901.43,517.46c-9.93,9.86-19.49,20.07-28.68,30.63c-1.1,1.27,0.75,3.14,1.86,1.86
				c9.19-10.56,18.75-20.77,28.68-30.63C904.49,518.12,902.64,516.27,901.43,517.46L901.43,517.46z"/>
		</g>
		<g>
			<path class="st0" d="M901.16,526.96c-5.16,5.5-10.32,10.99-15.47,16.49c-3.62,3.86-8.5,7.62-10.03,12.86
				c-0.47,1.63,2.06,2.32,2.53,0.7c1.66-5.7,8.5-10.8,12.45-15c4.13-4.4,8.25-8.79,12.38-13.19
				C904.17,527.58,902.32,525.72,901.16,526.96L901.16,526.96z"/>
		</g>
		<g>
			<path class="st0" d="M900.45,537.73c0.55,0.97-10.25,11.47-11.27,12.55c-3.86,4.12-7.79,8.17-11.77,12.18
				c-1.19,1.2,0.67,3.06,1.86,1.86c5.61-5.66,11.12-11.42,16.51-17.3c2.01-2.19,8.92-7.09,6.94-10.62
				C901.89,534.93,899.62,536.25,900.45,537.73L900.45,537.73z"/>
		</g>
		<g>
			<path class="st0" d="M798.02,383.5c-2.79,2.71-4.8,5.98-5.99,9.68c-0.52,1.61,2.02,2.3,2.53,0.7c1.05-3.28,2.84-6.13,5.32-8.52
				C801.1,384.18,799.24,382.32,798.02,383.5L798.02,383.5z"/>
		</g>
		<g>
			<path class="st0" d="M804.99,385c-4.32,3.99-7.91,8.6-10.73,13.77c-0.81,1.48,1.46,2.81,2.27,1.33
				c2.71-4.98,6.15-9.39,10.32-13.24C808.09,385.7,806.23,383.85,804.99,385L804.99,385z"/>
		</g>
		<g>
			<path class="st0" d="M810.25,387.18c-6.2,5.77-11.54,12.28-16.01,19.48c-0.89,1.44,1.38,2.76,2.27,1.33
				c4.36-7.01,9.56-13.32,15.6-18.95C813.35,387.88,811.49,386.02,810.25,387.18L810.25,387.18z"/>
		</g>
		<g>
			<path class="st0" d="M810.82,394.47c-6.58,8.09-13.16,16.18-19.75,24.28c-1.06,1.3,0.79,3.17,1.86,1.86
				c6.58-8.09,13.16-16.18,19.75-24.27C813.74,395.03,811.89,393.16,810.82,394.47L810.82,394.47z"/>
		</g>
		<g>
			<path class="st0" d="M809.83,407.54c-6.93,6.69-12.77,14.26-17.47,22.67c-0.83,1.48,1.44,2.8,2.27,1.33
				c4.6-8.22,10.29-15.6,17.06-22.14C812.91,408.22,811.05,406.36,809.83,407.54L809.83,407.54z"/>
		</g>
		<g>
			<path class="st0" d="M808.8,418.08c-6.88,7.39-12.88,15.45-17.99,24.16c-0.86,1.46,1.41,2.78,2.27,1.33
				c4.99-8.52,10.85-16.4,17.58-23.63C811.81,418.7,809.96,416.84,808.8,418.08L808.8,418.08z"/>
		</g>
		<g>
			<path class="st0" d="M810.28,426.89c-4.71,5.22-9.32,10.53-13.79,15.95c-3.04,3.7-7.54,7.79-8.29,12.72
				c-0.25,1.65,2.28,2.37,2.53,0.7c0.83-5.5,6.83-10.66,10.31-14.81c3.62-4.31,7.32-8.54,11.09-12.71
				C813.27,427.49,811.41,425.63,810.28,426.89L810.28,426.89z"/>
		</g>
		<g>
			<path class="st0" d="M812.21,431.28c-7.15,7.7-13.45,16.05-18.88,25.06c-0.87,1.45,1.4,2.77,2.27,1.33
				c5.31-8.81,11.46-16.99,18.46-24.53C815.21,431.89,813.36,430.03,812.21,431.28L812.21,431.28z"/>
		</g>
		<g>
			<path class="st0" d="M811.98,442.67c-6.32,6.92-12.64,13.84-18.95,20.76c-1.14,1.25,0.71,3.11,1.86,1.86
				c6.32-6.92,12.64-13.84,18.95-20.76C814.98,443.28,813.13,441.42,811.98,442.67L811.98,442.67z"/>
		</g>
		<g>
			<path class="st0" d="M786.83,306.5c-18.65,15.38-17.98,46.44-6.24,65.74c10.88,17.89,33.63,19.05,47.13,3.02
				c13.88-16.48,13.7-49.06-0.31-65.52c-13.52-15.88-40.23-13.91-49.14,5.61c-0.97,2.12,1.8,4.9,3.54,2.73
				c13.77-17.1,38.78-17.63,47.22,5.17c4.94,13.35,4.43,32.31-3.44,44.47c-5.18,8.01-13.99,13.87-23.85,12.76
				c-11.03-1.25-17.2-11.52-20.61-21.2c-5.85-16.58-3.76-36.94,8.04-50.42C790.6,307.23,788.47,305.15,786.83,306.5L786.83,306.5z"
				/>
		</g>
		<g>
			<path class="st0" d="M792.77,379.31c-2.41,4.07-4.71,8.15-6.93,12.32c-0.65,1.21-0.27,2.62,0.88,3.36
				c14.52,9.44-1.56,44.92-1.87,58.6c-0.2,8.63,8.41,15.73,13.36,21.99c1.3,1.65,3.59,0.72,4.6-0.59
				c5.38-7.04,11.17-13.58,17.46-19.82c2.65-2.64-1.44-6.74-4.11-4.11c-6.66,6.58-12.73,13.54-18.41,20.97
				c1.53-0.2,3.07-0.39,4.6-0.59c-2.52-3.2-5.07-6.38-7.57-9.6c-4.15-5.33-3.75-7.7-3.14-13.82c0.99-9.8,3.44-19.66,5.04-29.38
				c1.74-10.57,3.16-21.92-7.47-27.91c0.29,1.12,0.59,2.24,0.88,3.36c2.1-4.44,4.09-8.89,5.99-13.41
				C796.88,378.77,793.79,377.6,792.77,379.31L792.77,379.31z"/>
		</g>
		<g>
			<path class="st0" d="M807.24,404.99c2.38,16.33,6.24,32.45,8.71,48.78c0.54,3.61,6.07,2.09,5.5-1.52
				c-2.54-16.15-5.36-32.75-11.06-48.13C809.64,402.13,806.94,402.93,807.24,404.99L807.24,404.99z"/>
		</g>
		<g>
			<path class="st0" d="M806.38,402.31c-0.09,0.04-0.18,0.09-0.27,0.13c-0.46,0.22-0.7,0.78-0.72,1.25c-0.03,1,0.42,1.68,1.34,2.09
				c0.83,0.37,1.69,0.34,2.38-0.31c2.91-2.7,5.87-7.13,7.36-10.78c1.46-3.59-0.62-6.95-2.62-9.9c-0.95-1.4-3.51-1.42-3.9,0.51
				c-0.31,1.51-0.26,2.71,0.26,4.18c0.52,1.48,1.72,2.92,1.26,4.55c-0.45,1.59-2.03,3.23-2.9,4.64c-0.95,1.55-1.98,3.17-2.71,4.84
				c0.7-0.18,1.41-0.37,2.11-0.55c0.05,0.52,0.1,1.05,0.15,1.57C809.43,403.45,807.73,401.68,806.38,402.31L806.38,402.31z"/>
		</g>
		<g>
			<path class="st0" d="M786.21,376.59c-29.62-4-42.91,39.85-41.32,62.08c0.34,4.7,7.67,4.77,7.39,0
				c-1.56-26.3,7.37-50.73,33.93-59.45C787.35,378.85,787.65,376.79,786.21,376.59L786.21,376.59z"/>
		</g>
		<g>
			<path class="st0" d="M752.22,444.41c11.14,0.19,23.17,1.52,34.17-0.46c2.05-0.37,2.05-3.77,0-4.14
				c-11.01-1.98-23.03-0.65-34.17-0.46C748.97,439.42,748.97,444.36,752.22,444.41L752.22,444.41z"/>
		</g>
		<g>
			<path class="st0" d="M822.66,378.49c25.56,10.46,29.53,41.83,29.5,65.72c0,3.31,5.24,4.22,5.92,0.8
				c4.49-22.34-6.65-68.08-35.02-69.5C821.21,375.42,821.19,377.89,822.66,378.49L822.66,378.49z"/>
		</g>
		<g>
			<path class="st0" d="M816.55,443.94c11.02,3.56,24.89,1.83,36.34,1.86c0-2.19,0-4.38,0-6.57c-11.11-0.03-23.91-1.62-34.76,0.83
				c-2.42,0.55-2.43,4.36,0,4.91c10.84,2.45,23.65,0.86,34.76,0.83c4.23-0.01,4.23-6.58,0-6.57c-11.47,0.03-25.33-1.7-36.34,1.86
				C815.14,441.54,815.14,443.48,816.55,443.94L816.55,443.94z"/>
		</g>
		<g>
			<path class="st0" d="M956.72,553.55c-15.54-7.57-37.74,15.25-46.48,25.99c-11.31,13.9-22.6,38.85-13.73,56.45
				c1.36,2.71,4.92,1.07,5.18-1.4c0.93-8.69-0.44-17,1.76-25.72c1.97-7.82,5.67-15.19,10.26-21.79
				c8.47-12.17,26.15-31.63,42.23-30.69C957.43,556.49,958.07,554.21,956.72,553.55L956.72,553.55z"/>
		</g>
		<g>
			<path class="st0" d="M1003.65,555.24c33.5,11.37,42.28,51.06,40.99,82.49c-0.14,3.38,5.11,3.37,5.25,0
				c1.4-34.05-9-75.39-44.85-87.55C1001.84,549.09,1000.47,554.16,1003.65,555.24L1003.65,555.24z"/>
		</g>
		<g>
			<path class="st0" d="M964.1,565.38c-5.86,0.05-7.55,9.48-6.32,13.81c1.6,5.58,8.24,10.91,14,8.04c1.51-0.75,1.4-3.08,0-3.86
				c-3.19-1.8-6.88-2.34-8.44-6.11c-0.73-1.76-0.7-3.71-0.12-5.52c0.53-1.69,1.88-2.92,2.18-4.64
				C965.55,566.25,965.04,565.37,964.1,565.38L964.1,565.38z"/>
		</g>
		<g>
			<path class="st0" d="M983.42,568.42c2.35,0.92,4.56,4.37,4.19,6.85c-0.49,3.29-3.73,4.44-6.29,5.79c-1.41,0.75-1.56,3.23,0,3.93
				c5.7,2.56,11.83-2.69,12.36-8.45c0.26-2.77-0.64-5.52-2.44-7.64c-0.92-1.08-2.08-2.12-3.37-2.74c-1.55-0.74-2.5-0.39-4.1-0.42
				C982.16,565.74,982.07,567.9,983.42,568.42L983.42,568.42z"/>
		</g>
		<g>
			<path class="st0" d="M963.83,584.66c-6.97,19.51-11.17,42.18-13.46,62.77c-1.57,14.15,10.38,24.47,20.67,32.98
				c2,1.65,5.58-0.5,3.88-3c-3.99-5.86-9.33-10.41-13.59-16.03c-7.5-9.91-3.81-19.21-1.86-30.41c2.64-15.2,6.1-30.53,7.08-45.94
				C966.66,583.39,964.33,583.27,963.83,584.66L963.83,584.66z"/>
		</g>
		<g>
			<path class="st0" d="M984.42,582.48c0.44,17,3.55,34.11,5.75,50.97c0.84,6.44,3.29,14.5,2.41,21
				c-1.42,10.55-12.85,16-19.89,22.35c-2.74,2.47,0.87,7.25,3.98,5.16c13.45-9.07,22.56-18.02,20.63-34.6
				c-2.51-21.59-4.82-44.17-10.07-65.25C986.86,580.54,984.38,580.85,984.42,582.48L984.42,582.48z"/>
		</g>
		<g>
			<path class="st0" d="M899.66,637.97c6.56,3.61,14.41,2.72,21.75,3.08c9.58,0.47,19.14,1.1,28.7,1.84c4.82,0.37,4.77-7.08,0-7.49
				c-9.55-0.81-19.12-1.43-28.7-1.74c-7.35-0.24-15.08-1.45-21.75,2.01C898.77,636.12,898.81,637.5,899.66,637.97L899.66,637.97z"/>
		</g>
		<g>
			<path class="st0" d="M994.3,640.53c16.57-0.88,33.53,0.65,50.16,0.67c0-2.19,0-4.38,0-6.57c-15.48-0.02-33.89-2.68-48.95,0.91
				c-2.35,0.56-2.35,4.19,0,4.75c15.07,3.59,33.48,0.93,48.95,0.91c4.23-0.01,4.24-6.58,0-6.57c-16.62,0.02-33.59,1.55-50.16,0.67
				C990.93,635.12,990.92,640.71,994.3,640.53L994.3,640.53z"/>
		</g>
		<g>
			<path class="st0" d="M1003.93,556.06c14.63,8.29,25.19,19.38,31.06,35.33c5.59,15.17,3.58,30.31,6.42,45.7
				c0.52,2.82,4.72,2.53,5.42,0c8.34-30.17-9.86-75.22-41.68-83.94C1003.43,552.68,1002.34,555.16,1003.93,556.06L1003.93,556.06z"
				/>
		</g>
		<g>
			<path class="st0" d="M908.46,633.81c-0.18,0.01-0.35,0.02-0.53,0.03c0.44,0.34,0.88,0.67,1.32,1.01
				c-0.01-0.04-0.02-0.08-0.03-0.11c-0.14-0.61-0.7-1.19-1.32-1.32c-1.23-0.26-2.53-0.59-3.66-1.14c-1.21-0.59-2.16-1.58-3.51-1.83
				c-1.5-0.29-3.12,0.95-2.6,2.6c1.17,3.71,6.45,4.68,9.77,4.02c0.58-0.12,1.22-0.72,1.32-1.32c0.01-0.05,0.02-0.11,0.03-0.16
				c-0.32,0.32-0.64,0.64-0.96,0.96c0.17-0.03,0.35-0.05,0.52-0.08C910.32,636.23,909.96,633.74,908.46,633.81L908.46,633.81z"/>
		</g>
		<g>
			<path class="st0" d="M1043.17,629.6c-0.7,1.4-1.67,2.6-2.91,3.56c-1.24,0.96-2.76,1.47-3.99,2.42c-1.48,1.13-1.01,3.33,0.95,3.5
				c4.4,0.37,7.85-4.55,8.75-8.29C1046.35,629.16,1043.97,628,1043.17,629.6L1043.17,629.6z"/>
		</g>
		<g>
			<path d="M866.65,457.19c-33.55,1.76-54.8,49.1-50.49,78.28c0.57,3.89,6.59,2.79,6.67-0.9c0.69-32.73,12.96-61.02,44.6-74.51
				C868.85,459.45,868.1,457.12,866.65,457.19L866.65,457.19z"/>
		</g>
		<g>
			<path class="st0" d="M877.45,470.12c-5.24,2.57-7.04,10.84-4.9,15.88c2.23,5.24,8.28,8.14,13.34,5.01
				c1.99-1.23,1.36-5.01-1.28-4.74c-3.32,0.33-6.25-1.78-6.7-5.12c-0.47-3.52,1.72-6.29,1.99-9.62
				C880.01,470.2,878.46,469.62,877.45,470.12L877.45,470.12z"/>
		</g>
		<g>
			<path class="st0" d="M898.7,470.63c-0.03,0.2-0.06,0.39-0.08,0.59c-0.65,0.08-1.3,0.17-1.94,0.25c3.13,1.95,3.17,8.52,2.08,11.49
				c-1.38,3.78-4.83,6.18-8.34,7.74c-2.1,0.93-1.04,4.44,1.17,4.3c8.08-0.51,14.06-7.58,13.52-15.67c-0.24-3.52-1.9-7.33-4.61-9.67
				c-1.53-1.32-3.55-1.96-4.68,0.13c-0.33,0.61-0.23,1.3,0.23,1.8c0.11,0.12,0.23,0.25,0.34,0.37
				C897.29,472.96,899.16,471.94,898.7,470.63L898.7,470.63z"/>
		</g>
		<g>
			<path d="M918.09,459.83c4.1,5.37,9.36,9.47,13.14,15.24c3.52,5.38,4.65,12.23,8.55,17.13c1.57,1.97,4.21,0.11,4.43-1.84
				c0.71-6.41-4.91-14.56-8.6-19.43c-3.93-5.18-9.52-11.23-15.88-13.25C918.61,457.34,917.3,458.8,918.09,459.83L918.09,459.83z"/>
		</g>
		<g>
			<path d="M819.68,535.79c1.59,2.42,3.8,3.59,6.62,3.5c1.41,0.22,2.82,0.42,4.23,0.61c4.07,0.56,8.15,1.03,12.23,1.45
				c7.65,0.79,15.86,2.9,23.41,1.27c2.08-0.45,2.75-3.94,0.63-4.84c-7.83-3.33-17.36-2.76-25.79-3.33
				c-6.24-0.42-17.53-2.85-23.01,0.61c-0.59,0.37-0.86,1.04-0.7,1.72c0.05,0.2,0.1,0.39,0.14,0.59c0.11,0.43,0.52,0.91,0.98,0.98
				c0.17,0.03,0.34,0.06,0.51,0.08C820.67,538.7,821.37,536.37,819.68,535.79L819.68,535.79z"/>
		</g>
		<g>
			<path d="M907.4,541.32c10.76,1.87,22.53,1.11,33.37,0.41c4.4-0.28,4.48-7.06,0-6.91c-10.89,0.34-22.82,0.66-33.37,3.55
				C906.03,538.74,905.86,541.05,907.4,541.32L907.4,541.32z"/>
		</g>
		<g>
			<path class="st0" d="M956.66,297.05c-17.25,17.95-21.92,47.39-10.27,69.64c12.5,23.85,40.67,16.8,53.26-3.26
				c11.21-17.87,13.28-51.69-7.09-64.12c-9.2-5.62-22.06-9.45-32.42-4.8c-11.58,5.21-15.98,17.67-18.28,29.17
				c-0.5,2.53,3.33,4.61,4.48,1.89c3.03-7.17,6.26-16.66,12.35-21.74c9.08-7.56,25.38-3.93,33.75,3.87c13,12.12,9.5,38.6,0.94,52.06
				c-5.7,8.96-17.18,18.19-28.66,14.97c-9.94-2.79-14.7-14.84-16.67-23.93c-4.04-18.57,0.77-36.28,11.01-51.89
				C960.01,297.44,957.85,295.81,956.66,297.05L956.66,297.05z"/>
		</g>
		<g>
			<path class="st0" d="M924.08,386.53c4.58-3.87,9.29-7.47,15.04-9.43c4.49-1.53,10.06-0.69,14.02-3.15c1.46-0.91,1.47-3,0-3.92
				c-4.8-2.99-12.3,0.15-16.97,2.29c-5.84,2.68-11.07,6.89-14.28,12.51C921.07,386.27,922.9,387.52,924.08,386.53L924.08,386.53z"/>
		</g>
		<g>
			<path class="st0" d="M989.88,372.81c5.01,2.86,10.5,3.55,15.13,7.45c4.71,3.97,7.02,8.62,9.6,14.05
				c1.59,3.34,6.43,0.89,5.72-2.41c-1.38-6.45-6.44-12.53-11.72-16.31c-4.69-3.37-12.59-7.24-18.42-5.21
				C989.16,370.74,988.84,372.21,989.88,372.81L989.88,372.81z"/>
		</g>
		<g>
			<path class="st0" d="M961.64,378.12c-11.09,5.86-3.92,24.89,8.31,21.85c2.09-0.52,1.76-3.25,0-3.92
				c-3.04-1.15-6.26-2.87-7.52-6.05c-1.32-3.36-0.07-6.57,1.56-9.53C964.82,378.93,963.15,377.32,961.64,378.12L961.64,378.12z"/>
		</g>
		<g>
			<path class="st0" d="M977.07,379.85c0.22,1.86,1.19,3.44,1.42,5.3c0.23,1.89-0.07,3.93-0.85,5.66c-1.76,3.87-5.19,4.11-8.93,4.15
				c-1.79,0.02-2.64,1.85-1.92,3.35c3.31,6.94,12.84,1.98,15.54-2.92c2.63-4.77,2.64-14.66-3.53-16.85
				C978.03,378.26,976.97,379,977.07,379.85L977.07,379.85z"/>
		</g>
		<g>
			<path class="st0" d="M962.06,396.14c-2.77,7.01-4.96,14.21-7.16,21.42c-1.44,4.72-5.02,11.55-4.4,16.64
				c0.94,7.71,11.19,16.3,15.66,21.97c0.96,1.21,2.99,0.96,3.98,0c5.41-5.2,16.21-12.03,16.87-20.02
				c0.95-11.42-4.75-26.44-7.39-37.48c-0.83-3.47-6.12-2-5.34,1.47c1.93,8.62,4.54,17.42,5.56,26.2
				c1.47,12.62-5.62,18.06-13.68,25.85c1.33,0,2.65,0,3.98,0c-2.59-3.26-5.42-6.44-7.82-9.85c-4.55-6.46-6.27-9.3-4.18-16.86
				c2.6-9.41,5.28-18.86,7.05-28.47C965.57,394.93,962.82,394.21,962.06,396.14L962.06,396.14z"/>
		</g>
		<g>
			<path class="st0" d="M929.18,437.68c4.14,0.57,8.28,1.07,12.42,1.64c3.8,0.53,7.77,1.67,11.51,0.5c1.78-0.56,1.95-2.78,0.49-3.79
				c-3.3-2.29-7.71-2.19-11.62-2.25c-4.31-0.06-8.56,0.29-12.81,1C927.77,435.03,927.73,437.48,929.18,437.68L929.18,437.68z"/>
		</g>
		<g>
			<path class="st0" d="M984.55,439.83c4.67,0.93,9.42,0.98,14.15,1.2c4.34,0.2,8.88,1.38,12.9-0.5c1.61-0.75,1.23-2.95,0-3.79
				c-3.6-2.47-8.67-1.78-12.9-1.7c-4.79,0.08-9.59,0.43-14.15,1.97C983.28,437.43,983.03,439.53,984.55,439.83L984.55,439.83z"/>
		</g>
		<g>
			<path class="st0" d="M1010.15,434.09c-1.15,1.13-2.89,2.07-4.48,2.36c-0.84,0.15-1.33,1.1-1.23,1.88
				c0.12,0.91,0.82,1.38,1.68,1.49c2.83,0.35,5.21-0.5,7.25-2.5C1015.46,435.25,1012.24,432.03,1010.15,434.09L1010.15,434.09z"/>
		</g>
		<g>
			<path class="st0" d="M1036.2,471.86c-3.8,3.19-8.31,10.72-5.77,15.82c2.65,5.32,10.81,7.91,16.16,8.65
				c2.31,0.32,3.86-2.53,1.66-3.94c-3.48-2.22-8.06-3.91-11.19-6.58c-3.55-3.03,1.23-9.21,1.4-13.02
				C1038.51,471.56,1037.01,471.17,1036.2,471.86L1036.2,471.86z"/>
		</g>
		<g>
			<path class="st0" d="M1055.37,474.06c-0.05,3.27,1.63,5.94,0.35,9.29c-1.07,2.79-3.55,5.15-6.09,6.63
				c-2.02,1.17-1.26,4.76,1.24,4.59c5.4-0.37,9.71-3.65,11.12-8.98c1.12-4.25,0.04-11.46-4.87-12.86
				C1056.25,472.47,1055.39,473.17,1055.37,474.06L1055.37,474.06z"/>
		</g>
		<g>
			<path d="M1027.94,534.92c-1.82-3.24-7.83-3.45-11.09-3.46c-4.06-0.01-3.99,6.54,0,6.25c1.9-0.14,3.83-0.25,5.74-0.22
				c1.63,0.03,3.41,0.27,4.85-0.64C1028.08,536.44,1028.33,535.61,1027.94,534.92L1027.94,534.92z"/>
		</g>
		<g>
			<path d="M1067.64,539.43c5.62,2,13.1,1.29,19.07,2.22c5.32,0.83,11.39,2.45,15.99-0.93c1.9-1.4,1.62-4.07-0.64-4.89
				c-3.12-1.14-6.07-0.74-9.36-1.02c-3.75-0.32-7.44-1.06-11.22-1.12c-4.91-0.08-10.63,0.09-14.46,3.4
				C1066.16,537.83,1066.72,539.11,1067.64,539.43L1067.64,539.43z"/>
		</g>
		<g>
			<path d="M1025.87,459.66c-9.78-1.54-19.67,3.11-27.17,9.02c-2.98,2.35,1.04,7.63,4.09,5.3c7.15-5.47,14.81-7.91,23.08-11.06
				C1027.24,462.4,1027.7,459.95,1025.87,459.66L1025.87,459.66z"/>
		</g>
		<g>
			<path d="M1070.42,462.39c22.12,6.96,31.82,27.07,32.72,49.07c0.17,4.26,0.02,8.53-0.23,12.79c-0.5,8.31-0.44,9.88-8.8,10.81
				c-9.04,1-18-1.88-27.07-0.01c-2.83,0.58-2.51,4.66,0,5.42c7.34,2.21,15.05,1.82,22.68,2.14c4.21,0.18,13.42,2.51,17.07-0.36
				c2.83-2.22,2.76-6.21,3.09-9.48c0.84-8.47,1.36-17.04,0.63-25.54c-1.9-22.04-14.8-47.31-39.62-48.32
				C1068.83,458.82,1068.55,461.81,1070.42,462.39L1070.42,462.39z"/>
		</g>
		<g>
			<path class="st0" d="M1126.99,304.61c-18.49,7.33-23.17,39.94-17.47,56.7c2.72,8,8.9,16.77,17.34,19.44
				c8.39,2.66,16.15-2.62,22.28-8.04c15.36-13.57,17.73-44.35,5.71-60.9c-11.69-16.09-32.4-12.96-39.29,5.12
				c-0.94,2.46,2.71,3.65,4.03,1.7c13.26-19.51,32.53-7.93,35.12,12.09c1.8,13.93-0.56,29.53-12.46,38.46
				c-13.92,10.45-25.3-2.25-27.92-16.17c-2.3-12.19,1.06-39.19,13.75-45.83C1129.48,306.47,1128.5,304.01,1126.99,304.61
				L1126.99,304.61z"/>
		</g>
		<g>
			<path class="st0" d="M1122.29,374c-4.83,0.93-6.03,8.73-5.24,12.66c1.09,5.36,5.45,9.37,10.75,10.44
				c5.07,1.02,10.35-0.75,13.43-4.98c3.05-4.18,4.1-10.7-0.13-14.38c-1.3-1.13-3.86-0.48-3.71,1.54c0.2,2.8,0.57,5.93-0.91,8.47
				c-1.62,2.8-4.83,3.86-7.91,3.06c-3.05-0.8-5.2-3.15-5.82-6.22c-0.35-1.71-0.28-3.61,0.18-5.29c0.39-1.4,1.11-2.47,1.12-3.95
				C1124.07,374.38,1123.16,373.83,1122.29,374L1122.29,374z"/>
		</g>
		<g>
			<path class="st0" d="M1122.21,390.85c-2.17,19.57-8.38,38.49-10.42,57.98c-1.41,13.46,10.32,28.38,16.05,39.87
				c0.97,1.94,3.83,1.71,4.85,0c5.47-9.13,10.99-18.23,16.38-27.41c1.8-3.07-2.91-5.81-4.77-2.79
				c-5.56,9.08-10.99,18.23-16.47,27.36c1.62,0,3.24,0,4.85,0c-3.7-7.39-7.41-14.77-11.12-22.16c-5-9.94-4.14-16.91-1.98-27.53
				c3.05-15.01,6.92-29.89,5.82-45.33C1125.26,388.76,1122.44,388.82,1122.21,390.85L1122.21,390.85z"/>
		</g>
		<g>
			<path class="st0" d="M1136.86,394.04c1.74,22.09,3.43,44.88,6.87,66.75c1.08-1.08,2.16-2.16,3.23-3.23
				c-0.26-0.08-0.51-0.17-0.77-0.25c-1.19-0.38-2.77,0.68-2.64,2.01c0.03,0.26,0.05,0.52,0.08,0.78c0.34,3.3,5.26,3.46,5.26,0
				c0.02-21.78-3.92-45.36-9.22-66.44C1139.29,392.12,1136.73,392.39,1136.86,394.04L1136.86,394.04z"/>
		</g>
		<g>
			<path class="st0" d="M1118.99,380.8c-5.7-3.89-17.23,3.34-22.02,6.57c-6.16,4.16-15.65,11.4-16.12,19.31
				c-0.11,1.88,2.16,3.03,3.69,2.12c5.25-3.13,8.28-9.87,12.93-14.04c4.41-3.95,14.41-12.04,20.78-11.24
				C1119.82,383.71,1120.04,381.52,1118.99,380.8L1118.99,380.8z"/>
		</g>
		<g>
			<path class="st0" d="M1141.98,383.08c14.66,2.22,25.08,10.97,30.73,24.62c5.15,12.43,4.33,26.18,8.95,38.51
				c1.01,2.71,4.68,2.21,4.96-0.67c2.34-24.59-12.19-71.29-44.64-65.53C1140.48,380.28,1140.44,382.85,1141.98,383.08
				L1141.98,383.08z"/>
		</g>
		<g>
			<path class="st0" d="M1079.78,445.13c5.65,1.3,11.44,1.37,17.21,1.78c5.63,0.4,11.85,1.83,17.34,0.36
				c1.67-0.44,2.21-3.09,0.51-3.9c-5.07-2.4-11.02-2.02-16.56-2.18c-6.19-0.17-12.45-0.34-18.5,1.07
				C1078.36,442.59,1078.36,444.8,1079.78,445.13L1079.78,445.13z"/>
		</g>
		<g>
			<path class="st0" d="M1146.18,447c5.87,1.67,11.96,2.37,18.03,2.94c6.55,0.61,14.21,2.11,20.56,0.18c2.69-0.82,2.3-4.13,0-5.09
				c-6.11-2.54-14-1.78-20.56-1.83c-6.04-0.04-12.07,0.1-18.03,1.15C1144.79,444.59,1144.96,446.65,1146.18,447L1146.18,447z"/>
		</g>
		<g>
			<g>
				<g>
					<path id="XMLID_00000141448173275976533280000013278958464902581941_" class="st0" d="M721.2,880.29
						c-2.21,1.1-6.39,3.08-11.23,3.44c-0.86,0.06-1.49,0.06-1.7,0.05c-4.37-0.08-7.73-1.74-8.84-2.41
						c-4.11-2.47-6.98-9.07-6.32-16.71l0.07-2c1.79-0.04,4.76-0.16,7.66-0.54c3.21-0.42,6.19-1.01,8.87-1.77
						c3.22-0.91,8.62-2.43,14.19-6.48c6.27-4.54,10.26-9.69,11.87-15.31c0.59-2.07,0.89-4.25,0.89-6.49c0-4.32-1.13-7.63-3.58-10.46
						c-2.65-2.65-5.84-3.94-9.74-3.94c-5.4,0-10.24,1.2-14.8,3.66c-5.46,2.82-10.65,7.03-15.43,12.52
						c-9.52,10.98-14.14,22.32-14.14,34.66c0,6.84,1.93,12.37,5.89,16.89c0.97,1.11,2.55,2.63,4.75,3.99
						c3.99,2.47,7.84,3,10.51,3.34c1.1,0.14,2.42,0.25,3.91,0.26c1.3,0.01,4.87-0.06,10.24-1.59c4.75-1.36,8.1-3.07,11-4.57
						c2.81-1.45,6.51-3.58,10.6-6.59l0.23-0.17l0.03-8.62l-0.93,0.7C731.79,874.42,726.93,877.44,721.2,880.29z M717.99,826.68
						c0.36,0,0.72,0.02,1.08,0.06c2.03,0.21,3.43,1.05,4.27,2.54c0.88,1.55,1.16,3.85,0.84,6.85c-0.37,3.52-1.55,6.06-2.22,7.26
						c-2.15,3.83-5.11,5.82-6.53,6.78c-1.01,0.68-2.07,1.23-2.08,1.24c-0.88,0.46-1.79,0.83-2.38,1.06c0,0-1.84,0.62-3.82,1.19
						c-2.65,0.77-6.75,1.17-13.23,1.28c1.73-7.66,5.07-14.29,10.17-20.22c2.37-2.7,4.79-4.77,7.01-5.99
						C713.45,827.37,715.76,826.68,717.99,826.68z"/>
				</g>
			</g>
			<g>
				<path class="st0" d="M800.98,852.38c-1.89,3.5-4.86,6.32-8.89,8.46c-4.04,2.14-9.12,3.21-15.26,3.21H764.3v28.7h-14.99v-74.75
					h27.52c5.78,0,10.71,1,14.78,3c4.07,2,7.12,4.75,9.16,8.25c2.03,3.5,3.05,7.46,3.05,11.89
					C803.82,845.14,802.87,848.89,800.98,852.38z M785.4,849.12c2-1.89,3-4.55,3-7.98c0-7.28-4.07-10.92-12.21-10.92H764.3v21.74
					h11.89C780.33,851.96,783.4,851.01,785.4,849.12z"/>
				<path class="st0" d="M854.26,878.52h-29.77l-4.93,14.24h-15.74l26.88-74.86h17.46l26.88,74.86h-15.85L854.26,878.52z
					 M850.19,866.52l-10.82-31.27l-10.82,31.27H850.19z"/>
				<path class="st0" d="M923.66,892.76l-16.49-29.13h-7.07v29.13H885.1v-74.75h28.06c5.78,0,10.71,1.02,14.78,3.05
					c4.07,2.04,7.12,4.78,9.16,8.25c2.04,3.46,3.05,7.34,3.05,11.62c0,4.93-1.43,9.37-4.28,13.33c-2.86,3.96-7.1,6.69-12.74,8.19
					l17.88,30.31H923.66z M900.1,852.38h12.53c4.07,0,7.1-0.98,9.1-2.95c2-1.96,3-4.69,3-8.19c0-3.43-1-6.09-3-7.98
					c-2-1.89-5.03-2.84-9.1-2.84H900.1V852.38z"/>
				<path class="st0" d="M1004.62,818.01v12.1h-19.92v62.65h-14.99v-62.65h-19.92v-12.1H1004.62z"/>
				<path class="st0" d="M1079.49,892.76h-14.99l-33.95-51.3v51.3h-14.99V817.9h14.99l33.95,51.41V817.9h14.99V892.76z"/>
				<path class="st0" d="M1109.26,830.11v18.74h25.17v11.89h-25.17v19.81h28.38v12.21h-43.37V817.9h43.37v12.21H1109.26z"/>
				<path class="st0" d="M1189.79,892.76l-16.49-29.13h-7.07v29.13h-14.99v-74.75h28.06c5.78,0,10.71,1.02,14.78,3.05
					c4.07,2.04,7.12,4.78,9.16,8.25c2.04,3.46,3.05,7.34,3.05,11.62c0,4.93-1.43,9.37-4.28,13.33c-2.86,3.96-7.1,6.69-12.74,8.19
					l17.88,30.31H1189.79z M1166.23,852.38h12.53c4.07,0,7.1-0.98,9.1-2.95c2-1.96,3-4.69,3-8.19c0-3.43-1-6.09-3-7.98
					c-2-1.89-5.03-2.84-9.1-2.84h-12.53V852.38z"/>
				<path class="st0" d="M1234.88,818.01v74.75h-14.99v-74.75H1234.88z"/>
			</g>
		</g>
		<g>
			<path class="st0" d="M978.71,462.17c-32.45,1.27-44.48,37.39-39.46,65.21c2.32,12.89,9.02,30.81,20.21,38.6
				c11.35,7.9,26.97,5.4,38-1.71c25.85-16.68,29.09-50.99,16.15-76.86c-5.9-11.81-15.71-23.94-29.45-26.27
				c-13.65-2.31-27.15,6.62-34.01,17.87c-1.58,2.59,1.89,4.91,4.01,3.09c10.3-8.81,22.31-18.77,36.35-10.65
				c9.36,5.41,15.6,16.15,19.29,26c7.91,21.1,3.68,47.24-16.22,60.19c-11.76,7.66-27.25,8.06-35.85-4.52
				c-5.95-8.7-10.35-20.77-11.42-31.23c-2.56-25.14,6.04-50.86,32.78-56.96C980.62,464.58,980.3,462.11,978.71,462.17L978.71,462.17
				z"/>
		</g>
		<g>
			<path class="st0" d="M1036.16,493.72c-2.5,9.22-3.58,18.83-5.78,28.15c-1.78,7.53-5.76,15.73-6.38,23.45
				c-0.37,4.57,0.84,6.8,3.13,10.67c5.04,8.52,11.69,18.61,17.72,26.45c1.61,2.09,5.16,1,4.46-1.88c-1.6-6.61-5.09-12.15-8.88-17.78
				c-5.62-8.32-9.36-13.48-7.88-24.18c2.08-15.02,7.51-29.04,6.37-44.5C1038.81,492.57,1036.6,492.12,1036.16,493.72L1036.16,493.72
				z"/>
		</g>
		<g>
			<path class="st0" d="M1054.82,492.95c-0.12,13.35,3.05,27.03,5.34,40.14c1.56,8.95,3.64,17.62-0.82,26.15
				c-3.78,7.24-10.3,12.57-13.82,20.08c-1.34,2.86,1.95,5.61,4.41,3.41c8.84-7.91,20.91-21.69,19.85-34.36
				c-1.48-17.67-5.89-39.28-12.35-55.76C1056.91,491.26,1054.83,491.35,1054.82,492.95L1054.82,492.95z"/>
		</g>
		<g>
			<path class="st0" d="M878.16,488.95c-3.76,11.09-6.71,22.41-9.72,33.72c-2.11,7.95-4.88,15.71-2.35,23.87
				c2.35,7.57,6.68,15.13,11.07,21.64c2.12,3.14,4.75,8.14,9.43,7.61c5.31-0.61,10-9.02,12.93-12.48
				c4.49-5.29,9.25-9.66,10.35-16.65c1.13-7.16-0.98-15.9-2-23.01c-1.68-11.7-3.91-23.48-7.65-34.71c-1.18-3.54-6.41-2.12-5.6,1.54
				c2.99,13.54,6.2,26.82,7.79,40.64c0.94,8.2,1.35,15.26-3.3,22.57c-1.23,1.94-11.07,14.98-12.79,14.86
				c-3.29-0.24-8.03-11.16-9.39-13.77c-4.17-7.97-5.8-14.69-4.34-23.69c2.25-13.84,6.63-27.34,8.92-41.22
				C881.88,487.69,878.89,486.79,878.16,488.95L878.16,488.95z"/>
		</g>
		<g>
			<path d="M874.92,380.4c-20.84,16.19-28.8,54.64-14.31,77.07c14.63,22.65,43.89,22.44,60.19,1.75
				c9.26-11.75,11.98-27.09,12.25-41.69c0.22-12.07-0.42-25.91-9.78-34.73c-17.1-16.11-54.47-11.99-59.83,13.06
				c-0.67,3.12,3.58,4.19,4.71,1.3c9.03-23.03,49.43-21.35,56.19,1.9c5.3,18.23,1.26,45.73-12.44,59.25
				c-17.71,17.48-42.78,8.06-49.77-14.53c-5.96-19.27,1.61-46.51,14.78-61.38C878.16,381,876.33,379.3,874.92,380.4L874.92,380.4z"
				/>
		</g>
		<g>
			<path d="M1047.78,376.56c-30.94-1.96-39.31,38.58-35.65,62c3.68,23.51,28.8,47.88,52.59,30.99
				c23.13-16.41,31.24-56.78,14.41-79.95c-13.13-18.06-44.66-22.74-53.38,1.78c-0.84,2.36,2.49,3.34,3.77,1.59
				c15.59-21.44,42.9-9.35,49.41,12.89c5.34,18.26-1.8,43.9-16.78,56.09c-22.79,18.54-42.57-11.19-43.58-31.74
				c-1.07-21.63,6.24-45.29,29.62-50.6C1049.98,379.22,1049.46,376.67,1047.78,376.56L1047.78,376.56z"/>
		</g>
	</g>
</g>
</svg>
