<?xml version="1.0" encoding="utf-8"?>
<!-- Generator: Adobe Illustrator 26.0.1, SVG Export Plug-In . SVG Version: 6.00 Build 0)  -->
<svg version="1.1" id="Layer_1" xmlns="http://www.w3.org/2000/svg" xmlns:xlink="http://www.w3.org/1999/xlink" x="0px" y="0px"
	 viewBox="0 0 1920 1080" style="enable-background:new 0 0 1920 1080;" xml:space="preserve">
<style type="text/css">
	.st0{fill:#C3272E;}
</style>
<g>
	<g>
		<g>
			<path id="XMLID_00000141448173275976533280000013278958464902581941_" class="st0" d="M299.48,609.06
				c-6.12,3.04-17.69,8.53-31.08,9.51c-2.38,0.17-4.13,0.15-4.7,0.14c-12.09-0.21-21.39-4.82-24.44-6.66
				c-11.36-6.83-19.31-25.09-17.48-46.23l0.2-5.53c4.95-0.11,13.16-0.45,21.21-1.5c8.88-1.16,17.13-2.8,24.54-4.89
				c8.92-2.52,23.84-6.73,39.27-17.92c17.34-12.56,28.4-26.82,32.85-42.37c1.64-5.72,2.47-11.76,2.47-17.94
				c0-11.95-3.12-21.12-9.91-28.94c-7.33-7.33-16.15-10.89-26.95-10.89c-14.93,0-28.34,3.31-40.95,10.11
				c-15.1,7.8-29.46,19.45-42.68,34.63c-26.33,30.38-39.13,61.75-39.13,95.9c0,18.93,5.33,34.22,16.29,46.74
				c2.7,3.08,7.07,7.28,13.15,11.04c11.05,6.83,21.7,8.29,29.09,9.23c3.06,0.39,6.7,0.69,10.82,0.71
				c3.59,0.02,13.47-0.16,28.33-4.41c13.13-3.76,22.41-8.5,30.43-12.64c7.77-4.01,18-9.9,29.34-18.23l0.63-0.48l0.09-23.85
				l-2.56,1.93C328.8,592.81,315.34,601.18,299.48,609.06z M290.61,460.73c1,0,2,0.05,2.99,0.16c5.62,0.59,9.49,2.89,11.83,7.03
				c2.42,4.29,3.21,10.66,2.34,18.95c-1.02,9.74-4.29,16.76-6.14,20.08c-5.94,10.6-14.13,16.1-18.06,18.75
				c-2.79,1.87-5.72,3.4-5.76,3.42c-2.43,1.26-4.95,2.31-6.58,2.94c-0.01,0-5.08,1.71-10.56,3.3c-7.33,2.13-18.67,3.23-36.59,3.55
				c4.8-21.2,14.02-39.53,28.14-55.95c6.54-7.47,13.24-13.19,19.41-16.57C278.06,462.63,284.45,460.73,290.61,460.73z"/>
		</g>
	</g>
	<g>
		<path d="M520.23,531.85c-5.24,9.68-13.44,17.48-24.59,23.41c-11.16,5.93-25.24,8.89-42.23,8.89h-34.67v79.41h-41.48V436.74h76.15
			c16,0,29.63,2.77,40.89,8.3c11.26,5.53,19.71,13.14,25.34,22.82c5.63,9.68,8.44,20.64,8.44,32.89
			C528.08,511.8,525.46,522.18,520.23,531.85z M477.12,522.81c5.53-5.23,8.3-12.59,8.3-22.08c0-20.15-11.26-30.22-33.78-30.22
			h-32.89v60.15h32.89C463.09,530.67,471.58,528.05,477.12,522.81z"/>
		<path d="M684.24,604.15h-82.38l-13.63,39.41h-43.56l74.38-207.12h48.3l74.38,207.12h-43.86L684.24,604.15z M672.97,570.96
			l-29.93-86.52l-29.93,86.52H672.97z"/>
		<path d="M876.24,643.56l-45.63-80.6h-19.56v80.6h-41.48V436.74h77.63c16,0,29.63,2.82,40.89,8.44
			c11.26,5.63,19.71,13.24,25.34,22.82c5.63,9.59,8.44,20.3,8.44,32.15c0,13.63-3.95,25.93-11.85,36.89
			c-7.9,10.96-19.66,18.52-35.26,22.67l49.48,83.86H876.24z M811.05,531.85h34.67c11.26,0,19.66-2.71,25.19-8.15
			c5.53-5.43,8.3-12.99,8.3-22.67c0-9.48-2.77-16.84-8.3-22.08c-5.53-5.23-13.93-7.85-25.19-7.85h-34.67V531.85z"/>
		<path d="M1100.25,436.74v33.48h-55.11v173.34h-41.48V470.22h-55.12v-33.48H1100.25z"/>
		<path d="M1307.37,643.56h-41.48l-93.93-141.93v141.93h-41.48V436.44h41.48l93.93,142.23V436.44h41.48V643.56z"/>
		<path d="M1389.74,470.22v51.86h69.63v32.89h-69.63v54.82h78.52v33.78h-120.01V436.44h120.01v33.78H1389.74z"/>
		<path d="M1612.57,643.56l-45.63-80.6h-19.56v80.6h-41.48V436.74h77.63c16,0,29.63,2.82,40.89,8.44
			c11.26,5.63,19.71,13.24,25.34,22.82c5.63,9.59,8.44,20.3,8.44,32.15c0,13.63-3.95,25.93-11.85,36.89
			c-7.9,10.96-19.66,18.52-35.26,22.67l49.48,83.86H1612.57z M1547.38,531.85h34.67c11.26,0,19.66-2.71,25.19-8.15
			c5.53-5.43,8.3-12.99,8.3-22.67c0-9.48-2.77-16.84-8.3-22.08c-5.53-5.23-13.93-7.85-25.19-7.85h-34.67V531.85z"/>
		<path d="M1737.31,436.74v206.83h-41.48V436.74H1737.31z"/>
	</g>
</g>
</svg>
